<?xml version="1.0" standalone="no"?>
<!DOCTYPE svg PUBLIC "-//W3C//DTD SVG 20010904//EN"
 "http://www.w3.org/TR/2001/REC-SVG-20010904/DTD/svg10.dtd">
<svg version="1.0" xmlns="http://www.w3.org/2000/svg"
 width="928.000000pt" height="928.000000pt" viewBox="0 0 928.000000 928.000000"
 preserveAspectRatio="xMidYMid meet">
<metadata>
Created by potrace 1.14, written by Peter Selinger 2001-2017
</metadata>
<g transform="translate(0.000000,928.000000) scale(0.100000,-0.100000)"
fill="#000000" stroke="none">
<path d="M5576 8951 c-28 -4 -60 -7 -73 -6 -13 0 -23 -2 -23 -5 0 -3 -15 -5
-33 -6 -38 -1 -140 -15 -217 -30 -14 -3 -38 -7 -55 -9 -40 -6 -73 -13 -93 -19
-9 -3 -29 -7 -43 -10 -116 -19 -545 -150 -644 -196 -11 -5 -49 -21 -85 -36
-124 -50 -285 -126 -342 -161 -21 -13 -38 -20 -38 -16 0 5 -4 4 -8 -2 -4 -5
-16 -15 -27 -21 -85 -46 -144 -80 -165 -94 -14 -9 -79 -52 -145 -95 -108 -71
-232 -159 -245 -175 -3 -3 -19 -16 -37 -28 -31 -22 -89 -71 -125 -104 -10 -10
-20 -18 -22 -18 -7 0 -131 -116 -225 -211 -128 -128 -208 -216 -293 -322 -13
-15 -28 -33 -33 -40 -57 -66 -245 -332 -245 -347 0 -4 -4 -10 -8 -12 -10 -4
-112 -170 -112 -182 0 -3 102 -5 227 -5 126 0 251 0 278 0 28 0 101 1 163 2
63 1 116 -1 118 -5 3 -4 15 -4 27 0 12 4 45 6 72 5 67 -3 132 -3 238 0 76 2
90 5 99 21 14 25 236 250 308 311 95 82 103 89 170 140 94 73 226 163 295 201
17 9 32 20 35 23 17 21 349 182 470 229 97 37 138 53 150 57 3 1 12 4 20 7 23
9 159 49 165 49 2 0 19 5 37 10 51 16 223 53 288 63 19 3 46 8 60 10 79 14
151 22 275 30 44 3 92 8 108 10 15 2 27 -1 27 -7 0 -6 5 -6 13 0 17 12 331 4
432 -12 17 -2 53 -7 80 -11 28 -3 59 -7 70 -9 11 -2 36 -6 55 -9 19 -3 60 -10
90 -16 30 -6 66 -14 80 -16 28 -6 148 -38 198 -53 17 -5 32 -7 32 -4 0 3 6 0
13 -6 8 -6 24 -13 38 -15 13 -3 25 -5 27 -7 1 -1 5 -2 10 -4 4 -1 20 -7 35
-13 16 -7 32 -12 36 -12 7 0 160 -60 221 -88 19 -8 37 -16 40 -16 3 -1 46 -22
95 -46 176 -86 489 -282 483 -301 -3 -7 -625 -635 -2152 -2171 -108 -108 -196
-201 -196 -206 0 -5 -6 -15 -13 -21 -28 -22 -75 -137 -82 -199 -4 -36 -7 -115
-5 -127 1 -5 2 -14 1 -19 -1 -5 1 -16 5 -25 4 -9 8 -20 8 -26 3 -26 31 -105
38 -105 4 0 8 -7 8 -14 0 -34 -54 21 2022 -2064 l377 -379 -29 -21 c-16 -12
-34 -22 -40 -22 -5 0 -10 -4 -10 -9 0 -9 -96 -71 -111 -71 -5 0 -9 -4 -9 -8 0
-5 -12 -15 -27 -22 -16 -8 -35 -19 -43 -26 -8 -6 -40 -25 -70 -41 -30 -16 -64
-35 -75 -41 -11 -6 -56 -28 -100 -49 -44 -21 -83 -42 -87 -48 -4 -5 -8 -7 -8
-3 0 4 -30 -7 -67 -24 -57 -26 -274 -105 -308 -113 -5 -1 -17 -5 -25 -8 -19
-8 -206 -57 -240 -63 -14 -2 -36 -7 -50 -10 -14 -3 -38 -8 -55 -10 -16 -3 -52
-9 -80 -14 -74 -15 -171 -26 -300 -36 -150 -12 -488 -5 -595 12 -19 3 -64 9
-100 14 -128 19 -146 22 -233 42 -49 11 -96 21 -105 23 -9 2 -17 4 -17 5 0 1
-7 3 -15 5 -48 10 -273 80 -330 103 -14 6 -50 20 -80 32 -171 69 -502 242
-548 287 -7 7 -17 13 -22 13 -5 0 -15 6 -22 13 -7 7 -38 29 -68 49 -186 122
-428 343 -621 568 -74 86 -189 237 -189 249 0 5 -3 11 -8 13 -9 4 -59 80 -125
190 -68 113 -213 406 -221 448 -1 5 -42 111 -56 145 -9 22 -50 151 -55 175 -9
39 -47 175 -50 178 -5 5 -997 4 -1002 -1 -4 -4 7 -78 23 -147 3 -14 7 -36 10
-50 3 -14 10 -43 16 -65 5 -22 12 -48 13 -57 2 -10 7 -23 10 -29 4 -5 8 -20
10 -32 1 -12 15 -62 30 -112 16 -49 30 -94 31 -100 2 -11 70 -200 81 -225 3
-8 7 -20 8 -26 2 -6 30 -71 64 -145 33 -74 61 -139 61 -146 0 -6 3 -13 8 -15
4 -1 18 -25 32 -53 13 -27 32 -62 43 -77 10 -16 15 -28 11 -28 -4 0 -1 -8 8
-17 8 -10 19 -29 26 -43 6 -14 23 -43 37 -65 13 -22 31 -52 40 -67 59 -105
255 -381 354 -498 17 -19 45 -53 63 -74 81 -97 247 -268 354 -364 105 -96 118
-107 169 -147 27 -22 61 -50 75 -63 14 -13 50 -39 80 -59 30 -21 61 -43 69
-51 15 -15 261 -178 273 -181 4 -1 36 -20 70 -41 66 -42 458 -240 480 -244 7
-1 18 -5 24 -9 21 -12 196 -78 319 -118 129 -43 342 -101 452 -124 37 -7 77
-16 88 -18 11 -3 43 -8 70 -12 28 -4 59 -9 70 -11 305 -51 804 -64 1085 -29
14 1 54 6 90 9 56 6 149 20 265 40 17 3 53 10 80 16 28 6 61 13 75 16 14 3 33
7 42 10 10 3 30 7 45 10 16 3 59 14 97 25 38 12 76 22 85 24 10 2 33 10 53 18
20 9 38 13 41 11 2 -2 25 5 51 17 26 11 55 22 64 24 46 9 370 140 432 175 8 5
53 27 100 51 151 76 435 246 535 322 5 4 28 21 50 37 56 41 49 36 160 124 104
83 108 86 190 162 253 232 299 310 299 499 -1 55 -3 109 -6 120 -16 55 -48
126 -75 166 -17 24 -564 578 -1215 1231 l-1185 1188 591 594 c325 328 857 862
1181 1189 325 326 602 608 616 627 69 91 99 194 95 319 -6 156 -55 250 -209
397 -117 111 -148 140 -227 204 -30 25 -57 47 -60 50 -3 3 -25 21 -50 40 -25
19 -50 39 -57 45 -6 5 -35 26 -63 45 -28 19 -63 45 -78 57 -15 13 -32 23 -39
23 -6 0 -13 3 -15 8 -4 9 -65 52 -75 52 -4 0 -26 14 -47 30 -22 17 -46 30 -53
30 -7 0 -13 5 -13 10 0 6 -7 10 -15 10 -8 0 -15 5 -15 11 0 5 -4 8 -9 4 -5 -3
-13 -1 -16 5 -4 6 -37 26 -73 45 -37 19 -74 40 -82 45 -32 21 -381 180 -395
180 -4 0 -23 7 -43 16 -59 26 -72 31 -167 62 -144 48 -258 82 -280 83 -3 0
-23 6 -45 14 -22 8 -44 14 -48 14 -4 0 -27 5 -52 10 -43 10 -83 18 -125 26
-11 2 -47 9 -80 16 -33 6 -73 13 -90 16 -72 10 -102 14 -135 18 -19 3 -53 7
-75 11 -59 8 -782 12 -839 5z"/>
<path d="M977 6554 c-1 -1 -29 -4 -63 -7 -100 -10 -202 -56 -280 -129 -45 -42
-110 -128 -97 -128 4 0 3 -4 -4 -8 -22 -14 -55 -136 -58 -216 -8 -227 129
-424 348 -499 l62 -21 1845 -1 c1783 -1 1847 -1 1915 17 112 31 202 91 272
183 171 224 117 557 -115 717 -52 36 -141 73 -197 83 -31 5 -3621 14 -3628 9z"/>
<path d="M385 5068 c-76 -19 -100 -29 -163 -71 -100 -67 -186 -195 -210 -312
-10 -45 -9 -178 0 -215 53 -203 205 -349 403 -385 51 -10 3666 -10 3720 -1
147 26 290 129 356 258 76 149 78 323 5 468 -28 55 -45 78 -103 134 -61 59
-66 63 -126 91 -111 50 -34 48 -1983 50 -1706 1 -1835 0 -1899 -17z"/>
</g>
</svg>
