<svg width="24" height="24" viewBox="0 0 24 24" fill="none" xmlns="http://www.w3.org/2000/svg">
<path d="M17.9999 2.99997C15.1999 2.59997 12.8332 4.83331 11.9999 5.99997C11.4999 4.99997 9.8 2.99997 7 2.99997C4.2 2.99997 2.49993 5.33332 1.99989 6.5C1.66656 10 3.19989 17.8 11.9999 21C20.4999 15.5 21.4999 10.5 21.9999 9.5C22.4999 8.5 21.4999 3.49997 17.9999 2.99997Z" fill="#FFA200"/>
<path d="M7 3C4.239 3 2 5.216 2 7.95C2 10.157 2.875 15.395 11.488 20.69C11.6423 20.7839 11.8194 20.8335 12 20.8335C12.1806 20.8335 12.3577 20.7839 12.512 20.69C21.125 15.395 22 10.157 22 7.95C22 5.216 19.761 3 17 3C14.239 3 12 6 12 6C12 6 9.761 3 7 3Z" stroke="#FFA200" stroke-width="2" stroke-linecap="round" stroke-linejoin="round"/>
</svg>
