<?xml version="1.0" encoding="UTF-8"?>
<!DOCTYPE svg PUBLIC "-//W3C//DTD SVG 1.0//EN" "http://www.w3.org/TR/2001/REC-SVG-20010904/DTD/svg10.dtd">
<!-- Creator: CorelDRAW X7 -->
<svg xmlns="http://www.w3.org/2000/svg" xml:space="preserve" width="189px" height="189px" version="1.0" shape-rendering="geometricPrecision" text-rendering="geometricPrecision" image-rendering="optimizeQuality" fill-rule="evenodd" clip-rule="evenodd"
viewBox="0 0 189 189"
 xmlns:xlink="http://www.w3.org/1999/xlink">
 <g id="Layer_x0020_1">
  <metadata id="CorelCorpID_0Corel-Layer"/>
  <path fill="#FFFFFF" d="M143 128c4,0 6,-3 7,-6l22 -60c4,-10 -2,-15 -9,-15l-100 0 -11 -31c-1,-2 -2,-3 -5,-3l-23 0c-6,0 -11,5 -11,11 0,6 5,10 11,10l12 0c10,30 20,59 31,88 1,3 3,6 7,6l69 0zm-8 8c12,0 22,9 22,21 0,11 -10,21 -22,21 -11,0 -21,-10 -21,-21 0,-12 10,-21 21,-21zm-53 0c11,0 21,9 21,21 0,11 -10,21 -21,21 -12,0 -21,-10 -21,-21 0,-12 9,-21 21,-21z"/>
 </g>
</svg>
