<?xml version="1.0" encoding="UTF-8"?>
<!DOCTYPE svg PUBLIC "-//W3C//DTD SVG 1.0//EN" "http://www.w3.org/TR/2001/REC-SVG-20010904/DTD/svg10.dtd">
<!-- Creator: CorelDRAW X7 -->
<svg xmlns="http://www.w3.org/2000/svg" xml:space="preserve" width="189px" height="189px" version="1.0" shape-rendering="geometricPrecision" text-rendering="geometricPrecision" image-rendering="optimizeQuality" fill-rule="evenodd" clip-rule="evenodd"
viewBox="0 0 189 189"
 xmlns:xlink="http://www.w3.org/1999/xlink">
 <g id="Layer_x0020_1">
  <metadata id="CorelCorpID_0Corel-Layer"/>
  <path fill="#5A5A5A" d="M86 135c4,2 7,4 11,6 4,2 9,3 14,4 5,1 9,0 13,-1 4,-1 7,-2 9,-4 3,-1 5,-3 7,-5 2,-2 3,-3 4,-5 1,-1 2,-3 2,-5 -1,-1 -1,-3 -4,-6 -2,-2 -6,-5 -9,-7 -3,-2 -5,-4 -7,-4 -2,-1 -4,-1 -6,-1 -2,0 -3,1 -5,3 -2,1 -3,3 -5,5 -1,1 -3,2 -4,3 -2,0 -3,1 -5,0 -7,-1 -25,-18 -29,-24 -2,-2 -3,-4 -3,-6 -1,-2 -1,-4 0,-5 0,-2 1,-3 3,-5 1,-1 3,-3 4,-5 1,-1 2,-3 2,-5 1,-2 0,-4 0,-6 -1,-2 -3,-4 -5,-7 -2,-2 -6,-6 -8,-8 -3,-2 -5,-3 -7,-3 -1,0 -3,0 -4,2 -2,1 -3,2 -5,4 -2,2 -3,4 -5,7 -1,3 -2,6 -3,10 -1,3 -1,8 0,13 1,5 3,9 5,13 2,4 4,8 7,11 8,10 23,24 33,31zm9 -123c45,0 82,37 82,83 0,45 -37,82 -82,82 -46,0 -83,-37 -83,-82 0,-46 37,-83 83,-83zm0 -12c52,0 94,42 94,95 0,52 -42,94 -94,94 -53,0 -95,-42 -95,-94 0,-53 42,-95 95,-95z"/>
 </g>
</svg>
