<svg width="12" height="12" viewBox="0 0 12 12" fill="none" xmlns="http://www.w3.org/2000/svg">
<path d="M7.90903 6L11.6046 2.30441C12.1318 1.77724 12.1318 0.922547 11.6046 0.395377C11.0774 -0.131792 10.2228 -0.131792 9.69559 0.395377L6 4.09097L2.30441 0.395377C1.77724 -0.131792 0.922547 -0.131792 0.395377 0.395377C-0.131792 0.922547 -0.131792 1.77724 0.395377 2.30441L4.09097 6L0.395377 9.69559C-0.131792 10.2228 -0.131792 11.0775 0.395377 11.6046C0.658962 11.8682 1.00442 12 1.34988 12C1.69534 12 2.04083 11.8682 2.30438 11.6046L6 7.90903L9.69559 11.6046C9.95917 11.8682 10.3046 12 10.6501 12C10.9956 12 11.341 11.8682 11.6046 11.6046C12.1318 11.0775 12.1318 10.2228 11.6046 9.69559L7.90903 6Z" fill="#1A345C"/>
</svg>
