<svg width="70" height="70" viewBox="0 0 70 70" fill="none" xmlns="http://www.w3.org/2000/svg">
<g clip-path="url(#clip0)">
<path d="M64.8992 19.5293C64.3701 18.9039 63.6292 18.5218 62.8128 18.4537L34.0575 16.0526C33.241 15.9844 32.4472 16.2383 31.8217 16.7673C31.1987 17.2942 30.8173 18.0314 30.7469 18.8438L30.1684 24.2714H27.8584C26.1673 24.2714 24.7915 25.6472 24.7915 27.3383V45.3386C24.7915 47.0296 26.1673 48.4054 27.8584 48.4054H56.7138C58.4049 48.4054 59.7808 47.0296 59.7808 45.3386V42.4186L60.8047 42.5041C60.8911 42.5113 60.977 42.5148 61.0621 42.5148C62.6387 42.5148 63.9827 41.3019 64.1162 39.703L65.614 21.7652C65.6821 20.9488 65.4283 20.1548 64.8992 19.5293ZM27.8584 25.8665H56.7138C57.5254 25.8665 58.1857 26.5267 58.1857 27.3383V28.9785H26.3866V27.3383C26.3866 26.5267 27.0468 25.8665 27.8584 25.8665ZM26.3866 30.5735H58.1857V33.8824H26.3866V30.5735ZM56.7138 46.8104H27.8584C27.0468 46.8104 26.3866 46.1501 26.3866 45.3386V35.4774H58.1857V45.3386C58.1857 46.1501 57.5254 46.8104 56.7138 46.8104ZM64.0245 21.6324L62.5266 39.5702C62.4591 40.379 61.746 40.9823 60.9374 40.9145L59.7808 40.818V27.3383C59.7808 25.6472 58.4049 24.2714 56.7138 24.2714H31.7725L32.3339 19.0046C32.3346 18.9985 32.3351 18.9925 32.3356 18.9864C32.4031 18.1776 33.1158 17.5744 33.9248 17.6422L62.6802 20.0432C63.072 20.0759 63.4276 20.2592 63.6814 20.5594C63.9353 20.8596 64.0572 21.2406 64.0245 21.6324Z" fill="white"/>
<path d="M54.8481 37.8486H47.1725C46.7321 37.8486 46.375 38.2057 46.375 38.6462V43.6537C46.375 44.0942 46.7321 44.4513 47.1725 44.4513H54.8481C55.2885 44.4513 55.6456 44.0942 55.6456 43.6537V38.6462C55.6456 38.2057 55.2885 37.8486 54.8481 37.8486ZM54.0505 42.8562H47.9701V39.4437H54.0505V42.8562Z" fill="white"/>
<path d="M41.1059 29.2739C38.2101 26.3684 34.5178 24.3868 30.4959 23.5797C26.4739 22.7727 22.3029 23.1764 18.5104 24.7398C14.7179 26.3033 11.4742 28.9562 9.18942 32.3631C6.90466 35.7701 5.68149 39.7781 5.67458 43.8802C5.66768 47.9823 6.87735 51.9944 9.15063 55.409C11.4239 58.8236 14.6587 61.4875 18.4459 63.0637C22.2331 64.6398 26.4027 65.0576 30.4274 64.2641C34.452 63.4706 38.151 61.5014 41.0565 58.6057L26.4153 43.9151L41.1059 29.2739Z" stroke="#FFA200" stroke-width="2" stroke-linecap="round" stroke-dasharray="1 4"/>
</g>
<defs>
<clipPath id="clip0">
<rect width="70" height="70" fill="white"/>
</clipPath>
</defs>
</svg>
