<svg width="70" height="70" viewBox="0 0 70 70" fill="none" xmlns="http://www.w3.org/2000/svg">
<g clip-path="url(#clip0)">
<path d="M69.1536 9.20384C68.9162 8.53184 68.4848 7.94531 67.9141 7.51841C67.3434 7.09152 66.6589 6.84342 65.9472 6.80548C65.2355 6.76755 64.5285 6.94147 63.9156 7.30528C63.3028 7.66908 62.8115 8.20643 62.504 8.84939L57.6479 19.0038V3.47867C57.6479 3.24365 57.5546 3.01826 57.3884 2.85207C57.2222 2.68589 56.9968 2.59253 56.7618 2.59253H24.8608C24.6257 2.59253 24.4003 2.68589 24.2342 2.85207C24.068 3.01826 23.9746 3.24365 23.9746 3.47867V47.4716C23.9761 48.8523 24.5253 50.1759 25.5016 51.1521C26.4779 52.1283 27.8016 52.6773 29.1823 52.6786H56.759C56.994 52.6786 57.2194 52.5852 57.3856 52.419C57.5517 52.2528 57.6451 52.0275 57.6451 51.7924V43.1508C57.6451 42.9158 57.5517 42.6904 57.3856 42.5242C57.2194 42.358 56.994 42.2647 56.759 42.2647H29.1823C27.9163 42.2648 26.6942 42.7286 25.7469 43.5684V4.36126H55.8757V22.7093L51.1508 32.5845C51.0918 32.7086 51.0622 32.8447 51.0643 32.9822L51.1671 39.0653C51.1699 39.2299 51.2186 39.3903 51.3075 39.5288C51.3965 39.6672 51.5222 39.7782 51.6706 39.8492C51.8191 39.9202 51.9843 39.9485 52.1479 39.9309C52.3116 39.9133 52.467 39.8504 52.5969 39.7494L57.397 36.0113C57.5054 35.9269 57.5928 35.8184 57.6522 35.6945L69.0068 11.9551C69.2118 11.5289 69.3302 11.0664 69.3554 10.5942C69.3806 10.1219 69.312 9.64941 69.1536 9.20384ZM29.1816 44.0369H55.8749V46.5855H31.3586C31.1236 46.5855 30.8982 46.6788 30.732 46.845C30.5659 47.0112 30.4725 47.2366 30.4725 47.4716C30.4725 47.7066 30.5659 47.932 30.732 48.0982C30.8982 48.2644 31.1236 48.3578 31.3586 48.3578H55.8749V50.9063H29.1816C28.7264 50.9128 28.2745 50.8288 27.8521 50.6592C27.4297 50.4895 27.0452 50.2376 26.7211 49.918C26.3969 49.5985 26.1394 49.2177 25.9637 48.7978C25.788 48.3778 25.6975 47.9272 25.6975 47.472C25.6975 47.0168 25.788 46.5661 25.9637 46.1462C26.1394 45.7263 26.3969 45.3455 26.7211 45.0259C27.0452 44.7064 27.4297 44.4544 27.8521 44.2848C28.2745 44.1151 28.7264 44.0311 29.1816 44.0377V44.0369ZM67.4075 11.193L56.1436 34.7438L52.9096 37.2633L52.8387 33.1637L64.1061 9.61572C64.2098 9.39876 64.3553 9.20435 64.5341 9.0436C64.7129 8.88284 64.9217 8.75888 65.1484 8.6788C65.3752 8.59872 65.6155 8.56409 65.8556 8.57687C66.0958 8.58966 66.331 8.64962 66.548 8.75333C66.7649 8.85704 66.9593 9.00246 67.1201 9.18131C67.2809 9.36015 67.4048 9.5689 67.4849 9.79565C67.565 10.0224 67.5996 10.2627 67.5868 10.5028C67.574 10.743 67.5141 10.9782 67.4104 11.1952L67.4075 11.193Z" fill="white"/>
<path d="M51.8578 19.8404V9.42716C51.8578 9.19214 51.7645 8.96674 51.5983 8.80056C51.4321 8.63438 51.2067 8.54102 50.9717 8.54102H30.6493C30.4143 8.54102 30.1889 8.63438 30.0227 8.80056C29.8565 8.96674 29.7632 9.19214 29.7632 9.42716V19.8404C29.7632 20.0754 29.8565 20.3008 30.0227 20.467C30.1889 20.6331 30.4143 20.7265 30.6493 20.7265H50.9717C51.2067 20.7265 51.4321 20.6331 51.5983 20.467C51.7645 20.3008 51.8578 20.0754 51.8578 19.8404ZM50.0856 18.9542H31.5355V10.3133H50.0856V18.9542Z" fill="white"/>
<path d="M40.1332 29.3501C37.2375 26.4445 33.5452 24.463 29.5232 23.6559C25.5012 22.8488 21.3303 23.2526 17.5378 24.816C13.7453 26.3794 10.5015 29.0324 8.21676 32.4393C5.932 35.8463 4.70883 39.8542 4.70192 43.9564C4.69502 48.0585 5.90469 52.0705 8.17797 55.4852C10.4512 58.8998 13.686 61.5636 17.4733 63.1398C21.2605 64.716 25.4301 65.1338 29.4547 64.3403C33.4794 63.5468 37.1783 61.5776 40.0839 58.6819L25.4426 43.9913L40.1332 29.3501Z" stroke="#FFA200" stroke-width="2" stroke-linecap="round" stroke-dasharray="1 4"/>
</g>
<defs>
<clipPath id="clip0">
<rect width="70" height="70" fill="white"/>
</clipPath>
</defs>
</svg>
