<svg width="70" height="70" viewBox="0 0 70 70" fill="none" xmlns="http://www.w3.org/2000/svg">
<g clip-path="url(#clip0)">
<path d="M34.0079 27.8493C34.0042 27.8187 33.9989 27.7884 33.9921 27.7586C33.9829 27.6407 33.9508 27.5267 33.8981 27.4248C33.8887 27.3965 33.8779 27.3687 33.8658 27.3418L27.773 17.593C28.8896 17.2656 29.9085 16.8488 30.9012 16.4418C32.492 15.7313 34.1399 15.2009 35.8213 14.8585C36.0198 14.8206 36.1971 14.6945 36.3147 14.5076C36.4323 14.3207 36.4806 14.0883 36.4491 13.8608C36.4175 13.6334 36.3087 13.4295 36.1463 13.2935C35.9839 13.1575 35.7811 13.1004 35.5821 13.1348C33.8067 13.4922 32.0665 14.0495 30.3868 14.7984C29.0733 15.3816 27.7202 15.8404 26.3411 16.1702C24.2177 16.6618 22.0105 16.1974 20.1788 14.8738C20.0169 14.7349 19.8135 14.6753 19.6133 14.7081C19.4131 14.7408 19.2324 14.8632 19.111 15.0483C18.9897 15.2335 18.9376 15.4662 18.9662 15.6954C18.9948 15.9245 19.1017 16.1312 19.2636 16.2701C20.8609 17.4878 22.7427 18.1244 24.662 18.0964C24.734 18.0964 24.8121 18.0866 24.8853 18.0845L19.1013 27.3404C19.0891 27.3674 19.0784 27.3951 19.0689 27.4234C19.0163 27.5253 18.9842 27.6393 18.975 27.7572C18.9682 27.787 18.9629 27.8173 18.9591 27.8479C18.9591 30.1315 19.7519 32.3216 21.1631 33.9364C22.5744 35.5512 24.4884 36.4583 26.4841 36.4583C28.4799 36.4583 30.3939 35.5512 31.8051 33.9364C33.2164 32.3216 34.0092 30.1315 34.0092 27.8479L34.0079 27.8493ZM31.7627 26.9766H21.2038L26.4826 18.5292L31.7627 26.9766ZM26.4826 34.7147C25.024 34.7125 23.616 34.1032 22.5211 33.0005C21.4262 31.8978 20.7192 30.3771 20.532 28.722H32.4344C32.2471 30.3773 31.5399 31.8981 30.4447 33.0008C29.3496 34.1034 27.9414 34.7126 26.4826 34.7147Z" fill="white"/>
<path d="M64.1488 27.7974C64.1392 27.6789 64.1057 27.5643 64.0508 27.4619C64.041 27.4334 64.0297 27.4055 64.0171 27.3784L57.9828 18.072C58.0592 18.072 58.1406 18.084 58.2158 18.084C60.2183 18.1121 62.1817 17.472 63.8484 16.2477C64.0172 16.1081 64.1288 15.9002 64.1587 15.6698C64.1885 15.4395 64.1341 15.2055 64.0075 15.0193C63.8809 14.8331 63.6924 14.7101 63.4835 14.6771C63.2745 14.6442 63.0623 14.7042 62.8935 14.8438C60.9861 16.1853 58.679 16.6525 56.4638 16.1459C55.0247 15.8143 53.6126 15.353 52.2419 14.7666C49.7637 13.6682 47.1414 13.0164 44.4754 12.8363V10.4195C44.4751 10.0058 44.3985 9.59659 44.2505 9.21652C44.1024 8.83645 43.8859 8.49347 43.6141 8.20837C44.0164 7.78469 44.2943 7.2379 44.4122 6.63846C44.5301 6.03901 44.4824 5.41439 44.2755 4.84506C44.0685 4.27573 43.7116 3.78779 43.2509 3.44411C42.7901 3.10042 42.2466 2.91675 41.6903 2.91675C41.1341 2.91675 40.5905 3.10042 40.1298 3.44411C39.669 3.78779 39.3122 4.27573 39.1052 4.84506C38.8982 5.41439 38.8506 6.03901 38.9685 6.63846C39.0863 7.2379 39.3643 7.78469 39.7665 8.20837C39.4947 8.49347 39.2783 8.83645 39.1302 9.21652C38.9822 9.59659 38.9056 10.0058 38.9052 10.4195V45.5937H31.4207C31.2097 45.5937 31.0073 45.6861 30.8581 45.8507C30.7088 46.0152 30.625 46.2384 30.625 46.4711V51.6227C30.625 51.8554 30.7088 52.0785 30.8581 52.2431C31.0073 52.4076 31.2097 52.5001 31.4207 52.5001H51.951C52.1621 52.5001 52.3644 52.4076 52.5137 52.2431C52.6629 52.0785 52.7468 51.8554 52.7468 51.6227V46.4711C52.7468 46.2384 52.6629 46.0152 52.5137 45.8507C52.3644 45.6861 52.1621 45.5937 51.951 45.5937H40.4923V10.4195C40.4923 10.0704 40.618 9.73565 40.8419 9.48883C41.0657 9.24201 41.3693 9.10334 41.6859 9.10334C42.0024 9.10334 42.306 9.24201 42.5299 9.48883C42.7537 9.73565 42.8795 10.0704 42.8795 10.4195V42.9193C42.8795 43.152 42.9633 43.3752 43.1126 43.5397C43.2618 43.7043 43.4642 43.7967 43.6752 43.7967C43.8863 43.7967 44.0887 43.7043 44.2379 43.5397C44.3871 43.3752 44.471 43.152 44.471 42.9193V14.5932C46.9538 14.7785 49.3946 15.3944 51.7034 16.4183C52.7397 16.8275 53.8041 17.2473 54.9678 17.5758L48.6114 27.3784C48.5988 27.4055 48.5875 27.4334 48.5777 27.4619C48.5227 27.5643 48.4892 27.6789 48.4796 27.7974C48.4725 27.8275 48.467 27.8579 48.4631 27.8887C48.4631 29.0256 48.6662 30.1513 49.0607 31.2017C49.4553 32.2521 50.0337 33.2064 50.7627 34.0104C51.4918 34.8143 52.3573 35.452 53.3099 35.887C54.2625 36.3221 55.2835 36.546 56.3146 36.546C57.3456 36.546 58.3666 36.3221 59.3192 35.887C60.2718 35.452 61.1373 34.8143 61.8664 34.0104C62.5955 33.2064 63.1738 32.2521 63.5684 31.2017C63.9629 30.1513 64.166 29.0256 64.166 27.8887C64.1619 27.8579 64.1561 27.8274 64.1488 27.7974ZM51.1553 50.7459H32.2165V47.3485H51.1553V50.7459ZM41.6859 4.68112C41.922 4.68112 42.1527 4.75831 42.349 4.90293C42.5453 5.04755 42.6983 5.2531 42.7886 5.4936C42.879 5.73409 42.9026 5.99872 42.8566 6.25402C42.8105 6.50933 42.6968 6.74384 42.5299 6.92791C42.363 7.11197 42.1503 7.23732 41.9187 7.28811C41.6872 7.33889 41.4472 7.31282 41.2291 7.21321C41.011 7.11359 40.8246 6.9449 40.6934 6.72846C40.5623 6.51203 40.4923 6.25757 40.4923 5.99726C40.4926 5.64831 40.6185 5.31376 40.8422 5.06702C41.066 4.82027 41.3694 4.68149 41.6859 4.68112ZM61.8227 27.0112H50.8058L56.3149 18.5178L61.8227 27.0112ZM56.3142 34.7915C54.7923 34.7893 53.3231 34.1767 52.1806 33.068C51.0381 31.9593 50.3003 30.4303 50.1049 28.7661H62.5236C62.3283 30.4304 61.5905 31.9595 60.448 33.0682C59.3055 34.1769 57.8362 34.7894 56.3142 34.7915Z" fill="white"/>
<path d="M41.1059 29.2739C38.2101 26.3684 34.5178 24.3868 30.4959 23.5797C26.4739 22.7727 22.3029 23.1764 18.5104 24.7398C14.7179 26.3033 11.4742 28.9562 9.18942 32.3631C6.90466 35.7701 5.68149 39.7781 5.67458 43.8802C5.66768 47.9823 6.87735 51.9944 9.15063 55.409C11.4239 58.8236 14.6587 61.4875 18.4459 63.0637C22.2331 64.6398 26.4027 65.0576 30.4274 64.2641C34.452 63.4706 38.151 61.5014 41.0565 58.6057L26.4153 43.9151L41.1059 29.2739Z" stroke="#FFA200" stroke-width="2" stroke-linecap="round" stroke-dasharray="1 4"/>
</g>
<defs>
<clipPath id="clip0">
<rect width="70" height="70" fill="white"/>
</clipPath>
</defs>
</svg>
