<svg width="58" height="60" viewBox="0 0 58 60" fill="none" xmlns="http://www.w3.org/2000/svg">
<path d="M55.3303 48.5205C54.0665 46.6693 52.3039 45.3841 50.2332 44.8041C50.2131 44.7985 50.1927 44.7935 50.1722 44.7892L42.6939 43.225L40.681 40.1727C40.6706 40.1569 40.6597 40.1415 40.6484 40.1263C40.3433 39.7196 39.879 39.4513 39.3743 39.39C38.8697 39.3288 38.3547 39.4782 37.9612 39.8001C37.9552 39.805 37.9492 39.8101 37.9433 39.8151L28.9999 47.5136L20.0566 39.8151C20.0506 39.8101 20.0446 39.805 20.0386 39.8001C19.6452 39.4781 19.1297 39.3287 18.6255 39.39C18.1208 39.4513 17.6565 39.7196 17.3515 40.1263C17.3401 40.1415 17.3292 40.1569 17.3189 40.1727L15.3059 43.225L7.82772 44.7892C7.80722 44.7935 7.78683 44.7985 7.76667 44.8041C5.69596 45.3842 3.93341 46.6693 2.66957 48.5205C1.51352 50.2137 0.876907 52.2573 0.876907 54.2747V56.5998C0.876907 58.4745 2.55895 59.9998 4.62662 59.9998H26.185C26.1862 59.9998 26.1874 59.9999 26.1886 59.9999C26.1898 59.9999 26.1911 59.9998 26.1924 59.9998H31.8072C31.8085 59.9998 31.8098 59.9999 31.8111 59.9999C31.8123 59.9999 31.8134 59.9998 31.8146 59.9998H53.373C55.4407 59.9998 57.1227 58.4745 57.1227 56.5998V54.2747C57.123 52.2573 56.4864 50.2137 55.3303 48.5205ZM39.1474 41.2525L40.984 44.0374L34.5117 52.9367L32.4755 50.9006C32.4752 50.9003 32.475 50.9001 32.4748 50.8999L30.3771 48.8022L39.1474 41.2525ZM28.0625 55.3127H29.9375C29.9938 55.3127 30.0497 55.3105 30.1052 55.3073L30.6689 58.1251H27.3311L27.8947 55.3073C27.9503 55.3105 28.0062 55.3127 28.0625 55.3127ZM30.8749 52.5004C30.8749 53.0172 30.4543 53.4378 29.9375 53.4378H28.0625C27.5456 53.4378 27.1251 53.0172 27.1251 52.5004V51.9512L29.0001 50.0763L30.875 51.9512V52.5004H30.8749ZM18.8526 41.2525L27.6229 48.8021L25.5252 50.8998C25.525 50.9 25.5248 50.9002 25.5245 50.9005L23.4883 52.9366L17.016 44.0373L18.8526 41.2525ZM2.75171 56.5998V54.2747C2.75171 51.2423 4.63787 47.644 8.24323 46.6175L15.4743 45.105L22.6172 54.9265C22.7784 55.1482 23.0286 55.2882 23.302 55.3096C23.3264 55.3115 23.3509 55.3124 23.3753 55.3124C23.6229 55.3124 23.8616 55.2144 24.038 55.0379L25.4748 53.6011C25.6282 53.9604 25.8547 54.281 26.135 54.5453L25.4191 58.1249H4.62662C3.5929 58.125 2.75171 57.4408 2.75171 56.5998ZM55.2482 56.5998C55.2482 57.4408 54.4071 58.125 53.3733 58.125H32.5808L31.8649 54.5454C32.1451 54.2812 32.3716 53.9605 32.525 53.6012L33.9618 55.038C34.1383 55.2145 34.377 55.3126 34.6246 55.3126C34.6489 55.3126 34.6734 55.3116 34.6979 55.3098C34.9713 55.2883 35.2215 55.1483 35.3827 54.9266L42.5256 45.1051L49.7567 46.6176C53.3621 47.6442 55.2482 51.2424 55.2482 54.2749V56.5998Z" fill="#FFA200"/>
<path d="M13.0636 29.8428V41.2533C13.0636 41.771 13.4833 42.1907 14.001 42.1907C14.5187 42.1907 14.9384 41.771 14.9384 41.2533V30.0041H15.7973C16.4929 32.1981 17.579 34.2609 18.9956 36.0153C21.722 39.3917 25.2782 41.2512 29.0092 41.2512C31.8986 41.2512 34.7029 40.1272 37.1189 38.0006C37.1305 37.9904 37.1407 37.9792 37.1516 37.9687C37.3017 37.9785 37.452 37.9851 37.6029 37.9851C38.6982 37.9851 39.8122 37.7257 40.8951 37.2014C44.4338 35.4887 46.8112 31.4662 46.8112 27.192V21.5672C46.8112 20.0165 45.5496 18.7549 43.999 18.7549H43.6154C45.6928 10.8333 44.7517 4.32999 43.9196 2.43878C43.9182 2.4355 43.9163 2.43257 43.9148 2.42929C43.9065 2.41101 43.8973 2.39344 43.888 2.37586C43.8825 2.36555 43.8772 2.35489 43.8713 2.34481C43.8624 2.32958 43.8527 2.31481 43.843 2.30017C43.8352 2.28845 43.8279 2.27661 43.8197 2.26536C43.8113 2.25388 43.8023 2.2431 43.7935 2.23209C43.7829 2.21873 43.7723 2.20525 43.761 2.19248C43.7538 2.18451 43.7461 2.17701 43.7387 2.16928C43.7249 2.15487 43.7111 2.14046 43.6965 2.12698C43.6901 2.12101 43.683 2.11561 43.6765 2.10987C43.6604 2.09593 43.6442 2.0821 43.6274 2.06921C43.62 2.06371 43.6123 2.05879 43.6048 2.0534C43.588 2.04144 43.5712 2.02961 43.5537 2.01883C43.5442 2.01297 43.5341 2.00781 43.5244 2.00231C43.5084 1.99317 43.4925 1.98403 43.476 1.97583C43.4637 1.96973 43.4508 1.96458 43.4383 1.95907C43.4236 1.95262 43.4092 1.94595 43.3943 1.9402C43.3801 1.93481 43.3655 1.93048 43.351 1.92567C43.3369 1.9211 43.3229 1.91618 43.3087 1.9122C43.2942 1.90822 43.2796 1.9054 43.2649 1.90212C43.2497 1.89872 43.2346 1.89497 43.2191 1.8924C43.2061 1.89017 43.1929 1.88888 43.1798 1.88724C43.1621 1.8849 43.1445 1.88255 43.1267 1.88138C43.1157 1.88068 43.1045 1.88068 43.0934 1.88021C43.0731 1.87951 43.0527 1.87904 43.0324 1.87962C43.0226 1.87986 43.0129 1.88091 43.0032 1.8815C42.9816 1.88291 42.9601 1.88455 42.9385 1.88736C42.9353 1.88783 42.9322 1.88783 42.9289 1.8883C40.5782 2.22412 37.7321 1.65254 34.7189 1.04757C29.6664 0.0330648 24.446 -1.0126 20.364 1.89826C20.3026 1.8856 20.2391 1.87892 20.174 1.87892C15.9874 1.87892 13.0636 5.34824 13.0636 10.3158C13.0636 12.6159 13.6432 16.1086 14.1574 18.7548H14.001C12.4503 18.7548 11.1888 20.0164 11.1888 21.5671V27.1918C11.1888 28.4139 11.9726 29.4559 13.0636 29.8428ZM40.0783 35.5137C38.1 36.4712 36.0712 36.2726 34.3531 34.9581C34.527 34.5929 34.6246 34.1845 34.6246 33.7539C34.6246 32.2032 33.363 30.9416 31.8124 30.9416C30.2618 30.9416 29.0002 32.2032 29.0002 33.7539C29.0002 35.3046 30.2618 36.5661 31.8124 36.5661C32.2462 36.5661 32.6573 36.4672 33.0246 36.2911C33.05 36.3165 33.0767 36.341 33.1056 36.3639C33.6581 36.8009 34.2425 37.1489 34.8477 37.41C33.0373 38.6989 31.0415 39.3763 29.0093 39.3763C25.856 39.3763 22.8178 37.7643 20.4544 34.8374C18.1217 31.9485 16.7838 28.1252 16.7838 24.3478V23.2801C16.7838 19.9408 18.6774 15.4316 19.3212 13.9954C25.7982 13.2343 30.9578 13.9947 34.1757 14.7808C36.9983 15.4705 38.8505 16.2964 39.5183 16.6206L41.2089 20.6432V24.3553C41.2089 27.4557 40.3071 30.6183 38.6697 33.2605C38.397 33.7005 38.5327 34.2784 38.9727 34.551C39.1266 34.6463 39.2972 34.6918 39.4657 34.6918C39.7795 34.6918 40.086 34.5343 40.2634 34.248C41.0799 32.9306 41.7301 31.4963 42.2004 30.0042H43.9992C44.1802 30.0042 44.3571 29.9864 44.5288 29.9534C43.8055 32.3907 42.174 34.4995 40.0783 35.5137ZM32.7498 33.7539C32.7498 34.2708 32.3292 34.6913 31.8124 34.6913C31.2955 34.6913 30.875 34.2708 30.875 33.7539C30.875 33.2369 31.2955 32.8164 31.8124 32.8164C32.3292 32.8164 32.7498 33.2369 32.7498 33.7539ZM44.9364 21.5672V27.1919C44.9364 27.7087 44.5159 28.1293 43.999 28.1293H42.6896C42.9483 26.8831 43.0837 25.6147 43.0837 24.3552V20.6297H43.999C44.5159 20.6297 44.9364 21.0503 44.9364 21.5672ZM20.174 3.75372C20.2644 3.75372 20.3517 3.74025 20.4345 3.71622C20.7089 3.79485 21.0154 3.74868 21.2602 3.56273C24.7021 0.948318 29.6067 1.93329 34.3497 2.88569C36.8381 3.38544 39.218 3.86328 41.416 3.86328C41.7547 3.86328 42.0886 3.85051 42.4185 3.82613C42.9952 5.90657 43.5417 11.1524 41.9699 17.6154L41.1133 15.5771C41.0316 15.3829 40.8869 15.2217 40.7023 15.1198C40.3564 14.9288 32.0763 10.4605 18.5685 12.1983C18.5662 12.1985 18.5641 12.1992 18.5619 12.1995C18.544 12.2019 18.5263 12.2055 18.5085 12.2091C18.4952 12.2116 18.4817 12.2137 18.4687 12.2168C18.4571 12.2196 18.4458 12.2235 18.4342 12.2266C18.3272 12.2566 18.2283 12.3039 18.1415 12.3663C18.1411 12.3665 18.1407 12.3668 18.1402 12.3671C18.1327 12.3725 18.1259 12.3787 18.1186 12.3842C18.0571 12.4313 18.0006 12.4861 17.9515 12.5486C17.9497 12.551 17.9477 12.5531 17.9459 12.5553C17.9362 12.5679 17.9276 12.5814 17.9185 12.5945C17.9098 12.607 17.9007 12.6192 17.8926 12.6322C17.8867 12.6417 17.8816 12.6517 17.8761 12.6615C17.8659 12.6791 17.8558 12.6967 17.8468 12.715C17.846 12.7168 17.8449 12.7183 17.8441 12.7201C17.7716 12.8703 16.7105 15.085 15.8848 17.7933C15.4179 15.3162 14.9384 12.2911 14.9384 10.3156C14.9384 5.78272 17.568 3.75372 20.174 3.75372ZM13.0636 21.5672C13.0636 21.0503 13.4841 20.6297 14.001 20.6297H14.5379C14.7148 21.4669 14.853 22.0762 14.9089 22.3194V24.3478C14.9089 25.6134 15.0451 26.8838 15.3054 28.1293H14.001C13.484 28.1293 13.0636 27.7087 13.0636 27.1919V21.5672Z" fill="#FFA200"/>
</svg>
