<svg width="60" height="60" viewBox="0 0 60 60" fill="none" xmlns="http://www.w3.org/2000/svg">
<path d="M59.0625 29.0625H57.1698C56.9372 22.1521 54.1378 15.6889 49.2245 10.7755C44.3112 5.86207 37.8479 3.06281 30.9375 2.8302V0.9375C30.9375 0.419766 30.5177 0 30 0C29.4823 0 29.0625 0.419766 29.0625 0.9375V2.8302C22.1521 3.06281 15.6889 5.86207 10.7755 10.7755C5.86207 15.6889 3.06281 22.1521 2.8302 29.0625H0.9375C0.419766 29.0625 0 29.4823 0 30C0 30.5177 0.419766 30.9375 0.9375 30.9375H2.8302C3.06281 37.8479 5.86219 44.3111 10.7755 49.2245C15.6888 54.1379 22.152 56.9372 29.0625 57.1698V59.0625C29.0625 59.5802 29.4823 60 30 60C30.5177 60 30.9375 59.5802 30.9375 59.0625V57.1698C37.8479 56.9372 44.3111 54.1379 49.2245 49.2245C54.1379 44.3111 56.9372 37.8479 57.1698 30.9375H59.0625C59.5802 30.9375 60 30.5177 60 30C60 29.4823 59.5802 29.0625 59.0625 29.0625ZM12.1014 12.1014C16.6605 7.54219 22.653 4.93816 29.0625 4.70637V6.58289C16.8833 7.06453 7.06453 16.8833 6.58289 29.0625H4.70637C4.93816 22.653 7.54219 16.6605 12.1014 12.1014ZM12.1014 47.8986C7.54219 43.3395 4.93816 37.347 4.70637 30.9375H6.5823C6.79676 36.3155 8.85035 41.456 12.4215 45.5025C12.6068 45.7124 12.8652 45.8196 13.1248 45.8196C13.3452 45.8196 13.5666 45.7424 13.7448 45.585C14.133 45.2423 14.17 44.65 13.8274 44.2617C10.5587 40.5582 8.67152 35.8581 8.45824 30.9375H13.125C13.6427 30.9375 14.0625 30.5177 14.0625 30C14.0625 29.4823 13.6427 29.0625 13.125 29.0625H8.45906C8.93848 17.9173 17.9173 8.93848 29.0625 8.45906V13.125C29.0625 13.6427 29.4823 14.0625 30 14.0625C30.5177 14.0625 30.9375 13.6427 30.9375 13.125V8.45848C34.7661 8.62313 38.4618 9.79395 41.679 11.871C42.114 12.1518 42.6943 12.027 42.9752 11.5918C43.256 11.1568 43.1311 10.5766 42.6961 10.2957C39.175 8.02254 35.1279 6.74742 30.9375 6.58172V4.70637C37.347 4.93828 43.3395 7.54219 47.8986 12.1014C52.4578 16.6605 55.0618 22.653 55.2936 29.0625H53.4183C53.2525 24.8719 51.9772 20.8245 49.7037 17.3032C49.4228 16.8682 48.8425 16.7435 48.4076 17.0242C47.9726 17.305 47.8477 17.8854 48.1286 18.3204C50.2059 21.5378 51.3769 25.2336 51.5415 29.0625H46.875C46.3573 29.0625 45.9375 29.4823 45.9375 30C45.9375 30.5177 46.3573 30.9375 46.875 30.9375H51.5409C51.0616 42.0827 42.0829 51.0616 30.9375 51.5408V46.875C30.9375 46.3573 30.5177 45.9375 30 45.9375C29.4823 45.9375 29.0625 46.3573 29.0625 46.875V51.5428C24.458 51.3497 20.1416 49.7326 16.5274 46.8364C16.1235 46.5128 15.5334 46.5777 15.2095 46.9818C14.8857 47.3858 14.9509 47.9759 15.355 48.2996C19.2459 51.4175 24.0813 53.2166 29.0625 53.418V55.2936C22.653 55.0618 16.6605 52.4578 12.1014 47.8986ZM47.8986 47.8986C43.3395 52.4578 37.347 55.0618 30.9375 55.2936V53.4171C43.1168 52.9355 52.9355 43.1167 53.4171 30.9375H55.2936C55.0618 37.347 52.4578 43.3395 47.8986 47.8986Z" fill="#FFA200"/>
<path d="M44.3762 13.929C45.0072 14.4937 45.6111 15.102 46.1716 15.737C46.3569 15.9468 46.6153 16.0541 46.8748 16.0541C47.0952 16.0541 47.3166 15.9768 47.4948 15.8195C47.883 15.4768 47.9198 14.8844 47.5773 14.4962C46.9685 13.8064 46.3123 13.1456 45.6268 12.5319C45.2411 12.1868 44.6483 12.2193 44.3031 12.6051C43.9576 12.9909 43.9904 13.5836 44.3762 13.929Z" fill="#FFA200"/>
<path d="M18.75 30.9375H21.6158C22.0496 34.8422 25.1578 37.9504 29.0625 38.3842V41.25C29.0625 41.7677 29.4823 42.1875 30 42.1875C30.5177 42.1875 30.9375 41.7677 30.9375 41.25V38.3842C34.8422 37.9504 37.9504 34.8422 38.3842 30.9375H41.25C41.7677 30.9375 42.1875 30.5177 42.1875 30C42.1875 29.4823 41.7677 29.0625 41.25 29.0625H38.3842C37.9504 25.1578 34.8422 22.0496 30.9375 21.6158V18.75C30.9375 18.2323 30.5177 17.8125 30 17.8125C29.4823 17.8125 29.0625 18.2323 29.0625 18.75V21.6158C25.1578 22.0496 22.0496 25.1578 21.6158 29.0625H18.75C18.2323 29.0625 17.8125 29.4823 17.8125 30C17.8125 30.5177 18.2323 30.9375 18.75 30.9375ZM23.5056 30.9375H29.0625V36.4944C26.1929 36.082 23.918 33.8071 23.5056 30.9375ZM30.9375 36.4944V30.9375H36.4944C36.082 33.8071 33.8071 36.082 30.9375 36.4944ZM36.4944 29.0625H30.9375V23.5056C33.8071 23.918 36.082 26.1929 36.4944 29.0625ZM29.0625 23.5056V29.0625H23.5056C23.918 26.1929 26.1929 23.918 29.0625 23.5056Z" fill="#FFA200"/>
</svg>
