<svg width="40" height="40" viewBox="0 0 40 40" fill="none" xmlns="http://www.w3.org/2000/svg">
<g clip-path="url(#clip0)">
<path d="M39.1047 11.9031C40.0575 10.9508 40.3217 9.4667 39.8484 7.72466C39.3035 5.94081 38.3119 4.32574 36.9677 3.03261C35.6746 1.68842 34.0595 0.696843 32.2757 0.15193C30.5359 -0.321365 29.0501 -0.0577286 28.0978 0.89568L7.84613 21.1468C7.78017 21.2128 7.72785 21.2911 7.69215 21.3773C7.65645 21.4634 7.63808 21.5558 7.63808 21.6491C7.63808 21.7424 7.65645 21.8347 7.69215 21.9209C7.72785 22.0071 7.78017 22.0854 7.84613 22.1514C7.91209 22.2173 7.99039 22.2696 8.07657 22.3053C8.16275 22.341 8.25512 22.3594 8.3484 22.3594C8.44168 22.3594 8.53405 22.341 8.62023 22.3053C8.70641 22.2696 8.78471 22.2173 8.85067 22.1514L14.1637 16.8383C15.4467 15.5639 18.5848 16.5406 21.0228 18.9781C21.7972 19.7446 22.4505 20.6243 22.9603 21.5872C23.0032 21.67 23.0619 21.7436 23.1332 21.8038C23.2044 21.864 23.2869 21.9095 23.3758 21.9378C23.4646 21.9661 23.5582 21.9766 23.6511 21.9688C23.7441 21.9609 23.8346 21.9348 23.9174 21.892C24.0003 21.8492 24.0739 21.7904 24.1341 21.7192C24.1942 21.6479 24.2398 21.5654 24.2681 21.4766C24.2964 21.3877 24.3069 21.2941 24.299 21.2012C24.2912 21.1082 24.2651 21.0177 24.2223 20.9349C23.645 19.8424 22.9049 18.844 22.0274 17.9741C20.1473 16.0945 17.9677 15.0116 16.124 14.8786L17.7092 13.2934C18.2882 12.719 19.2819 12.586 20.5081 12.919C22.0371 13.4325 23.4265 14.2932 24.5671 15.4336C25.7078 16.5741 26.5687 17.9633 27.0825 19.4923C27.416 20.7195 27.2825 21.7133 26.7081 22.2911L12.8592 36.14C12.8272 35.7296 12.756 35.3232 12.6467 34.9264C12.1018 33.1425 11.1102 31.5274 9.76602 30.2343C8.47289 28.8901 6.85781 27.8986 5.07397 27.3536C4.67734 27.2441 4.27113 27.1727 3.8609 27.1406L5.98363 25.0178C6.11684 24.8846 6.19168 24.704 6.19168 24.5156C6.19168 24.3272 6.11684 24.1465 5.98363 24.0133C5.85042 23.8801 5.66974 23.8052 5.48135 23.8052C5.29297 23.8052 5.11229 23.8801 4.97908 24.0133L0.895559 28.0974C-0.0572816 29.0497 -0.321486 30.5337 0.151809 32.2752C0.696722 34.0591 1.6883 35.6741 3.03249 36.9673C4.32562 38.3115 5.94069 39.303 7.72454 39.8479C8.24699 39.9943 8.78654 40.0707 9.32908 40.0752C9.80134 40.0937 10.2725 40.017 10.7145 39.8498C11.1566 39.6826 11.5605 39.4283 11.9024 39.1019L23.2353 27.7724V36.8264C23.2354 36.9771 23.2834 37.1238 23.3724 37.2454C23.4613 37.3671 23.5867 37.4573 23.7302 37.5031C23.7999 37.525 23.8725 37.5363 23.9456 37.5366C24.0591 37.5367 24.1709 37.5095 24.2718 37.4574C24.3726 37.4053 24.4595 37.3298 24.5251 37.2372L25.9581 35.2144L27.3899 37.2372C27.477 37.3602 27.601 37.4522 27.744 37.5001C27.8869 37.5479 28.0413 37.5491 28.185 37.5033C28.3286 37.4576 28.4539 37.3673 28.5429 37.2456C28.6318 37.1239 28.6797 36.9771 28.6797 36.8264V25.994C28.6797 25.8056 28.6048 25.625 28.4716 25.4918C28.3384 25.3586 28.1578 25.2838 27.9694 25.2838C27.7811 25.2838 27.6004 25.3586 27.4672 25.4918C27.334 25.625 27.2592 25.8056 27.2592 25.994V34.5951L26.5376 33.5752C26.472 33.4826 26.3851 33.407 26.2843 33.3549C26.1834 33.3028 26.0716 33.2755 25.9581 33.2755C25.8445 33.2755 25.7327 33.3028 25.6318 33.3549C25.531 33.407 25.4441 33.4826 25.3785 33.5752L24.6558 34.598V26.3519L39.1047 11.9031ZM28.4529 19.119C27.8742 17.3508 26.887 15.7438 25.5713 14.4283C24.2556 13.1128 22.6485 12.1258 20.8802 11.5474C20.4836 11.4378 20.0774 11.3665 19.6672 11.3343L29.099 1.9025C29.6768 1.32466 30.6711 1.19114 31.9007 1.52523C33.4455 2.00518 34.8426 2.87063 35.9603 4.04C37.1298 5.1579 37.9952 6.55522 38.4751 8.10023C38.8092 9.32977 38.6751 10.3247 38.0978 10.9019L28.6654 20.3337C28.6334 19.9234 28.5623 19.517 28.4529 19.1201V19.119ZM8.09726 38.4781C6.55247 37.9981 5.15534 37.1327 4.0376 35.9633C2.86824 34.8456 2.00278 33.4484 1.52283 31.9036C1.18874 30.6741 1.32283 29.6792 1.90011 29.1019C2.1119 28.9091 2.36005 28.7605 2.63001 28.6648C2.89997 28.5691 3.18631 28.5282 3.47226 28.5445C3.88804 28.55 4.30128 28.6104 4.70124 28.7241C6.24624 29.204 7.64357 30.0694 8.76147 31.2389C9.81934 32.2622 10.6347 33.5094 11.1478 34.8889C10.8923 34.5313 10.6072 34.1958 10.2956 33.886C8.38136 31.9724 5.92908 31.4252 4.71317 32.6417C4.64721 32.7077 4.59489 32.786 4.5592 32.8721C4.5235 32.9583 4.50513 33.0507 4.50513 33.144C4.50513 33.2373 4.5235 33.3296 4.5592 33.4158C4.59489 33.502 4.64721 33.5803 4.71317 33.6462C4.77913 33.7122 4.85744 33.7645 4.94362 33.8002C5.0298 33.8359 5.12217 33.8543 5.21545 33.8543C5.30873 33.8543 5.40109 33.8359 5.48727 33.8002C5.57345 33.7645 5.65176 33.7122 5.71772 33.6462C6.26715 33.0968 7.91261 33.5122 9.29158 34.8906C10.5882 36.1872 11.0007 37.6604 10.6495 38.3042C10.2606 38.512 9.83201 38.635 9.39206 38.665C8.9521 38.6949 8.51079 38.6312 8.09726 38.4781Z" fill="#1A345C"/>
</g>
<defs>
<clipPath id="clip0">
<rect width="40" height="40" fill="white"/>
</clipPath>
</defs>
</svg>
