<svg width="52" height="52" viewBox="0 0 52 52" fill="none" xmlns="http://www.w3.org/2000/svg">
<path d="M44.0001 31H41.9999C41.4477 31 41 31.2239 41 31.5C41 31.7761 41.4477 32 41.9999 32H44.0001C44.5523 32 45 31.7761 45 31.5C45 31.2239 44.5523 31 44.0001 31Z" fill="#FFA200"/>
<path d="M34.4615 39H17.5385C16.1388 39 15 40.1216 15 41.5C15 42.8784 16.1388 44 17.5385 44H34.4615C35.8612 44 37 42.8784 37 41.5C37 40.1216 35.8612 39 34.4615 39ZM34.4615 42.3333H17.5385C17.0719 42.3333 16.6923 41.9595 16.6923 41.5C16.6923 41.0405 17.0719 40.6667 17.5385 40.6667H34.4615C34.9281 40.6667 35.3077 41.0405 35.3077 41.5C35.3077 41.9595 34.9281 42.3333 34.4615 42.3333Z" fill="#FFA200"/>
<path d="M8.81818 26C9.27002 26 9.63636 25.6362 9.63636 25.1875V11.375H42.3636V25.1875C42.3636 25.6362 42.73 26 43.1818 26C43.6337 26 44 25.6362 44 25.1875V11.375C44 10.479 43.2659 9.75 42.3636 9.75V8.125C42.3636 7.22902 41.6295 6.5 40.7273 6.5V4.875C40.7273 3.97902 39.9932 3.25 39.0909 3.25V1.625C39.0909 0.729016 38.3568 0 37.4545 0H14.5455C13.6432 0 12.9091 0.729016 12.9091 1.625V3.25C12.0068 3.25 11.2727 3.97902 11.2727 4.875V6.5C10.3705 6.5 9.63636 7.22902 9.63636 8.125V9.75C8.73411 9.75 8 10.479 8 11.375V25.1875C8 25.6362 8.36634 26 8.81818 26ZM14.5455 1.625H37.4545V3.25H14.5455V1.625ZM12.9091 4.875H39.0909V6.5H12.9091V4.875ZM11.2727 8.125H40.7273V9.75H11.2727V8.125Z" fill="#FFA200"/>
<path d="M51.9889 29.8331C51.9707 29.6391 51.9295 29.4519 51.8684 29.2738L48.7358 15.0309C48.5368 13.8525 47.5303 13 46.3324 13H46.3125C45.8638 13 45.5 13.3638 45.5 13.8125C45.5 14.2612 45.8638 14.625 46.3125 14.625H46.3324C46.7347 14.625 47.0722 14.9134 47.135 15.3108C47.1375 15.3268 47.1404 15.3427 47.1439 15.3586L49.8455 27.642C49.7526 27.6312 49.6583 27.625 49.5625 27.625H2.4375C2.34173 27.625 2.24738 27.6312 2.15445 27.642L4.85601 15.3586C4.85946 15.3427 4.86241 15.3268 4.86495 15.3108C4.92781 14.9134 5.2653 14.625 5.66759 14.625H5.6875C6.1362 14.625 6.5 14.2612 6.5 13.8125C6.5 13.3638 6.1362 13 5.6875 13H5.66759C4.46966 13 3.46308 13.8525 3.26422 15.0309L0.131727 29.2738C0.0705859 29.4519 0.0293516 29.6391 0.0111719 29.8331C0.00223438 29.8888 -0.0008125 29.9442 0.001625 29.9986C0.00101563 30.0199 0 30.0411 0 30.0625V33.3125V49.5625C0 50.9066 1.09342 52 2.4375 52H49.5625C50.9066 52 52 50.9066 52 49.5625V33.3125V30.0625C52 30.0411 51.999 30.0199 51.9984 29.9987C52.0009 29.9442 51.9978 29.8888 51.9889 29.8331ZM50.375 49.5625C50.375 50.0105 50.0105 50.375 49.5625 50.375H2.4375C1.98951 50.375 1.625 50.0105 1.625 49.5625V33.3125C1.625 32.8645 1.98951 32.5 2.4375 32.5H38.9999C39.4486 32.5 39.8124 32.1362 39.8124 31.6875C39.8124 31.2388 39.4486 30.875 38.9999 30.875H2.4375C2.15272 30.875 1.87931 30.9246 1.625 31.0148V30.0625C1.625 30.0567 1.62571 30.0511 1.62591 30.0453L1.69386 29.7365C1.8198 29.4505 2.10549 29.25 2.4376 29.25H49.5626C49.8946 29.25 50.1804 29.4505 50.3063 29.7365L50.3743 30.0453C50.3744 30.0511 50.3752 30.0567 50.3752 30.0625V31.0148C50.1209 30.9246 49.8475 30.875 49.5627 30.875H47.1252C46.6765 30.875 46.3127 31.2388 46.3127 31.6875C46.3127 32.1362 46.6765 32.5 47.1252 32.5H49.5627C50.0107 32.5 50.3752 32.8645 50.3752 33.3125V49.5625H50.375Z" fill="#FFA200"/>
<path d="M23.2 19C23.6418 19 24 18.7761 24 18.5C24 18.2239 23.6418 18 23.2 18H16.8C16.3582 18 16 18.2239 16 18.5C16 18.7761 16.3582 19 16.8 19H23.2Z" fill="#FFA200"/>
<path d="M29 15.5C29 15.2239 28.6362 15 28.1875 15H16.8125C16.3638 15 16 15.2239 16 15.5C16 15.7761 16.3638 16 16.8125 16H28.1875C28.6362 16 29 15.7761 29 15.5Z" fill="#FFA200"/>
<path d="M13 16H14C14.5522 16 15 15.7761 15 15.5C15 15.2239 14.5522 15 14 15H13C12.4477 15 12 15.2239 12 15.5C12 15.7761 12.4477 16 13 16Z" fill="#FFA200"/>
<path d="M13 19H14C14.5522 19 15 18.7761 15 18.5C15 18.2239 14.5522 18 14 18H13C12.4477 18 12 18.2239 12 18.5C12 18.7761 12.4477 19 13 19Z" fill="#FFA200"/>
<path d="M12.8182 24C12.3663 24 12 24.4477 12 25C12 25.5523 12.3663 26 12.8182 26H20.1818C20.6337 26 21 25.5523 21 25C21 24.4477 20.6337 24 20.1818 24H12.8182Z" fill="#FFA200"/>
<path d="M27 22C27 21.4477 26.6269 21 26.1667 21H12.8333C12.3731 21 12 21.4477 12 22C12 22.5523 12.3731 23 12.8333 23H26.1667C26.6269 23 27 22.5523 27 22Z" fill="#FFA200"/>
<path d="M39.1429 21H34.8571C34.3838 21 34 21.4477 34 22C34 22.5523 34.3838 23 34.8571 23H39.1429C39.6162 23 40 22.5523 40 22C40 21.4477 39.6162 21 39.1429 21Z" fill="#FFA200"/>
<path d="M28.8571 26H39.1429C39.6162 26 40 25.5523 40 25C40 24.4477 39.6162 24 39.1429 24H28.8571C28.3838 24 28 24.4477 28 25C28 25.5523 28.3838 26 28.8571 26Z" fill="#FFA200"/>
</svg>
