<?xml version="1.0" encoding="utf-8"?>
<!-- Generator: Adobe Illustrator 16.0.0, SVG Export Plug-In . SVG Version: 6.00 Build 0)  -->
<!DOCTYPE svg PUBLIC "-//W3C//DTD SVG 1.1//EN" "http://www.w3.org/Graphics/SVG/1.1/DTD/svg11.dtd">
<svg version="1.1"
	 id="Слой_1" image-rendering="optimizeQuality" text-rendering="geometricPrecision" shape-rendering="geometricPrecision"
	 xmlns="http://www.w3.org/2000/svg" xmlns:xlink="http://www.w3.org/1999/xlink" x="0px" y="0px" width="189px" height="189px"
	 viewBox="0 0 189 189" enable-background="new 0 0 189 189" xml:space="preserve">
<path fill="#FFFFFF" d="M144,130c-1,2-2,3-4,5s-4,4-7,5c-2,2-5,3-9,4s-8,2-13,1s-10-2-14-4s-7-4-11-6c-10-7-25-21-33-31
	c-3-3-5-7-7-11s-4-8-5-13s-1-10,0-13c1-4,2-7,3-10c2-3,3-5,5-7s3-3,5-4c1-2,3-2,4-2c2,0,4,1,7,3c2,2,6,6,8,8c2,3,4,5,5,7
	c0,2,1,4,0,6c0,2-1,4-2,5c-1,2-3,4-4,5c-2,2-3,3-3,5c-1,1-1,3,0,5c0,2,1,4,3,6c4,6,22,23,29,24c2,1,3,0,5,0c1-1,3-2,4-3c2-2,3-4,5-5
	c2-2,3-3,5-3s4,0,6,1c2,0,4,2,7,4s7,5,9,7c3,3,3,5,4,6C146,127,145,129,144,130z"/>
<path fill="#FFFFFF" d="M133,112c-3-2-5-4-7-4c-2-1-4-1-6-1s-3,1-5,3c-2,1-3,3-5,5c-1,1-3,2-4,3c-2,0-3,1-5,0c-7-1-25-18-29-24
	c-2-2-3-4-3-6c-1-2-1-4,0-5c0-2,1-3,3-5c1-1,3-3,4-5c1-1,2-3,2-5c1-2,0-4,0-6c-1-2-3-4-5-7c-2-2-6-6-8-8c-3-2-5-3-7-3c-1,0-3,0-4,2
	c-2,1-3,2-5,4s-3,4-5,7c-1,3-2,6-3,10c-1,3-1,8,0,13s3,9,5,13s4,8,7,11c8,10,23,24,33,31c4,2,7,4,11,6s9,3,14,4s9,0,13-1s7-2,9-4
	c3-1,5-3,7-5s3-3,4-5c1-1,2-3,2-5c-1-1-1-3-4-6C140,117,136,114,133,112z"/>
<path fill="#FFFFFF" d="M95,0C42,0,0,42,0,95c0,52,42,94,95,94c52,0,94-42,94-94C189,42,147,0,95,0z M95,177c-46,0-83-37-83-82
	c0-46,37-83,83-83c45,0,82,37,82,83C177,140,140,177,95,177z"/>
</svg>
