<svg width="50" height="40" viewBox="0 0 50 40" fill="none" xmlns="http://www.w3.org/2000/svg">
<path d="M7.54412 15.8039C7.54412 14.4976 8.05336 13.0003 9.2657 12.0294M14.2353 32.9608H36.625C39.799 32.7034 41 30.2157 41 28.9289V15.0319C41 13.533 40.3889 12.4124 39.3701 11.7379M9.2657 12.0294C10.0437 11.4063 11.1113 11 12.5196 11H36.625C37.6996 11 38.6397 11.2543 39.3701 11.7379M9.2657 12.0294L21.3965 23.2157C23.2001 24.8789 25.9906 24.8372 27.7437 23.1208L39.3701 11.7379M6 20.0931H12.0049M8.31618 24.4681H14.4069M10.5466 28.6716H16.6373" stroke="white" stroke-width="2.6" stroke-linecap="round" stroke-linejoin="round"/>
<circle cx="38" cy="13" r="6" fill="#33D69F"/>
<path d="M39.1328 16H37.7917V12.3281L37.8047 11.7248L37.8264 11.0651C37.6036 11.2879 37.4488 11.434 37.362 11.5035L36.6328 12.0894L35.9861 11.2821L38.0304 9.65451H39.1328V16Z" fill="white"/>
</svg>
