<?xml version="1.0" encoding="UTF-8"?> <svg xmlns="http://www.w3.org/2000/svg" width="46" height="40" viewBox="0 0 46 40" fill="none"><path d="M45.0056 13.2228C42.72 13.0735 40.4267 15.0269 40.1065 17.3969C40.0732 17.6394 40.0465 17.8841 40.0098 18.1951C39.6763 18.1951 39.3428 18.2187 39.0027 18.1884C38.6625 18.1581 38.558 18.286 38.4824 18.5914C37.887 20.9924 36.9621 23.2975 35.7344 25.4397C34.9685 26.7936 34.1781 28.1341 33.4834 29.5284C32.4718 31.538 31.9437 33.7193 31.419 35.8962C31.3079 36.3453 31.2089 36.7943 31.0733 37.2378C30.7309 38.3413 29.7215 39.0643 28.6444 38.9992C27.4716 38.9274 26.5445 38.137 26.3555 36.9571C25.9875 34.6601 25.6607 32.3542 25.3161 30.055C25.1227 28.7695 24.9437 27.4807 24.7303 26.1986C24.5702 25.2443 23.8843 24.6684 22.9816 24.674C22.1023 24.674 21.4109 25.2533 21.2653 26.1829C20.8806 28.6381 20.5249 31.0979 20.1536 33.5554C19.9858 34.6702 19.8335 35.7873 19.6445 36.8987C19.4344 38.1337 18.5151 38.9442 17.3167 39.0004C16.2184 39.0509 15.219 38.32 14.8978 37.1682C14.4531 35.5841 14.0818 33.9809 13.6238 32.4013C13.1628 30.8335 12.5198 29.3261 11.7085 27.9107C10.5546 25.882 9.30174 23.9084 8.47579 21.7046C7.6365 19.4592 6.99508 17.1667 6.84278 14.7732C6.72273 12.8871 6.58711 10.9741 6.75941 9.10151C7.2163 4.12137 11.6818 0.544552 16.6019 1.04863C17.9181 1.16693 19.189 1.5932 20.3137 2.29367C22.0923 3.41633 23.851 3.40286 25.6496 2.31163C26.7403 1.64495 27.959 1.22023 29.2247 1.06565C30.4904 0.911081 31.7742 1.0302 32.9908 1.41509C34.2075 1.79999 35.3291 2.44186 36.2813 3.29809C37.2335 4.15431 37.9944 5.20531 38.5135 6.38129C38.6347 6.64961 38.7726 6.75177 39.0571 6.7282C39.3673 6.7035 39.6808 6.7282 39.9831 6.7282C40.6501 10.085 42.2542 11.6825 45.0056 11.7521V13.2228ZM33.6668 11.7634C33.8113 11.751 33.9247 11.7443 34.037 11.7319C35.5443 11.5804 36.7616 10.8989 37.6487 9.65723C37.7773 9.45805 37.8335 9.21998 37.8077 8.98363C37.2596 4.70627 32.9776 1.6863 28.8033 2.58444C27.7317 2.8157 26.7879 3.29845 25.8541 3.83621C25.1413 4.24198 24.3489 4.48459 23.533 4.54686C22.1268 4.66923 20.8417 4.31671 19.6478 3.57014C18.0326 2.55974 16.2795 2.27907 14.4109 2.54402C11.1615 3.00431 8.26013 6.11522 8.13341 9.408C8.0676 11.0264 8.09469 12.6472 8.21455 14.2624C8.50136 18.0379 9.67192 21.5429 11.5495 24.8256C12.4922 26.4748 13.407 28.1464 14.2174 29.8663C15.2179 31.9916 15.6415 34.311 16.2106 36.5788C16.3785 37.2467 16.7386 37.5678 17.29 37.5487C17.8414 37.5297 18.1793 37.1783 18.2816 36.4957C18.7963 33.0525 19.3154 29.6081 19.819 26.1672C20.0691 24.4484 21.312 23.2707 22.9605 23.2291C24.5468 23.1898 25.8875 24.3518 26.1609 26.0448C26.4478 27.8276 26.6923 29.6171 26.9569 31.4044C27.2137 33.1333 27.466 34.8633 27.735 36.5922C27.8462 37.2849 28.3598 37.6722 28.9767 37.533C29.4748 37.4208 29.6771 37.0402 29.7994 36.5776C30.2607 34.8341 30.6809 33.0772 31.2156 31.3561C31.9493 28.9985 33.2077 26.889 34.4638 24.7795C36.1646 21.9212 37.1962 18.8115 37.6576 15.5108C37.6635 15.3589 37.6145 15.2101 37.5197 15.0921C36.9549 14.3352 36.1709 13.7745 35.2764 13.4878C34.7629 13.3283 34.2259 13.2486 33.6779 13.1274L33.6668 11.7634ZM36.5382 12.4695C37.7754 13.1319 38.6503 14.0558 39.3328 15.2762C39.9865 14.0266 40.898 13.1431 42.0975 12.4628C40.8658 11.806 39.9943 10.8764 39.3184 9.67744C38.6907 10.868 37.7227 11.8401 36.5404 12.4673L36.5382 12.4695Z" fill="#0ABEB9" stroke="#0ABEB9"></path><path d="M12.321 30.4425V31.7829C8.93936 32.4767 7.97445 33.4523 7.33637 36.8248H6.0024C5.6689 33.8093 4.02256 32.1152 1 31.7874V30.4122C2.33397 30.347 3.50898 29.9014 4.46611 28.9426C5.42323 27.9838 5.90235 26.8006 5.9646 25.4141H7.33415C7.65208 28.4172 9.30398 30.0922 12.321 30.4425ZM6.66271 33.9171C7.27888 32.7486 8.2187 31.7866 9.36734 31.1486C8.82264 30.7153 8.28794 30.3628 7.84884 29.9204C7.40974 29.4781 7.04956 28.9235 6.62047 28.3734C6.00684 29.5612 5.08306 30.4346 3.89916 31.1217C5.07626 31.7537 6.03885 32.7273 6.66271 33.9171Z" fill="#0ABEB9" stroke="#0ABEB9"></path><path d="M9.66211 14.7086L11.0672 14.5391C11.4696 17.9537 12.6301 21.2326 14.4622 24.1311L13.2705 24.9035C11.318 21.8254 10.0841 18.3392 9.66211 14.7086Z" fill="#0ABEB9" stroke="#0ABEB9"></path><path d="M27.165 4.74609L27.9198 5.87549C25.363 7.89629 20.8475 8.00856 18.0684 5.88335L18.8265 4.74946C21.6045 6.42897 24.3825 6.43907 27.165 4.74609Z" fill="#0ABEB9" stroke="#0ABEB9"></path><path d="M9.5463 11.7695H10.9058V13.1381L9.54297 13.2279L9.5463 11.7695Z" fill="#0ABEB9" stroke="#0ABEB9"></path></svg> 