<?xml version="1.0" encoding="UTF-8"?> <svg xmlns="http://www.w3.org/2000/svg" width="34" height="44" viewBox="0 0 34 44" fill="none"><path d="M32.5774 43.0041C32.8983 42.7998 33.0025 42.5119 33 42.1362C32.9875 40.1404 33 38.1446 32.9933 36.1479C32.9875 33.9848 31.8191 32.3589 29.749 31.6173C29.3714 31.482 28.9989 31.3401 28.6097 31.2285C28.3839 31.1629 28.3097 31.0472 28.3022 30.8184C28.243 29.0645 27.6413 27.4862 26.693 26.0162C26.2694 25.376 25.88 24.7145 25.5262 24.0344C25.3023 23.5663 25.138 23.0729 25.037 22.5652C24.9854 22.3257 25.0804 22.0369 25.1662 21.79C25.4821 20.8762 25.8462 19.9787 26.1388 19.0592C26.2288 18.7753 26.3013 18.6646 26.6188 18.6556C28.0264 18.6146 28.9989 17.6597 28.9822 16.3751C28.9908 16.3205 28.9885 16.2648 28.9756 16.2111C28.5739 15.3456 28.8814 14.4695 28.9431 13.6C29.3664 7.63961 25.142 2.26738 19.1826 1.20672C18.7334 1.12469 18.2809 1.06809 17.83 1H16.1632C15.5374 1.10746 14.9007 1.17391 14.2865 1.32812C9.97708 2.4134 7.0836 5.04496 5.61936 9.16785C4.98266 10.9627 4.87598 12.8256 5.20267 14.7041C5.27648 15.0606 5.25465 15.4298 5.13933 15.7755C4.68514 17.1036 5.68186 18.526 7.10777 18.6425C7.21799 18.6595 7.32967 18.6655 7.44112 18.6605C7.72697 18.6244 7.81531 18.7581 7.86364 19.019C8.1927 20.8908 9.12304 22.6093 10.5179 23.922C11.003 24.3838 11.5855 24.7423 12.1014 25.1746C12.2289 25.2804 12.3514 25.4683 12.3605 25.6233C12.4197 26.9612 12.4114 26.9621 11.183 27.533C10.8321 27.6971 10.4804 27.8611 10.1296 28.0203C9.09287 28.5026 8.87953 28.8406 8.89536 29.998C8.40617 30.1703 7.90281 30.35 7.39528 30.5255C6.36356 30.8848 5.32934 31.2383 4.29846 31.5993C2.19335 32.3376 1.01162 33.9716 1.00328 36.1758C0.995781 38.1446 1.00912 40.1133 0.995781 42.078C0.995781 42.461 1.09412 42.767 1.40497 42.9992H1.82166C2.16668 42.813 2.26085 42.5209 2.25835 42.1444C2.24585 40.1625 2.24918 38.1798 2.25335 36.198C2.25335 34.4893 3.09673 33.3269 4.73348 32.7527C6.0791 32.2823 7.42556 31.8148 8.77285 31.3499C9.64707 31.0464 9.64707 31.0472 10.1629 31.8167C10.1788 31.8473 10.1922 31.8791 10.2029 31.9118C9.97125 32.2531 9.74707 32.6148 9.49039 32.9536C9.0737 33.5073 9.05954 34.0611 9.35372 34.6804C10.5521 37.2028 11.7255 39.736 12.9197 42.2609C13.0439 42.5234 13.2414 42.7531 13.4056 42.9992H13.8223C14.3223 42.671 14.384 42.4545 14.1248 41.9016C13.0072 39.5161 11.9097 37.1143 10.743 34.7444C10.4396 34.1283 10.3863 33.655 10.8713 33.1415C11.0763 32.9241 11.218 32.6493 11.3847 32.3966C11.6847 31.9471 11.6813 31.7535 11.3572 31.3245C10.993 30.8421 10.6238 30.3639 10.2596 29.8816C10.0971 29.6658 10.0488 29.441 10.3429 29.3008C11.093 28.9357 11.8605 28.5879 12.6356 28.227C12.6814 28.3189 12.7189 28.3771 12.7397 28.4386C13.9298 31.5257 15.1174 34.6128 16.3024 37.7C16.3629 37.8808 16.3911 38.0707 16.3858 38.261C16.3924 39.5596 16.3974 40.8573 16.3858 42.1559C16.3816 42.5324 16.4824 42.8236 16.8324 43.0041H17.2491C17.5825 42.758 17.6508 42.425 17.6467 42.0361C17.6325 40.7646 17.6358 39.4932 17.6467 38.2225C17.6467 38.0052 17.6847 37.7896 17.7592 37.5851C18.8998 34.568 20.0471 31.5531 21.201 28.5403C21.2418 28.4321 21.3027 28.3312 21.3593 28.2122C22.1094 28.56 22.8253 28.8882 23.537 29.2253C23.9637 29.4271 23.992 29.5608 23.7036 29.948C23.3578 30.4098 23.0036 30.8659 22.6561 31.3261C22.3227 31.7683 22.3227 31.9233 22.6327 32.3925C22.8078 32.655 22.9661 32.9298 23.1678 33.1735C23.522 33.6033 23.7511 34.0307 23.3445 34.55C23.3218 34.5763 23.3053 34.6072 23.2959 34.6405C23.2866 34.6738 23.2847 34.7086 23.2903 34.7427C23.3811 34.9544 23.4436 35.2464 23.6128 35.3383C23.782 35.4301 24.1245 35.3965 24.2795 35.2776C24.8629 34.8444 25.0204 33.7559 24.637 33.1448C24.4324 32.8054 24.2099 32.4768 23.9703 32.1604C23.6286 31.7281 24.122 31.578 24.2403 31.3032C24.3528 31.0423 24.547 31.1087 24.7595 31.1834C26.2738 31.7158 27.793 32.235 29.3073 32.7666C30.9107 33.3343 31.7441 34.4999 31.7441 36.1955C31.7441 38.1642 31.7507 40.133 31.7441 42.1017C31.7441 42.484 31.8124 42.8031 32.1657 43.0107L32.5774 43.0041ZM9.0037 18.0945C8.97703 17.8254 8.95703 17.5966 8.9312 17.3693C8.89703 17.0625 8.73452 16.8583 8.417 16.8132C8.08365 16.7656 7.86197 16.91 7.7328 17.2176C7.7153 17.2639 7.6885 17.3063 7.654 17.3423C7.61949 17.3782 7.57799 17.4069 7.53196 17.4268C7.03693 17.5482 6.47024 17.2036 6.32439 16.7123C6.12438 16.038 6.60524 15.4096 7.44612 15.3998C8.32283 15.3875 8.92369 15.0003 9.47372 14.3801C12.1189 11.3983 15.4182 9.42133 19.2526 8.27699C19.5601 8.18512 19.7134 8.22039 19.8526 8.53211C20.7977 10.6518 22.1961 12.4573 23.8811 14.0553C24.6537 14.7886 25.4162 15.5548 26.6413 15.3965C26.7107 15.3986 26.7793 15.4113 26.8446 15.4342C27.3955 15.5458 27.7788 16.0084 27.7322 16.5064C27.683 17.0273 27.2572 17.4087 26.6905 17.4374C26.4871 17.4489 26.3279 17.4456 26.2504 17.1913C26.1613 16.8952 25.9121 16.7672 25.5979 16.8132C25.2596 16.8624 25.0979 17.0822 25.072 17.4046C25.0537 17.6203 25.0379 17.8361 25.0179 18.0961H24.4987C21.3318 18.0961 18.165 18.0961 14.9982 18.0961C14.8182 18.0915 14.6382 18.1063 14.4615 18.1404C14.3216 18.162 14.1954 18.2356 14.1092 18.3462C14.0229 18.4568 13.9832 18.5957 13.9981 18.7343C14.0123 19.0625 14.199 19.2667 14.5382 19.3086C14.6899 19.3229 14.8424 19.3287 14.9948 19.3258C17.2866 19.3258 19.5781 19.3258 21.8694 19.3258H22.3494C22.6069 21.8113 21.9669 23.8843 19.7801 25.2181C18.8818 25.7619 17.8394 26.0302 16.7857 25.9889C15.732 25.9475 14.7146 25.5984 13.8631 24.9859C11.8972 23.5586 11.4063 21.5611 11.6838 19.3512C11.7863 19.3381 11.8939 19.3241 12.003 19.3118C12.348 19.2725 12.5364 19.0575 12.5497 18.7417C12.5639 18.4029 12.3672 18.1749 12.0114 18.1232C11.8455 18.1025 11.6784 18.0935 11.5113 18.0961C10.6838 18.0928 9.85374 18.0945 9.0037 18.0945ZM19.2434 6.99238C19.0392 7.05144 18.8625 7.08754 18.6984 7.15644C17.3175 7.71672 15.8991 8.20398 14.569 8.86516C12.1655 10.0604 10.1171 11.728 8.36117 13.7419C8.21353 13.9193 8.01572 14.0494 7.7928 14.116C7.34445 14.2185 6.87609 14.2448 6.42023 14.303C5.8052 10.8273 7.24694 6.49281 11.0871 4.00973C15.0874 1.42164 20.1618 1.69398 23.8095 4.63398C27.2197 7.38121 28.1755 11.6263 27.578 14.2874C27.1088 14.2398 26.6421 14.2054 26.1813 14.1381C25.9779 14.1144 25.7843 14.0389 25.6196 13.9191C23.6395 12.2785 22.036 10.3442 20.9818 8.00465C20.7018 7.38367 20.5201 6.72086 20.286 6.08019C20.1626 5.74387 19.9243 5.56012 19.5493 5.63476C19.2034 5.70449 19.0226 6.00801 19.0892 6.39191C19.1142 6.5773 19.1767 6.75941 19.2434 6.99238ZM13.5864 26.2984C15.9007 27.5068 18.1292 27.5051 20.4493 26.2869C20.386 26.734 20.3985 27.0982 20.2826 27.4149C19.2542 30.1662 18.1992 32.911 17.155 35.6533C17.12 35.7452 17.0716 35.8305 17.0041 35.9658C16.9416 35.8346 16.9016 35.7657 16.8733 35.6918C15.8224 32.9635 14.7632 30.2376 13.7339 27.501C13.6006 27.1622 13.6348 26.7619 13.5831 26.3001L13.5864 26.2984ZM23.9203 23.6513C24.3103 24.36 24.7195 25.1147 25.1395 25.8661C25.5354 26.5708 25.9688 27.2557 26.3404 27.9719C26.7705 28.81 27.0051 29.732 27.0271 30.6707L25.1054 30.0038C25.1945 29.0079 24.9004 28.501 24.0278 28.0925C23.6395 27.9112 23.2478 27.7381 22.8611 27.5535C22.4744 27.3689 21.9069 27.2615 21.716 26.9465C21.5127 26.6118 21.6552 26.0728 21.6469 25.6225C21.6409 25.5955 21.6409 25.5675 21.6469 25.5405C21.6977 25.4387 21.7302 25.3083 21.8135 25.2452C22.5169 24.6996 23.2336 24.1673 23.9178 23.6529L23.9203 23.6513ZM24.8012 19.343C24.5664 20.2926 24.1461 21.1881 23.5636 21.9795C23.6061 21.0673 23.647 20.2142 23.687 19.343H24.8012ZM10.3996 21.913C9.83583 21.1451 9.43713 20.2719 9.22788 19.3471H10.3996V21.913Z" fill="#0ABEB9" stroke="#0ABEB9"></path><path d="M29.2447 43.0042C29.5548 42.7926 29.6723 42.512 29.6614 42.133C29.6431 41.1897 29.6614 40.2463 29.6548 39.3029C29.6548 38.7025 29.4347 38.4916 28.8214 38.4892C28.0038 38.4892 27.1871 38.4892 26.3529 38.4892C26.2296 37.9765 26.5279 37.1726 25.6437 37.2062C24.8562 37.2366 25.1295 37.9625 25.0412 38.4597H22.8819C23.0486 38.0979 23.2086 37.7566 23.3611 37.4121C23.5536 36.9782 23.4544 36.6148 23.1111 36.4655C22.7677 36.3162 22.4319 36.4704 22.2227 36.9125C21.4343 38.5838 20.649 40.2564 19.8668 41.9304C19.6167 42.462 19.6742 42.6539 20.1551 43.005H20.5718C20.7385 42.777 20.9235 42.5629 21.0552 42.3184C21.2677 41.9238 21.4427 41.5096 21.6335 41.1035C21.7151 41.4471 21.7432 41.8008 21.7169 42.1527C21.6935 42.5292 21.8127 42.8172 22.1519 43.005L29.2447 43.0042ZM22.9944 39.7516H28.3864V41.7491H22.9944V39.7516Z" fill="#0ABEB9" stroke="#0ABEB9"></path><path d="M21.0099 14.7135C21.2449 14.7135 21.4816 14.725 21.7158 14.7135C21.8646 14.7144 22.0077 14.6579 22.1146 14.556C22.2215 14.4542 22.2836 14.3152 22.2875 14.1688C22.3175 13.8489 22.155 13.5733 21.8208 13.547C21.2844 13.5052 20.7455 13.5052 20.2091 13.547C19.8757 13.5724 19.7149 13.8358 19.7407 14.1647C19.7665 14.4936 19.9682 14.6872 20.3032 14.7135C20.5374 14.7283 20.7741 14.7135 21.0099 14.7135Z" fill="#0ABEB9" stroke="#0ABEB9"></path><path d="M13.0263 14.7085C13.2615 14.7188 13.4971 14.7171 13.7321 14.7036C14.0655 14.6699 14.2547 14.4575 14.2688 14.1293C14.2813 13.8209 14.1255 13.5633 13.8113 13.5412C13.2612 13.5034 12.709 13.5075 12.1596 13.5535C11.847 13.5789 11.702 13.8447 11.7229 14.1548C11.7437 14.4649 11.9229 14.6683 12.2371 14.7036C12.4996 14.7194 12.7627 14.7214 13.0254 14.7093L13.0263 14.7085Z" fill="#0ABEB9" stroke="#0ABEB9"></path><path d="M20.3953 16.4082C20.3953 17.0571 20.5711 17.3311 20.9962 17.3418C21.442 17.3532 21.6462 17.0579 21.6445 16.4025C21.6483 16.3073 21.6466 16.212 21.6395 16.117C21.5962 15.729 21.347 15.4797 21.0112 15.4805C20.6528 15.4805 20.4161 15.7438 20.3961 16.163C20.3928 16.2442 20.3961 16.3262 20.3953 16.4082Z" fill="#0ABEB9" stroke="#0ABEB9"></path><path d="M12.3613 16.434C12.367 16.5835 12.382 16.7325 12.4063 16.8802C12.4264 17.0102 12.4939 17.1284 12.5962 17.2129C12.6986 17.2973 12.8287 17.3421 12.9622 17.3388C13.2764 17.3519 13.518 17.2108 13.5722 16.9015C13.6181 16.6197 13.6273 16.3333 13.5997 16.0492C13.568 15.6891 13.2905 15.452 12.9655 15.4832C12.6188 15.5177 12.413 15.7145 12.3821 16.0656C12.3721 16.187 12.3821 16.3117 12.3821 16.4331L12.3613 16.434Z" fill="#0ABEB9" stroke="#0ABEB9"></path></svg> 