<?xml version="1.0" encoding="UTF-8"?> <svg xmlns="http://www.w3.org/2000/svg" width="48" height="48" viewBox="0 0 48 48" fill="none"><g clip-path="url(#clip0_3912_946)"><path d="M46.2296 24.667C47.8252 21.2136 48.3588 17.3725 47.7641 13.6215C47.749 13.5261 47.715 13.4346 47.6642 13.3522C47.6133 13.2697 47.5465 13.198 47.4676 13.1412C47.3887 13.0843 47.2993 13.0433 47.2044 13.0206C47.1095 12.9979 47.011 12.9939 46.9146 13.0089C46.8181 13.0238 46.7256 13.0574 46.6423 13.1077C46.5589 13.158 46.4864 13.224 46.4289 13.3021C46.3714 13.3801 46.33 13.4685 46.307 13.5624C46.2841 13.6562 46.28 13.7536 46.2951 13.849C46.7887 16.9654 46.4395 20.1555 45.2828 23.0952C44.9836 22.8074 44.6258 22.5859 44.2332 22.4456C43.8407 22.3052 43.4225 22.2492 43.0063 22.2813C42.5902 22.3133 42.1857 22.4327 41.8199 22.6314C41.4541 22.8302 41.1353 23.1037 40.8847 23.4339C40.3671 24.0699 39.9385 24.772 39.6104 25.5211C39.421 24.6512 39.2087 23.9266 38.9812 23.5433C38.7213 23.0573 38.3266 22.6548 37.8434 22.3831C37.3602 22.1114 36.8086 21.9817 36.2534 22.0092C35.6982 22.0368 35.1626 22.2205 34.7093 22.5387C34.2561 22.857 33.9041 23.2966 33.6947 23.8058C33.5257 24.2023 33.3912 24.5812 33.2717 24.9514C33.1401 24.4817 32.9693 24.0236 32.7611 23.5818C32.637 23.2901 32.48 23.0133 32.293 22.7565L32.0532 19.6304H32.5841C32.7813 19.6304 32.9703 19.5529 33.1097 19.4151C33.2491 19.2772 33.3275 19.0902 33.3275 18.8952C33.3275 18.7003 33.2491 18.5133 33.1097 18.3754C32.9703 18.2376 32.7813 18.1601 32.5841 18.1601H31.9461L31.8656 17.0994C32.0239 17.0491 32.1605 16.9475 32.2534 16.811C32.3462 16.6745 32.3899 16.5112 32.3775 16.3471C32.365 16.1831 32.2971 16.028 32.1846 15.9068C32.0722 15.7856 31.9218 15.7054 31.7576 15.679L31.7355 15.3937C31.6874 14.79 31.4111 14.2264 30.9615 13.8152C30.512 13.404 29.9222 13.1755 29.3099 13.1751H28.6498C28.0387 13.1774 27.4509 13.4068 27.0029 13.8178C26.5549 14.2287 26.2794 14.7913 26.2313 15.3937L26.21 15.6772C26.0422 15.6996 25.8872 15.7782 25.771 15.9001C25.6548 16.0219 25.5845 16.1795 25.5717 16.3465C25.559 16.5135 25.6046 16.6797 25.701 16.8174C25.7974 16.9551 25.9386 17.0559 26.1012 17.1029L26.0215 18.1592H25.3667C25.1696 18.1592 24.9805 18.2367 24.8411 18.3745C24.7017 18.5124 24.6234 18.6994 24.6234 18.8944C24.6234 19.0893 24.7017 19.2763 24.8411 19.4142C24.9805 19.5521 25.1696 19.6295 25.3667 19.6295H25.91L25.6959 22.4458C25.3248 22.8682 25.0428 23.3598 24.8667 23.8916L24.8322 24.0062C24.7437 24.3012 24.6667 24.6057 24.595 24.9164C24.265 23.7857 23.7774 22.7696 23.0544 22.0459C22.6893 21.6729 22.2505 21.3782 21.7653 21.18C21.2802 20.9819 20.759 20.8846 20.2341 20.8941C19.4271 20.891 18.6373 21.1252 17.9651 21.567C17.2929 22.0087 16.7687 22.6382 16.4591 23.3752C16.0398 24.3117 15.7241 25.2903 15.5175 26.2939C15.3449 25.6516 15.1288 25.0215 14.8706 24.4079C14.0981 22.5893 12.9433 22.2078 12.1105 22.2078H11.9141C10.6681 22.2078 9.63011 23.0462 9.13632 24.4517C8.94872 24.9847 8.78678 25.522 8.64253 26.0611C8.1576 24.7484 7.53903 23.5065 6.95587 23.1004C6.39771 22.6455 5.68896 22.4111 4.96635 22.4424C4.24374 22.4738 3.55847 22.7687 3.04274 23.2702C2.11449 21.2127 1.58528 19.001 1.48262 16.7502C1.47826 16.6537 1.45473 16.559 1.41337 16.4715C1.37201 16.3841 1.31363 16.3055 1.24157 16.2403C1.1695 16.1751 1.08516 16.1246 0.993362 16.0917C0.901562 16.0587 0.804101 16.044 0.706543 16.0483C0.608985 16.0526 0.51324 16.0759 0.424776 16.1168C0.336312 16.1577 0.25686 16.2154 0.190958 16.2867C0.125055 16.358 0.0739922 16.4414 0.0406844 16.5322C0.00737672 16.623 -0.00752327 16.7194 -0.00316541 16.8158C0.124922 19.595 0.851727 22.315 2.12861 24.7939C2.14972 24.8303 2.174 24.8649 2.20118 24.8972C1.97641 26.0629 1.9065 28.2701 1.84721 30.6321L1.83482 31.1914C1.83576 31.8542 2.10242 32.4897 2.57635 32.9584C3.05029 33.4271 3.69281 33.6908 4.36305 33.6917H7.13728C7.57 33.6737 7.99155 33.5504 8.36467 33.3329C8.3744 33.3443 8.38148 33.3565 8.3921 33.3697C8.57877 33.5898 8.81212 33.7667 9.07562 33.8877C9.33912 34.0087 9.62631 34.0708 9.91682 34.0698H14.0999C14.439 34.0686 14.7722 33.9809 15.0671 33.8151C15.2361 34.1314 15.4889 34.3963 15.7985 34.5813C16.1081 34.7663 16.4628 34.8645 16.8245 34.8653H17.2139C17.8333 34.8653 18.4714 34.8767 19.1253 34.889C19.8129 34.9003 20.5138 34.9126 21.2084 34.9126C22.0934 34.9126 22.8208 34.8933 23.4898 34.8513L23.5561 34.8434C23.8696 34.795 24.1666 34.6722 24.4216 34.4855C24.7762 34.821 25.2476 35.009 25.7384 35.0106H32.3629C32.7332 35.0091 33.095 34.9012 33.4044 34.6999C33.7137 34.4987 33.9572 34.2129 34.1053 33.8773C34.2943 33.9539 34.4928 34.0054 34.6956 34.0304L34.7398 34.0357C35.2399 34.0815 35.742 34.1017 36.2442 34.0961C36.6273 34.0961 37.0211 34.0899 37.4043 34.0821C37.7583 34.0759 38.0981 34.0698 38.4122 34.0698H38.5892C38.8544 34.0691 39.1164 34.012 39.3573 33.9024C39.5983 33.7928 39.8125 33.6332 39.9856 33.4344C40.3782 33.6992 40.8423 33.841 41.3174 33.8414C41.8767 33.8414 42.4439 33.8248 43.0103 33.8099L43.8253 33.7889C44.447 33.7878 45.0435 33.5461 45.4871 33.1154C45.9308 32.6847 46.1862 32.0992 46.1987 31.4846C46.404 29.5881 46.4978 26.8575 46.1606 24.7825C46.1884 24.747 46.2116 24.7082 46.2296 24.667ZM7.65584 31.9038L7.66115 32.0552C7.4947 32.1578 7.30407 32.2157 7.10808 32.2232H4.37101C4.09492 32.2227 3.83026 32.1141 3.63504 31.921C3.43981 31.7279 3.32992 31.4662 3.32946 31.1931L3.34184 30.668C3.38167 28.9177 3.45688 25.6594 3.73829 24.8779C3.81341 24.658 3.94185 24.4596 4.11237 24.3002C4.2829 24.1407 4.49032 24.0249 4.71651 23.963C4.9427 23.9011 5.18079 23.895 5.40995 23.9451C5.63911 23.9951 5.85238 24.1 6.03113 24.2504L6.11342 24.309C6.42669 24.5637 7.31426 26.3403 7.85761 28.5151C7.69645 29.6373 7.62897 30.7706 7.65584 31.9038ZM14.6105 31.8644C14.5998 32.2022 14.5751 32.3317 14.5025 32.4166C14.4554 32.4751 14.3951 32.5218 14.3263 32.5529C14.2576 32.5841 14.1825 32.5989 14.1069 32.596H9.9239C9.84861 32.5989 9.77369 32.5842 9.70525 32.553C9.63681 32.5218 9.5768 32.4751 9.53011 32.4166C9.45578 32.3291 9.42923 32.2013 9.42127 31.8687C9.3713 29.5098 9.75171 27.1612 10.5442 24.9357C10.7088 24.4666 11.107 23.6798 11.9176 23.6798H12.115C12.322 23.6798 12.953 23.6798 13.5043 24.9785C14.5848 27.5253 14.6697 29.8891 14.6105 31.8644ZM23.7703 32.1033C23.7703 32.3956 23.7632 32.6503 23.765 32.8909C23.7644 33.0058 23.7241 33.1169 23.6509 33.2061C23.5777 33.2952 23.4759 33.3569 23.3623 33.381C22.7429 33.4195 22.0412 33.4379 21.2155 33.4379C20.5288 33.4379 19.8377 33.4257 19.159 33.4134C18.4962 33.402 17.8449 33.3907 17.221 33.3907H16.8254C16.691 33.3904 16.5622 33.3375 16.4671 33.2435C16.3721 33.1495 16.3186 33.0221 16.3184 32.8892C16.3184 32.8726 16.3184 32.8542 16.3237 32.8017V32.75C16.4679 29.8401 16.6299 26.5433 17.828 23.9651C18.0236 23.4917 18.3576 23.0868 18.7871 22.8021C19.2167 22.5174 19.7224 22.366 20.2395 22.367C20.5675 22.3584 20.8937 22.4175 21.1973 22.5405C21.501 22.6634 21.7754 22.8476 22.0031 23.0812C23.8623 24.9427 23.7986 29.9609 23.7703 32.1033ZM27.7171 15.5048C27.7328 15.2708 27.8385 15.0515 28.0124 14.8919C28.1862 14.7323 28.4152 14.6444 28.6524 14.6463H29.3126C29.5498 14.6446 29.7788 14.7325 29.9527 14.8921C30.1267 15.0516 30.2326 15.2708 30.2488 15.5048L30.2603 15.6685H27.7055L27.7171 15.5048ZM27.5932 17.1388H30.3718L30.4497 18.161H27.5162L27.5932 17.1388ZM27.4038 19.626H30.563L30.6975 21.4035C30.6665 21.3886 30.6329 21.3781 30.601 21.3641C30.4632 21.3028 30.3223 21.2484 30.1789 21.2013C30.1205 21.1829 30.0621 21.1672 30.0019 21.1506C29.8736 21.1155 29.7435 21.0858 29.6117 21.063C29.555 21.0525 29.4984 21.042 29.4409 21.0342C29.2524 21.007 29.0623 20.9929 28.8719 20.9921C28.6683 20.9933 28.4652 21.0091 28.2639 21.0394L28.1507 21.056C27.961 21.0879 27.7738 21.133 27.5905 21.1908C27.556 21.2013 27.5215 21.2153 27.487 21.2267C27.4162 21.2503 27.3454 21.2731 27.2764 21.3002L27.4038 19.626ZM32.793 33.1544C32.7794 33.2579 32.7282 33.3531 32.6489 33.422C32.5696 33.4909 32.4676 33.529 32.362 33.5289H25.7454C25.6309 33.529 25.5209 33.4843 25.4394 33.4047C25.3579 33.3251 25.3115 33.2169 25.3101 33.1036L25.3163 32.9723C25.4269 29.9513 25.5401 26.8287 26.2675 24.4106L26.2923 24.3309C26.4205 23.937 26.6388 23.5776 26.9304 23.2807L26.9507 23.2597C27.0708 23.1421 27.2014 23.0354 27.341 22.9411C27.3702 22.9219 27.4011 22.9053 27.4295 22.886C27.5354 22.82 27.646 22.7615 27.7604 22.711C27.8082 22.69 27.8551 22.6707 27.9038 22.6523C28.0117 22.6119 28.1223 22.5785 28.2347 22.5526C28.2834 22.5412 28.3303 22.5263 28.3799 22.5184C28.5417 22.4874 28.7061 22.4713 28.871 22.4703C28.9939 22.4713 29.1166 22.4804 29.2382 22.4974C29.2736 22.5027 29.3099 22.5088 29.3453 22.5158C29.4348 22.5311 29.5234 22.551 29.6108 22.5753C29.6435 22.585 29.6763 22.5928 29.7081 22.6033C29.9421 22.6782 30.1645 22.7845 30.3692 22.9193C30.3851 22.9306 30.4001 22.942 30.417 22.9525C30.5101 23.0169 30.5988 23.0874 30.6824 23.1634C30.6913 23.1713 30.7001 23.1783 30.709 23.1871C31.0104 23.4654 31.2466 23.8057 31.401 24.1839C32.0585 25.5264 32.4487 27.9917 32.6452 30.0178C32.6452 30.2182 32.6496 30.4168 32.6523 30.6208C32.6585 31.0277 32.6638 31.4504 32.6638 31.8959C32.6659 32.1405 32.7136 32.3825 32.8045 32.61C32.81 32.7933 32.8056 32.9768 32.7912 33.1596L32.793 33.1544ZM38.5945 32.589H38.4175C38.0945 32.589 37.7432 32.5951 37.3813 32.6021C37.0194 32.6091 36.6229 32.6153 36.2486 32.6153C35.7863 32.6215 35.324 32.6028 34.8637 32.5593H34.8504C34.626 32.5279 34.4224 32.4126 34.2814 32.2372C34.2628 31.6377 34.2177 30.8527 34.1372 29.981C34.1177 28.0163 34.1814 26.4663 35.0743 24.3694C35.1806 24.1063 35.3644 23.8808 35.6019 23.7222C35.8394 23.5636 36.1196 23.4793 36.4061 23.4803C36.6717 23.4816 36.9318 23.555 37.158 23.6925C37.3843 23.83 37.5681 24.0263 37.6893 24.26C38.2733 25.2437 38.9706 30.5796 38.9706 32.2162C38.9709 32.3153 38.9315 32.4105 38.861 32.481C38.7905 32.5515 38.6948 32.5916 38.5945 32.5925V32.589ZM44.7155 31.3533V31.432C44.7146 31.5483 44.6905 31.6632 44.6445 31.7701C44.5986 31.8771 44.5317 31.974 44.4477 32.0553C44.3638 32.1367 44.2644 32.2008 44.1553 32.244C44.0462 32.2872 43.9295 32.3087 43.812 32.3072C43.5333 32.3133 43.2528 32.3221 42.9714 32.33C42.4201 32.3448 41.8661 32.3606 41.3201 32.3606C41.1036 32.3611 40.8944 32.2831 40.7321 32.1413C40.5699 31.9996 40.4658 31.8039 40.4396 31.5913C40.4396 31.2343 40.4343 30.8912 40.4299 30.5595C40.398 28.0845 40.3768 26.4462 42.0687 24.3257C42.2391 24.0979 42.4734 23.9247 42.7424 23.8273C43.0115 23.73 43.3035 23.7129 43.5822 23.7781C43.861 23.8433 44.1143 23.988 44.3107 24.1942C44.5071 24.4005 44.6381 24.6592 44.6872 24.9383C45.0129 26.8899 44.9067 29.6152 44.7155 31.3533Z" fill="#0ABEB9" stroke="#0ABEB9" stroke-width="0.5"></path></g><defs><clipPath id="clip0_3912_946"><rect width="48" height="48" fill="white"></rect></clipPath></defs></svg> 