<?xml version="1.0" encoding="UTF-8"?> <svg xmlns="http://www.w3.org/2000/svg" width="29" height="46" viewBox="0 0 29 46" fill="none"><path d="M17.3809 4.59203L17.3487 4.61089C17.3078 4.63367 17.2662 4.65803 17.2253 4.68239L17.036 4.7916C16.2614 5.18436 15.405 5.3887 14.5365 5.38802C13.668 5.38734 12.812 5.18164 12.038 4.78767L11.8927 4.7091C11.8384 4.67453 11.7834 4.64074 11.7261 4.6101L11.6844 4.58574C11.2536 4.34586 10.7889 4.17236 10.3063 4.0711L10.0234 5.42096C10.3646 5.49233 10.6932 5.61414 10.9985 5.78239L11.0849 5.83189C11.1072 5.84404 11.1287 5.85741 11.1494 5.87196L11.4142 6.02046C12.3814 6.5184 13.4534 6.77859 14.5413 6.77947C15.6254 6.77837 16.6937 6.51984 17.6583 6.02518L17.9341 5.86803L18.0087 5.82482L18.0668 5.79103C18.3767 5.61854 18.7107 5.49353 19.0576 5.42018L18.774 4.07031C18.286 4.17305 17.8163 4.34894 17.3809 4.59203Z" fill="#0ABEB9" stroke="#0ABEB9"></path><path d="M19.8521 1.00079C18.4946 0.999723 17.1593 1.34478 15.9722 2.00336C15.8717 2.05679 15.7742 2.11493 15.6579 2.18251C15.3092 2.35445 14.9256 2.44388 14.5367 2.44388C14.1479 2.44388 13.7643 2.35445 13.4155 2.18251C13.3126 2.12043 13.212 2.05915 13.1169 2.00965C11.9269 1.34708 10.5873 0.999545 9.22526 1C7.10056 1.0027 5.06365 1.84793 3.56126 3.35033C2.05887 4.85272 1.21364 6.88962 1.21094 9.01433C1.21094 11.109 2.37459 13.2313 3.06916 14.3108L3.14773 14.4389C3.96881 15.7094 4.99103 17.2895 4.99103 20.4968C4.98421 21.6993 5.16175 22.8957 5.51746 24.0443L5.66989 24.526H8.48983L7.87776 26.0298H6.82489V27.4088H7.78268L8.26276 29.8209H7.56111V31.2022H8.53697L9.01705 33.6144H8.31697V34.9933H9.29126L9.77055 37.4094H9.06969V38.7891H10.0448L10.5241 41.1997H9.82555V42.5786H10.8014L11.2838 45.0026H17.8006L18.283 42.5786H19.2542V41.1981H18.5525L19.0318 38.7875H20.0077V37.4094H19.3068L19.7869 34.9957H20.762V33.6152H20.0611L20.5412 31.203H21.5178V29.8241H20.8154L21.2955 27.4119H22.2478V26.033H21.1933L20.5812 24.5291H23.4035L23.5607 24.0467C23.916 22.8982 24.0935 21.7021 24.0871 20.5C24.0871 17.2919 25.1086 15.7118 25.9304 14.4413L26.0129 14.3132C26.7075 13.2344 27.8704 11.1122 27.8704 9.01747C27.8681 6.89174 27.0225 4.85376 25.5192 3.35079C24.016 1.84782 21.9778 1.00266 19.8521 1.00079ZM19.8914 27.4119L19.4113 29.8241H18.7505V31.2022H19.1371L18.657 33.6144H18.0049V34.9933H18.382L17.9019 37.4094H17.2592V38.7891H17.6277L17.1477 41.1997H16.5136V42.5786H16.8734L16.666 43.6229H12.4129L12.2055 42.5786H14.5933V41.1981H11.9313L11.4512 38.7875H15.3366V37.4094H11.177L10.6969 34.9957H16.0822V33.6152H10.4251L9.94498 31.203H16.831V29.8241H9.66841L9.18834 27.4119H17.084V26.033H9.37376L9.98584 24.5299H19.097L19.7099 26.033H19.317V27.4119H19.8914ZM24.8508 13.5668L24.7723 13.6925C23.9017 15.04 22.7082 16.8856 22.7082 20.5C22.7119 21.3932 22.6029 22.2834 22.3837 23.1494H6.69997C6.48004 22.2835 6.37074 21.3933 6.37468 20.5C6.37468 16.8856 5.18196 15.0408 4.31138 13.6933L4.23281 13.5676C3.73938 12.8015 2.5938 10.8246 2.5938 9.01747C2.59568 7.25774 3.2955 5.57061 4.53974 4.32622C5.78399 3.08183 7.47103 2.3818 9.23076 2.37972C10.3623 2.37976 11.475 2.66917 12.4632 3.22044C12.5528 3.26915 12.6392 3.3218 12.7264 3.37758L12.7681 3.40115C13.3183 3.67856 13.926 3.82306 14.5422 3.82306C15.1585 3.82306 15.7661 3.67856 16.3164 3.40115L16.3737 3.36815C16.4562 3.31865 16.5372 3.26915 16.6346 3.2173C17.6199 2.66957 18.7287 2.38237 19.856 2.38286C21.6158 2.38494 23.3028 3.08497 24.5471 4.32936C25.7913 5.57375 26.4911 7.26088 26.493 9.02061C26.4883 10.8254 25.3427 12.8015 24.8508 13.5668Z" fill="#0ABEB9" stroke="#0ABEB9"></path></svg> 