<?xml version="1.0" encoding="UTF-8"?> <svg xmlns="http://www.w3.org/2000/svg" width="48" height="48" viewBox="0 0 48 48" fill="none"><path d="M43.2394 20.1001L43.4097 19.5111C44.0697 17.3254 43.9348 15.466 43.0406 14.2667C42.7486 13.8671 42.3646 13.5436 41.9212 13.3237C41.4777 13.1038 40.9878 12.994 40.4929 13.0035C39.4365 13.0249 38.3881 13.192 37.3774 13.5003C36.9748 13.622 36.5452 13.622 36.1426 13.5003C35.1346 13.191 34.0884 13.0238 33.0342 13.0035C32.5388 12.9953 32.0486 13.1053 31.6043 13.3245C31.16 13.5437 30.7743 13.8656 30.4794 14.2637C30.4439 14.3204 30.4084 14.3843 30.3729 14.434C30.3374 14.4837 30.309 14.3204 30.2665 14.2708C29.9752 13.8698 29.5916 13.545 29.148 13.3238C28.7045 13.1027 28.2142 12.9918 27.7187 13.0005C26.6623 13.0218 25.6139 13.189 24.6032 13.4972C24.2006 13.6189 23.771 13.6189 23.3684 13.4972C22.3604 13.1879 21.3142 13.0207 20.26 13.0005C19.7644 12.9929 19.2741 13.1035 18.8298 13.3231C18.3855 13.5428 18 13.8652 17.7052 14.2637C17.6697 14.3204 17.6342 14.3843 17.6038 14.434C17.5734 14.4837 17.5399 14.3204 17.4973 14.2708C17.2061 13.8698 16.8224 13.545 16.3789 13.3238C15.9354 13.1027 15.4451 12.9918 14.9496 13.0005C13.8932 13.0223 12.8449 13.1895 11.8341 13.4972C11.4315 13.6189 11.0019 13.6189 10.5993 13.4972C9.59127 13.1879 8.54506 13.0207 7.49087 13.0005C6.99444 12.9921 6.50319 13.1024 6.05795 13.3221C5.61271 13.5418 5.22634 13.8646 4.93097 14.2637C4.03677 15.4701 3.90903 17.3294 4.56193 19.5152L4.73935 20.1042C4.00512 20.1302 3.30957 20.4398 2.79889 20.968C2.28801 21.4958 2.00165 22.2012 2 22.9357V35H46V22.9357C46.0004 22.1959 45.7119 21.4851 45.196 20.9548C44.6805 20.4246 43.9785 20.1165 43.2394 20.0961V20.1001ZM31.6219 15.1325C31.7827 14.9074 31.996 14.725 32.2434 14.6013C32.4908 14.4776 32.7648 14.4164 33.0413 14.4228C33.9608 14.4451 34.8729 14.5931 35.7523 14.8628C36.4165 15.0626 37.1248 15.0626 37.789 14.8628C38.6662 14.5941 39.5758 14.4461 40.4929 14.4228C40.7693 14.417 41.043 14.4785 41.2903 14.6022C41.5376 14.7258 41.7511 14.9078 41.9123 15.1325C42.5297 15.9628 42.6219 17.3821 42.0613 19.1279C41.3019 21.6543 40.5355 24.7271 40.1452 26.3259C40.0985 26.5244 39.9995 26.7067 39.8584 26.854C39.7174 27.0013 39.5395 27.1081 39.3432 27.1633C39.2368 24.1685 38.52 20.8544 36.7742 20.8544C35.0284 20.8544 34.3116 24.1756 34.2123 27.1633C34.0126 27.1102 33.8309 27.0045 33.6861 26.8572C33.5413 26.7099 33.4387 26.5264 33.389 26.3259C33.0058 24.7221 32.2394 21.6492 31.48 19.1279C30.9477 17.3679 31.0045 15.9486 31.6219 15.1325ZM18.8477 15.1325C19.0085 14.9074 19.2218 14.725 19.4692 14.6013C19.7166 14.4776 19.9906 14.4164 20.2671 14.4228C21.1866 14.4451 22.0987 14.5931 22.9781 14.8628C23.6423 15.0626 24.3506 15.0626 25.0148 14.8628C25.892 14.5941 26.8016 14.4461 27.7187 14.4228C27.9951 14.417 28.2688 14.4785 28.5161 14.6022C28.7634 14.7258 28.9769 14.9078 29.1381 15.1325C29.7555 15.9628 29.8477 17.3821 29.2871 19.1279C29.0316 19.9653 28.8613 20.75 28.7265 21.3704C28.6291 21.909 28.472 22.435 28.2581 22.9388H19.6923C19.4941 22.4284 19.3467 21.8996 19.2523 21.3603C19.1174 20.7358 18.9481 19.941 18.6987 19.1178C18.1735 17.372 18.2303 15.9527 18.8477 15.1366V15.1325ZM24.7097 25.7774V28.3251L24 29.0348L23.2903 28.3251V25.7774H24.7097ZM6.07355 15.1325C6.23427 14.9074 6.44764 14.725 6.69505 14.6013C6.94245 14.4776 7.21637 14.4164 7.4929 14.4228C8.4124 14.4451 9.32453 14.5931 10.2039 14.8628C10.8681 15.0626 11.5764 15.0626 12.2406 14.8628C13.1178 14.5941 14.0274 14.4461 14.9445 14.4228C15.2209 14.417 15.4946 14.4785 15.742 14.6022C15.9893 14.7258 16.2027 14.9078 16.3639 15.1325C16.9813 15.9628 17.0381 17.3821 16.5129 19.1279C15.7535 21.6543 14.9871 24.7271 14.5968 26.3259C14.5501 26.5244 14.4511 26.7067 14.31 26.854C14.169 27.0013 13.9911 27.1081 13.7948 27.1633C13.6935 24.1685 12.9716 20.8544 11.2258 20.8544C9.48 20.8544 8.76322 24.1756 8.66387 27.1633C8.46425 27.1102 8.28255 27.0045 8.13774 26.8572C7.99294 26.7099 7.89033 26.5264 7.84064 26.3259C7.45742 24.7221 6.69096 21.6492 5.93161 19.1279C5.39935 17.3679 5.45613 15.9486 6.07355 15.1325ZM44.5806 33.5837H3.41935V22.9388C3.41935 22.5624 3.56889 22.2014 3.83507 21.9352C4.10125 21.669 4.46227 21.5195 4.83871 21.5195H5.13677C5.67613 23.4852 6.1729 25.4652 6.45475 26.6503C6.59094 27.2156 6.91517 27.7179 7.37429 28.0747C7.83314 28.432 8.3997 28.6229 8.9812 28.6161C9.26505 28.6146 9.53716 28.5026 9.73986 28.3039C9.94255 28.1052 10.0599 27.8354 10.067 27.5516C10.1167 24.2871 10.8689 22.584 11.2167 22.2859C11.5715 22.5556 12.3167 24.2871 12.3735 27.5516C12.3791 27.8371 12.4969 28.1089 12.7014 28.3081C12.906 28.5074 13.1808 28.618 13.4664 28.6161C14.0438 28.6166 14.6048 28.4231 15.0591 28.0666C15.5139 27.7093 15.8353 27.2094 15.9715 26.6473C16.3051 25.228 16.9296 22.737 17.5936 20.4519C17.695 20.8777 17.7964 21.2822 17.8704 21.6584C18.1969 23.1628 18.4594 24.3551 19.6091 24.3551H21.1633V25.7744H21.873V28.904L24.002 31.033L26.1311 28.904V25.7774H26.8407V24.3581H28.3736C29.5233 24.3581 29.793 23.1659 30.1124 21.6614C30.1904 21.2853 30.2827 20.8808 30.3891 20.455C31.042 22.7401 31.6665 25.2523 32.0112 26.6503C32.1474 27.2156 32.4717 27.7179 32.9308 28.0747C33.3896 28.432 33.9562 28.6229 34.5377 28.6161C34.8215 28.6146 35.0937 28.5026 35.2964 28.3039C35.4991 28.1052 35.6164 27.8354 35.6235 27.5516C35.6732 24.2871 36.4254 22.584 36.7732 22.2859C37.128 22.5556 37.8732 24.2871 37.93 27.5516C37.9355 27.8371 38.0534 28.1089 38.2579 28.3081C38.4625 28.5074 38.7373 28.618 39.0229 28.6161C39.6003 28.6166 40.1613 28.4231 40.6156 28.0666C41.0703 27.7092 41.3916 27.2093 41.528 26.6473C41.8119 25.4621 42.3016 23.4822 42.846 21.5164H43.1653C43.3517 21.5164 43.5363 21.5531 43.7085 21.6244C43.8807 21.6957 44.0372 21.8003 44.169 21.9321C44.3008 22.0639 44.4054 22.2204 44.4767 22.3926C44.548 22.5648 44.5847 22.7494 44.5847 22.9357L44.5806 33.5837Z" fill="#0ABEB9" stroke="#0ABEB9"></path></svg> 