<?xml version="1.0" encoding="UTF-8"?> <svg xmlns="http://www.w3.org/2000/svg" width="39" height="45" viewBox="0 0 39 45" fill="none"><path d="M6.81024 18.0704C5.51875 17.8062 4.57699 17.13 4.32503 15.8508C4.18757 15.0687 4.17734 14.2701 4.29473 13.4849C4.3443 13.1109 4.72018 12.7342 5.03686 12.4537C5.25165 12.2626 5.36592 12.1149 5.35353 11.8371C5.32324 11.1894 5.28744 10.5729 5.08642 9.92109C4.8675 9.21511 4.98729 8.38717 5.06715 7.61749C5.09331 7.36274 5.40998 7.0443 5.67158 6.93048C5.94787 6.80909 6.16623 6.58789 6.28152 6.31257C8.05628 2.90325 10.9174 1.15523 14.7849 1.04005C16.4798 0.988556 18.1885 0.904544 19.8517 1.39372C22.5522 2.18236 24.5257 3.81792 25.7722 6.30038C25.9099 6.57139 26.0324 6.80175 26.378 6.91828C26.8847 7.09173 27.1036 7.54161 27.0788 8.05111C27.0389 8.86415 27.2027 9.66499 26.7745 10.4767C26.535 10.9306 26.7126 11.6041 26.736 12.1773C26.736 12.264 26.9205 12.3534 27.0306 12.4239C27.474 12.7084 27.7769 13.1109 27.8113 13.6204C27.8779 14.2932 27.8687 14.9713 27.7837 15.6421C27.5882 16.8509 26.8323 17.6246 25.6276 17.9755C25.4734 18.0203 25.26 18.1951 25.2448 18.3279C24.891 21.4445 23.3324 23.805 20.6241 25.4433C21.1818 25.7698 21.8124 26.0029 22.2543 26.4257C23.0212 27.1588 23.9148 27.6154 24.8703 28.0518C26.5528 28.8309 27.876 30.0505 28.9031 31.5749C28.9954 31.7104 29.0931 31.8459 29.2129 32.0234C30.0941 31.5532 31.0441 31.6413 31.9831 31.6386C32.7734 31.6386 33.5638 31.6386 34.3541 31.6386C36.8007 31.6494 38.3469 33.4598 37.9339 35.8325C37.5621 37.9626 37.1904 40.0932 36.8186 42.2243C36.6369 43.2636 35.8066 43.9859 34.8029 43.9859C33.7992 43.9859 33.013 43.2988 32.7955 42.2798C32.7762 42.1877 32.7418 42.0969 32.6771 41.8842C32.6068 42.1701 32.5738 42.3395 32.5242 42.5034C32.2805 43.3083 31.7394 43.7962 30.8996 43.9411C30.6454 43.9791 30.3883 43.9955 30.1313 43.9899C20.8201 43.9899 11.5094 43.9899 2.19917 43.9899C2.04445 43.9949 1.88956 43.9917 1.73518 43.9804C1.24227 43.9276 0.969649 43.6552 1.00269 43.1755C1.18031 40.6646 1.21473 38.1293 1.59611 35.6468C2.1978 31.7172 4.55358 29.0599 8.27933 27.5558C8.5744 27.4364 8.84184 27.2594 9.06551 27.0355C9.7626 26.3298 10.6173 25.7939 11.5617 25.4704C8.7571 23.7454 7.1751 21.3036 6.81024 18.0704ZM21.7917 28.5382C21.7091 28.7388 21.6306 28.9244 21.5576 29.1114C19.9816 33.126 18.4074 37.1415 16.8351 41.1579C16.6864 41.5359 16.5404 41.8977 16.0475 41.9004C15.5546 41.9031 15.4045 41.5413 15.2558 41.1633C13.8891 37.6853 12.5182 34.2073 11.1432 30.7293C10.8527 29.9949 10.5594 29.2605 10.2771 28.5504C9.75394 28.5165 9.49371 28.7645 9.36704 29.1792C9.2624 29.5166 9.09167 29.8567 9.07653 30.1954C9.0187 31.3594 9.02971 32.5262 8.9829 33.6901C8.96913 34.0614 9.06689 34.243 9.44277 34.3907C9.81882 34.538 10.1612 34.7577 10.4497 35.037C10.7383 35.3163 10.9672 35.6495 11.1231 36.0171C11.2789 36.3848 11.3585 36.7793 11.3573 37.1776C11.356 37.576 11.2738 37.97 11.1156 38.3366C10.8021 39.0711 10.2076 39.6548 9.46055 39.9616C8.71348 40.2684 7.87377 40.2736 7.12278 39.9762C6.55468 39.7489 6.06809 39.3605 5.72486 38.8603C5.38163 38.3601 5.19726 37.7708 5.19519 37.1672C5.20241 36.5632 5.39008 35.9747 5.7348 35.4749C6.07953 34.9752 6.56607 34.5863 7.13379 34.3568C7.29902 34.2864 7.5262 34.0967 7.53033 33.9503C7.57852 32.4448 7.58678 30.9367 7.60605 29.4597C5.41962 30.419 3.38189 33.0682 3.0184 35.6929C2.77883 37.4301 2.72238 39.193 2.58745 40.9451C2.54614 41.4749 2.5186 42.0061 2.48418 42.5427H28.5699C28.5701 42.4477 28.565 42.3527 28.5548 42.2582C28.2298 40.3936 27.9187 38.5277 27.5703 36.6672C27.3404 35.4355 27.1573 34.2281 27.9545 33.102C27.9771 33.0365 27.9837 32.9666 27.9736 32.8981C27.9636 32.8295 27.9372 32.7643 27.8967 32.7077C27.3721 32.0424 26.8792 31.3418 26.2747 30.7524C25.7309 30.2212 25.0576 29.8187 24.427 29.3472C24.4532 30.6101 24.4848 31.7551 24.4986 32.9001C24.4986 33.1617 24.5495 33.3148 24.8359 33.4286C25.9801 33.8798 26.5831 34.7498 26.6988 35.945C26.8241 37.2241 26.9315 38.5033 27.043 39.7838C27.1118 40.5616 26.8916 40.7988 26.1026 40.8028C25.8796 40.8028 25.6249 40.8584 25.4417 40.7717C25.2187 40.666 24.9474 40.4627 24.8993 40.2567C24.8511 40.0508 25.019 39.7662 25.1498 39.5508C25.2159 39.441 25.4087 39.4058 25.556 39.3312C25.4527 38.1971 25.3701 37.0683 25.2407 35.9436C25.2096 35.5934 25.0471 35.2672 24.785 35.0285C24.5228 34.7897 24.1797 34.6556 23.8226 34.6522C23.4568 34.6303 23.0966 34.7492 22.8183 34.9839C22.5401 35.2186 22.3654 35.5506 22.3314 35.9097C22.1841 37.0466 22.1056 38.1916 21.9982 39.3326C22.085 39.376 22.1428 39.4112 22.2061 39.4356C22.6041 39.5873 22.7706 39.8841 22.6743 40.2798C22.5779 40.6755 22.2846 40.8137 21.895 40.8028C21.7242 40.8028 21.5521 40.8028 21.38 40.8028C20.6916 40.792 20.4548 40.5521 20.5112 39.8611C20.6186 38.5467 20.7361 37.2336 20.8637 35.9219C20.9532 34.9734 21.3291 34.1034 22.2089 33.7186C23.0254 33.3609 23.1534 32.8568 23.0694 32.1169C23.0254 31.7334 23.1052 31.3351 23.0501 30.9529C22.9612 30.3553 22.8399 29.7627 22.6867 29.1778C22.582 28.774 22.3177 28.5057 21.7917 28.5382ZM22.9083 10.7721C21.7986 10.7721 20.788 10.7626 19.7774 10.7843C19.6178 10.813 19.476 10.902 19.3822 11.0322C17.5662 13.367 14.4669 13.3724 12.6852 11.0431C12.5999 10.932 12.4608 10.7883 12.3438 10.7856C11.3029 10.7653 10.2606 10.7748 9.15638 10.7748C9.15638 11.1054 9.19906 11.3805 9.14812 11.6379C9.05036 12.1258 9.0545 12.7897 8.73507 13.0431C8.17607 13.489 8.24904 13.9836 8.24216 14.5202C8.23527 14.9755 8.22013 15.4335 8.24216 15.8888C8.30274 16.9986 8.24216 18.1368 8.48311 19.21C9.25689 22.725 12.5462 25.2712 16.1012 25.2278C19.7788 25.1831 22.973 22.6844 23.6105 19.0704C23.9203 17.3089 23.7647 15.47 23.8088 13.6651C23.8033 13.61 23.7859 13.5566 23.7576 13.5087C23.7293 13.4607 23.6909 13.4193 23.6449 13.3873C23.0708 13.0228 22.9414 12.4564 22.9056 11.8507C22.8918 11.5173 22.9083 11.1813 22.9083 10.7721ZM32.706 33.0736C32.0534 33.0736 31.4007 33.056 30.7495 33.0736C29.5654 33.1115 28.6278 34.1156 28.8067 35.2295C29.1661 37.4802 29.5792 39.7215 29.9661 41.9682C30.0253 42.3083 30.1905 42.5563 30.5553 42.5563C30.945 42.5563 31.1061 42.3029 31.1667 41.9357C31.2998 41.0684 31.4466 40.203 31.6073 39.3394C31.7339 38.6618 32.0988 38.319 32.6757 38.3177C33.2526 38.3163 33.6175 38.6524 33.7414 39.3353C33.9011 40.2161 34.0512 41.0969 34.1971 41.9817C34.2536 42.3273 34.4325 42.5617 34.7947 42.559C35.1568 42.5563 35.3275 42.3232 35.3867 41.9763C35.7626 39.7621 36.1674 37.5521 36.524 35.3365C36.7222 34.1048 35.8287 33.1048 34.5606 33.0722C33.9424 33.06 33.3214 33.0722 32.706 33.0736ZM7.53996 6.78549C9.25827 6.78549 10.7838 6.79498 12.3066 6.77194C12.4443 6.77194 12.6178 6.6012 12.7197 6.46705C14.3898 4.22443 17.6584 4.21766 19.3203 6.46705C19.3838 6.57226 19.4757 6.65808 19.5858 6.71501C19.6959 6.77193 19.8199 6.79774 19.944 6.78956C21.2837 6.77465 22.6247 6.78956 23.9644 6.78143C24.0883 6.78143 24.2136 6.75432 24.3953 6.734C23.2457 4.65941 21.5852 3.31384 19.3272 2.72439C17.6075 2.27586 15.8465 2.39511 14.0951 2.50216C12.0739 2.62547 10.3584 3.47238 8.97739 4.92093C8.47484 5.4616 8.07694 6.09034 7.53996 6.79091V6.78549ZM16.009 11.3615C16.7045 11.3622 17.372 11.0917 17.8654 10.6092C18.3588 10.1267 18.6378 9.47145 18.6415 8.78691C18.6375 8.10529 18.3606 7.45269 17.8709 6.97071C17.3811 6.48872 16.7181 6.21621 16.0255 6.2123C15.3316 6.21874 14.6685 6.49509 14.181 6.98102C13.6934 7.46694 13.421 8.12298 13.4232 8.80588C13.4282 9.48029 13.7019 10.1258 14.1854 10.6037C14.669 11.0816 15.3237 11.3537 16.009 11.3615ZM12.8725 27.2292C12.7348 27.2983 12.6343 27.3471 12.5352 27.4081C11.6003 27.9786 11.5989 27.9799 11.9941 28.9773C12.4828 30.2131 12.9744 31.4475 13.5086 32.785C14.0662 32.0261 14.5701 31.3513 15.0548 30.6643C15.0721 30.6123 15.0772 30.5572 15.0698 30.503C15.0624 30.4488 15.0427 30.3969 15.0121 30.3513C14.3058 29.3106 13.5926 28.278 12.8725 27.2292ZM16.9067 30.5464L18.5589 32.7877L20.4452 27.9989L19.206 27.2089L16.9067 30.5464ZM8.25455 38.7648C8.46932 38.769 8.68278 38.731 8.88252 38.6532C9.08226 38.5755 9.2643 38.4594 9.41804 38.3117C9.57178 38.1641 9.69416 37.9878 9.77806 37.7932C9.86196 37.5986 9.90571 37.3895 9.90677 37.1781C9.90805 36.9667 9.86662 36.7571 9.7849 36.5616C9.70317 36.3662 9.58277 36.1886 9.4307 36.0393C9.27862 35.89 9.09791 35.772 8.89907 35.692C8.70023 35.6121 8.48723 35.5719 8.27245 35.5737C7.84776 35.5759 7.44049 35.7401 7.13623 36.0317C6.83197 36.3233 6.65442 36.7196 6.64088 37.1374C6.63797 37.3486 6.67743 37.5583 6.757 37.7545C6.83658 37.9507 6.9547 38.1295 7.10459 38.2807C7.25449 38.4318 7.43323 38.5524 7.63056 38.6355C7.82788 38.7186 8.03993 38.7625 8.25455 38.7648ZM25.6111 8.23676H20.0775V9.3208H25.6111V8.23676ZM6.4316 9.3208H11.9514V8.24489H6.4316V9.3208ZM16.0255 29.293L17.9007 26.5612H14.1557C14.756 27.4352 15.3756 28.3377 16.0282 29.2903L16.0255 29.293ZM6.77169 16.5554V13.6109C6.5803 13.6028 6.41232 13.6109 6.2471 13.5852C5.79687 13.5269 5.62064 13.7098 5.65644 14.157C5.68811 14.5432 5.65644 14.9348 5.67709 15.3223C5.72253 15.9308 6.11768 16.3752 6.77444 16.55L6.77169 16.5554ZM25.2655 16.5947C25.8754 16.4159 26.2141 16.069 26.3257 15.5608C26.3878 15.1956 26.4114 14.8251 26.3959 14.4551C26.4041 13.5703 26.3959 13.5703 25.4858 13.6001C25.4113 13.609 25.3377 13.6235 25.2655 13.6434V16.5947ZM16.075 39.1971C16.243 38.6984 16.517 38.2662 16.5046 37.842C16.4757 36.8528 16.3119 35.8677 16.1921 34.8812C16.1824 34.8067 16.0861 34.7457 16.031 34.6726C15.9704 34.7579 15.8699 34.8379 15.8561 34.9287C15.768 35.5615 15.7363 36.2051 15.6138 36.8257C15.4582 37.6496 15.6055 38.3868 16.0778 39.1917L16.075 39.1971ZM24.3953 10.8019V12.138H25.2325V10.8019H24.3953ZM7.67352 12.1569V10.8019H6.83502V12.1569H7.67352ZM16.0365 31.8391C15.3673 32.5465 15.2476 32.8419 15.6083 33.0858C15.7346 33.153 15.8753 33.1898 16.0189 33.1934C16.1624 33.1969 16.3048 33.167 16.4344 33.1061C16.8089 32.8717 16.7153 32.6264 16.0392 31.8378L16.0365 31.8391Z" fill="#0ABEB9" stroke="#0ABEB9"></path><path d="M16.0428 22.5236C15.3176 22.5186 14.6106 22.3 14.0128 21.896C13.415 21.4919 12.9539 20.921 12.6888 20.2566C12.5084 19.7851 12.6323 19.3935 13.0165 19.2227C13.4006 19.052 13.8068 19.2119 14.0064 19.6821C14.392 20.5859 15.0625 21.0981 16.0593 21.0927C17.0327 21.0927 17.6895 20.5778 18.0709 19.697C18.276 19.2254 18.6629 19.0561 19.054 19.2254C19.445 19.3948 19.573 19.7864 19.3954 20.2526C19.1303 20.9169 18.6694 21.4881 18.072 21.8928C17.4746 22.2974 16.768 22.5171 16.0428 22.5236Z" fill="#0ABEB9" stroke="#0ABEB9"></path><path d="M11.4424 15.4852C11.4424 15.2995 11.4314 15.1139 11.4424 14.9282C11.4741 14.4919 11.7302 14.2371 12.1597 14.2128C12.5893 14.1884 12.8771 14.4106 12.9225 14.8144C12.9745 15.2646 12.9745 15.7192 12.9225 16.1695C12.8743 16.576 12.5687 16.7792 12.1515 16.7562C12.0606 16.7582 11.9702 16.7424 11.8856 16.7099C11.8009 16.6773 11.7237 16.6285 11.6583 16.5664C11.5929 16.5043 11.5406 16.4301 11.5045 16.348C11.4684 16.2659 11.4492 16.1776 11.4479 16.0882C11.4376 15.8859 11.4376 15.6833 11.4479 15.4811L11.4424 15.4852Z" fill="#0ABEB9" stroke="#0ABEB9"></path><path d="M20.6237 15.4959C20.6347 15.6813 20.6347 15.8673 20.6237 16.0528C20.5741 16.4756 20.3373 16.7303 19.8926 16.7588C19.7936 16.7663 19.694 16.754 19.6 16.7224C19.5059 16.6909 19.4194 16.6408 19.3457 16.5752C19.272 16.5096 19.2127 16.43 19.1713 16.3411C19.1299 16.2522 19.1074 16.156 19.105 16.0582C19.0796 15.6873 19.0796 15.3152 19.105 14.9443C19.1076 14.7474 19.1887 14.5593 19.3309 14.4206C19.473 14.2819 19.6649 14.2038 19.8651 14.2031C20.0648 14.2038 20.2565 14.2809 20.3994 14.4183C20.5423 14.5557 20.6252 14.7424 20.6306 14.9389C20.6389 15.1232 20.6251 15.3102 20.6237 15.4959Z" fill="#0ABEB9" stroke="#0ABEB9"></path><path d="M16.7844 8.77199C16.7828 8.96764 16.7049 9.15521 16.5668 9.29593C16.4287 9.43666 16.2409 9.51977 16.0423 9.52811C15.8437 9.5279 15.6529 9.452 15.5099 9.31633C15.3669 9.18066 15.2829 8.99577 15.2754 8.80044C15.2745 8.60463 15.351 8.41616 15.4887 8.27482C15.6264 8.13349 15.8146 8.05035 16.0134 8.04297C16.2121 8.0448 16.4026 8.1213 16.546 8.25682C16.6893 8.39233 16.7746 8.57662 16.7844 8.77199Z" fill="#0ABEB9" stroke="#0ABEB9"></path><path d="M8.26236 37.9215C8.0638 37.9141 7.8762 37.83 7.74015 37.6875C7.6041 37.545 7.53053 37.3554 7.53538 37.1599C7.539 36.9647 7.62094 36.7787 7.76332 36.6427C7.90569 36.5066 8.09696 36.4315 8.2954 36.4336C8.49419 36.4397 8.6825 36.5228 8.81921 36.665C8.95593 36.8072 9.02995 36.9968 9.02513 37.1925C9.02009 37.388 8.93742 37.5738 8.79484 37.7101C8.65225 37.8464 8.46111 37.9223 8.26236 37.9215Z" fill="#0ABEB9" stroke="#0ABEB9"></path></svg> 