<svg width="40" height="40" viewBox="0 0 40 40" fill="none" xmlns="http://www.w3.org/2000/svg">
<path d="M15.6637 12H24.3363C24.5123 12 24.6811 11.9473 24.8056 11.8536C24.9301 11.7598 25 11.6326 25 11.5C25 11.3674 24.9301 11.2402 24.8056 11.1464C24.6811 11.0527 24.5123 11 24.3363 11H15.6637C15.4877 11 15.3189 11.0527 15.1944 11.1464C15.0699 11.2402 15 11.3674 15 11.5C15 11.6326 15.0699 11.7598 15.1944 11.8536C15.3189 11.9473 15.4877 12 15.6637 12Z" fill="#FFA200"/>
<path d="M12.7083 17H28.2917C28.4795 17 28.6597 16.9473 28.7925 16.8536C28.9254 16.7598 29 16.6326 29 16.5C29 16.3674 28.9254 16.2402 28.7925 16.1464C28.6597 16.0527 28.4795 16 28.2917 16H12.7083C12.5205 16 12.3403 16.0527 12.2075 16.1464C12.0746 16.2402 12 16.3674 12 16.5C12 16.6326 12.0746 16.7598 12.2075 16.8536C12.3403 16.9473 12.5205 17 12.7083 17Z" fill="#FFA200"/>
<path d="M12.7083 20H28.2917C28.4795 20 28.6597 19.9473 28.7925 19.8536C28.9254 19.7598 29 19.6326 29 19.5C29 19.3674 28.9254 19.2402 28.7925 19.1464C28.6597 19.0527 28.4795 19 28.2917 19H12.7083C12.5205 19 12.3403 19.0527 12.2075 19.1464C12.0746 19.2402 12 19.3674 12 19.5C12 19.6326 12.0746 19.7598 12.2075 19.8536C12.3403 19.9473 12.5205 20 12.7083 20Z" fill="#FFA200"/>
<path d="M39.2924 17.4646H34.3042V0.707965C34.3042 0.520201 34.2296 0.340128 34.0969 0.207359C33.9642 0.0745895 33.7842 1.23041e-08 33.5966 1.23041e-08H12.1208C12.0279 -1.73218e-05 11.9358 0.0182808 11.85 0.0538481C11.7641 0.0894155 11.6861 0.141556 11.6204 0.207293L5.92454 5.90612C5.85884 5.97188 5.80673 6.04993 5.77118 6.13584C5.73563 6.22175 5.71734 6.31382 5.71736 6.4068V17.4646H0.707594C0.519928 17.4646 0.33995 17.5392 0.20725 17.672C0.0745504 17.8048 0 17.9848 0 18.1726V39.292C0 39.4798 0.0745504 39.6599 0.20725 39.7926C0.33995 39.9254 0.519928 40 0.707594 40H39.2924C39.4801 40 39.6601 39.9254 39.7928 39.7926C39.9255 39.6599 40 39.4798 40 39.292V18.1726C40 17.9848 39.9255 17.8048 39.7928 17.672C39.6601 17.5392 39.4801 17.4646 39.2924 17.4646ZM14.4859 28.881C14.4299 28.8068 14.3598 28.7444 14.2797 28.6973C14.1995 28.6502 14.1109 28.6193 14.0189 28.6065C13.9268 28.5936 13.8332 28.5991 13.7432 28.6225C13.6533 28.6459 13.5688 28.6867 13.4947 28.7428L1.41519 37.8699V19.3671L19.6604 29.3533C19.7645 29.4104 19.8813 29.4402 20 29.4402C20.1187 29.4402 20.2355 29.4104 20.3396 29.3533L23.1361 27.8241L37.2019 38.5852H2.81849L14.35 29.8727C14.4994 29.7592 14.5977 29.591 14.6232 29.405C14.6486 29.219 14.5992 29.0305 14.4859 28.881ZM24.4946 27.0794L38.5848 19.3671V37.8591L24.4946 27.0794ZM36.5249 18.8806L34.3042 20.096V18.8806H36.5249ZM11.4132 2.41671V5.69883H10.1044C9.91678 5.69883 9.7368 5.77342 9.6041 5.90619C9.4714 6.03896 9.39685 6.21903 9.39685 6.4068C9.39685 6.59456 9.4714 6.77463 9.6041 6.9074C9.7368 7.04017 9.91678 7.11476 10.1044 7.11476H12.1208C12.3085 7.11476 12.4884 7.04017 12.6211 6.9074C12.7538 6.77463 12.8284 6.59456 12.8284 6.4068V1.41593H32.889V20.8708L20 27.9255L7.13255 20.8827V6.70018L11.4132 2.41671ZM5.71736 20.1079L3.4757 18.8811H5.71736V20.1079Z" fill="#FFA200"/>
</svg>
