<svg width="180" height="51" viewBox="0 0 180 51" fill="none" xmlns="http://www.w3.org/2000/svg">
<g clip-path="url(#clip0_1821_8177)">
<path d="M39.8916 25.5003L53.9148 11.5943C54.1911 11.321 54.4103 10.9965 54.5599 10.6391C54.7095 10.2818 54.7865 9.89866 54.7865 9.51175C54.7865 9.12484 54.7095 8.74174 54.5599 8.38438C54.4103 8.02703 54.1911 7.70245 53.9148 7.42925C51.1181 4.6595 47.7163 2.56465 43.9724 1.30676C40.2286 0.0488608 36.243 -0.338368 32.3241 0.175023C28.4051 0.688414 24.6578 2.08866 21.372 4.26746C18.0862 6.44626 15.35 9.3452 13.375 12.7401H20.6043C20.9472 12.3457 21.2902 11.9649 21.6743 11.5943C25.044 8.29509 29.4866 6.29039 34.2092 5.9379C38.9318 5.58541 43.6271 6.90808 47.4571 9.66985L33.6088 23.4025C33.3326 23.6754 33.1134 23.9997 32.9639 24.3567C32.8143 24.7138 32.7373 25.0966 32.7373 25.4833C32.7373 25.8699 32.8143 26.2527 32.9639 26.6098C33.1134 26.9668 33.3326 27.2911 33.6088 27.5641L47.4708 41.3001C43.649 44.0832 38.949 45.4191 34.2203 45.0661C29.4917 44.7132 25.0464 42.6947 21.688 39.3757C19.0562 36.7834 17.2191 33.505 16.3895 29.9203H10.333C11.1602 34.5158 13.2412 38.7989 16.3503 42.3047C19.4594 45.8105 23.4778 48.4049 27.9691 49.8065C32.4605 51.2081 37.2533 51.3632 41.8273 50.2549C46.4013 49.1467 50.5817 46.8176 53.9148 43.5203C54.191 43.2473 54.4102 42.923 54.5597 42.566C54.7093 42.2089 54.7863 41.8261 54.7863 41.4395C54.7863 41.0528 54.7093 40.67 54.5597 40.3129C54.4102 39.9559 54.191 39.6316 53.9148 39.3587L39.8916 25.5003Z" fill="#1A345C"/>
<path d="M27.0555 14.212H5.83044C5.67787 14.2117 5.52546 14.2219 5.37432 14.2426C5.27485 14.2585 5.17637 14.2801 5.07939 14.3072V14.3072C4.98496 14.3293 4.89215 14.3577 4.8016 14.3922L4.66442 14.4466C4.57525 14.484 4.48609 14.5282 4.40035 14.5724C4.31461 14.6166 4.23231 14.6676 4.15 14.7186C4.06769 14.7696 4.02997 14.8036 3.97167 14.8512C3.91337 14.8988 3.90994 14.8988 3.87564 14.926L3.7076 15.0824C3.6506 15.1349 3.59785 15.1917 3.54984 15.2524C3.5207 15.2817 3.4943 15.3135 3.47096 15.3476C3.42295 15.402 3.3818 15.4632 3.33721 15.5244C3.29263 15.5856 3.23433 15.6842 3.18975 15.7692C3.14516 15.8542 3.10058 15.9426 3.06286 16.031L3.00798 16.167C2.97369 16.2554 2.94968 16.3472 2.92225 16.4424C2.89824 16.5376 2.87766 16.6328 2.86052 16.7348C2.83678 16.8844 2.82531 17.0356 2.82622 17.187C2.82622 17.9769 3.14274 18.7345 3.70614 19.293C4.26954 19.8516 5.03367 20.1654 5.83044 20.1654H27.0555C27.208 20.1656 27.3604 20.1554 27.5116 20.1348C27.611 20.1144 27.7071 20.0974 27.8031 20.0702C27.8973 20.0475 27.9901 20.0191 28.0809 19.9852L28.218 19.9308C28.3072 19.8934 28.3964 19.8492 28.4821 19.805C28.5679 19.7608 28.6467 19.7098 28.729 19.6588C28.8242 19.5946 28.9157 19.5253 29.0034 19.4514C29.0617 19.4038 29.12 19.3494 29.1749 19.295C29.2299 19.2416 29.2814 19.1848 29.3292 19.125C29.4067 19.0397 29.4778 18.9487 29.5418 18.853C29.5933 18.7748 29.6447 18.6932 29.6893 18.6082C29.7339 18.5232 29.7785 18.4348 29.8162 18.3464C29.8539 18.258 29.8539 18.258 29.8711 18.2104C29.9059 18.1206 29.9345 18.0286 29.9568 17.935V17.935C29.9838 17.8399 30.0055 17.7434 30.0219 17.646C30.0426 17.4961 30.0529 17.345 30.0528 17.1938C30.0537 16.4045 29.7386 15.647 29.1765 15.0879C28.6145 14.5288 27.8516 14.2138 27.0555 14.212V14.212Z" fill="#FFA200"/>
<path d="M24.2503 22.8718H3.00813C2.21136 22.8718 1.44722 23.1856 0.883822 23.7442C0.320421 24.3027 0.00390625 25.0603 0.00390625 25.8502C0.00390625 26.6401 0.320421 27.3977 0.883822 27.9563C1.44722 28.5148 2.21136 28.8286 3.00813 28.8286H24.2503C25.0471 28.8286 25.8112 28.5148 26.3746 27.9563C26.938 27.3977 27.2545 26.6401 27.2545 25.8502C27.2545 25.0603 26.938 24.3027 26.3746 23.7442C25.8112 23.1856 25.0471 22.8718 24.2503 22.8718Z" fill="#FFA200"/>
<path d="M75.0781 18.8338C75.5904 19.4697 75.8524 20.2683 75.8155 21.0812C75.8412 21.6034 75.7351 22.1237 75.507 22.5951C75.2789 23.0665 74.9358 23.474 74.5088 23.7808C73.6354 24.4087 72.3471 24.7226 70.6438 24.7226H64.3096V11.0682H70.2494C71.7835 11.0682 72.9736 11.3742 73.8195 11.9862C74.2315 12.2796 74.5632 12.67 74.7848 13.1224C75.0063 13.5747 75.1107 14.0747 75.0884 14.577C75.109 15.26 74.9123 15.9321 74.526 16.498C74.1397 17.0324 73.6028 17.4416 72.9827 17.6744C73.7924 17.8174 74.5303 18.2257 75.0781 18.8338V18.8338ZM65.7637 12.2582V17.2086H70.15C71.2657 17.2086 72.1253 16.9978 72.7289 16.5762C73.0237 16.3693 73.261 16.0919 73.4186 15.7697C73.5763 15.4475 73.6493 15.0911 73.6309 14.7334C73.6493 14.3758 73.5763 14.0194 73.4186 13.6972C73.261 13.375 73.0237 13.0976 72.7289 12.8906C72.1253 12.469 71.2657 12.2582 70.15 12.2582H65.7637ZM73.4148 22.8968C73.7307 22.6825 73.9843 22.3899 74.1504 22.048C74.3165 21.7061 74.3892 21.3271 74.3614 20.9486C74.3614 19.2486 73.1153 18.3986 70.6232 18.3986H65.7637V23.5224H70.6232C71.8544 23.5224 72.7872 23.315 73.4148 22.8968Z" fill="#1A345C"/>
<path d="M87.3899 21.0799H79.7181L78.0686 24.7213H76.5527L82.8458 11.0805H84.2828L90.5758 24.7213H89.0429L87.3899 21.0799ZM86.8583 19.9103L83.5557 12.5799L80.2497 19.8967L86.8583 19.9103Z" fill="#1A345C"/>
<path d="M103.961 11.067V24.7078H102.761L93.9097 13.6408V24.7078H92.4521V11.067H93.6525L102.542 22.1374V11.067H103.961Z" fill="#1A345C"/>
<path d="M112.014 18.2988L109.202 21.1242V24.7078H107.744V11.067H109.202V19.312L117.288 11.067H118.959L112.995 17.2448L119.37 24.7248H117.631L112.014 18.2988Z" fill="#1A345C"/>
<path d="M126.547 13.6V17.204H132.923V19.737H126.547V24.7078H123.361V11.067H133.749V13.6H126.547Z" fill="#1A345C"/>
<path d="M135.615 11.067H138.801V24.7078H135.615V11.067Z" fill="#1A345C"/>
<path d="M150.554 24.7078L147.883 20.91H144.951V24.7078H141.765V11.067H147.725C148.814 11.0435 149.895 11.2498 150.897 11.6722C151.756 12.0266 152.484 12.6329 152.985 13.4096C153.486 14.1863 153.735 15.0962 153.699 16.0174C153.736 16.938 153.483 17.847 152.975 18.6188C152.468 19.3905 151.731 19.9868 150.866 20.3252L153.953 24.7078H150.554ZM149.731 14.2562C149.231 13.8437 148.502 13.6385 147.547 13.6408H144.951V18.4008H147.547C148.504 18.4008 149.231 18.19 149.731 17.7752C149.983 17.5586 150.18 17.2879 150.31 16.9838C150.44 16.6798 150.497 16.3504 150.479 16.0208C150.5 15.6895 150.443 15.3579 150.313 15.0519C150.183 14.7458 149.984 14.4735 149.731 14.2562V14.2562Z" fill="#1A345C"/>
<path d="M168.483 24.7078V16.524L164.412 23.2662H162.975L158.946 16.7008V24.7078H155.955V11.067H158.589L163.733 19.5466L168.809 11.067H171.425L171.473 24.7078H168.483Z" fill="#1A345C"/>
<path d="M88.3574 35.8836C88.7252 36.0844 89.0274 36.3852 89.2284 36.7506C89.4358 37.1454 89.5441 37.5839 89.5441 38.029C89.5441 38.4741 89.4358 38.9127 89.2284 39.3074C89.0265 39.6731 88.7246 39.9748 88.3574 40.1778C87.9789 40.3895 87.5504 40.4974 87.1159 40.4906C86.7334 40.4966 86.3553 40.409 86.015 40.2356C85.6901 40.0625 85.4186 39.8052 85.2297 39.491V40.46H84.5986V33.626H85.2605V36.5296C85.4512 36.2267 85.7215 35.9811 86.0424 35.819C86.375 35.6525 86.7434 35.5685 87.1159 35.5742C87.5499 35.568 87.9779 35.6747 88.3574 35.8836V35.8836ZM87.9973 39.678C88.2763 39.5187 88.5026 39.2825 88.6489 38.998C88.8043 38.6934 88.8854 38.3568 88.8854 38.0154C88.8854 37.674 88.8043 37.3374 88.6489 37.0328C88.5036 36.7477 88.277 36.5113 87.9973 36.3528C87.7134 36.1957 87.393 36.1148 87.0679 36.1182C86.7414 36.1131 86.4195 36.1941 86.135 36.3528C85.8571 36.5124 85.6319 36.7487 85.4869 37.0328C85.3314 37.3374 85.2504 37.674 85.2504 38.0154C85.2504 38.3568 85.3314 38.6934 85.4869 38.998C85.6328 39.2815 85.8578 39.5176 86.135 39.678C86.4195 39.8368 86.7414 39.9178 87.0679 39.9126C87.393 39.9161 87.7134 39.8352 87.9973 39.678V39.678Z" fill="#1A345C"/>
<path d="M97.2535 35.6117L94.8117 41.0245C94.6707 41.3995 94.4344 41.7321 94.1258 41.9901C93.8536 42.1842 93.5247 42.2846 93.1895 42.2757C92.965 42.2778 92.742 42.2398 92.5311 42.1635C92.3308 42.0923 92.15 41.9759 92.0029 41.8235L92.3082 41.3373C92.423 41.4554 92.5611 41.549 92.7139 41.6122C92.8667 41.6753 93.0309 41.7067 93.1964 41.7045C93.4029 41.7101 93.605 41.6453 93.7691 41.5209C93.9625 41.349 94.1128 41.1348 94.2081 40.8953L94.4241 40.4261L92.2533 35.6117H92.9392L94.7774 39.7189L96.6122 35.6117H97.2535Z" fill="#1A345C"/>
<path d="M110.103 40.46L108.618 38.3928C108.445 38.4107 108.271 38.4198 108.097 38.42H106.355V40.46H105.669V34H108.1C108.8 33.9597 109.491 34.1683 110.048 34.5882C110.283 34.7868 110.468 35.0359 110.591 35.3163C110.713 35.5968 110.769 35.9013 110.755 36.2066C110.77 36.6618 110.635 37.1094 110.371 37.4816C110.093 37.8404 109.708 38.1024 109.27 38.2296L110.858 40.4362L110.103 40.46ZM109.555 37.417C109.715 37.2624 109.843 37.0774 109.93 36.873C110.017 36.6686 110.062 36.4489 110.062 36.227C110.062 36.0051 110.017 35.7855 109.93 35.5811C109.843 35.3767 109.715 35.1917 109.555 35.037C109.127 34.7317 108.606 34.5838 108.08 34.6188H106.365V37.8454H108.08C108.609 37.8744 109.132 37.7166 109.555 37.4V37.417Z" fill="#1A345C"/>
<path d="M114.672 34.0001H115.358V40.4601H114.672V34.0001Z" fill="#1A345C"/>
<path d="M125.124 34.0001V40.4601H124.558L120.374 35.2241V40.4601H119.688V34.0001H120.254L124.438 39.2225V34.0001H125.124Z" fill="#1A345C"/>
<path d="M130.153 34.5985V37.1281H133.51V37.7163H130.153V40.4363H129.467V34.0001H133.925V34.5883L130.153 34.5985Z" fill="#1A345C"/>
<path d="M137.522 34.0001H138.208V40.4601H137.522V34.0001Z" fill="#1A345C"/>
<path d="M147.975 34.0001V40.4601H147.409L143.236 35.2241V40.4601H142.55V34.0001H143.116L147.303 39.2225V34.0001H147.975Z" fill="#1A345C"/>
<path d="M176.665 5.58661C177.29 5.58661 177.856 5.7301 178.361 6.01707C178.873 6.30404 179.274 6.70019 179.564 7.20551C179.855 7.70459 180 8.25982 180 8.8712C180 9.48257 179.852 10.044 179.555 10.5556C179.258 11.0609 178.854 11.4602 178.342 11.7534C177.83 12.0466 177.265 12.1932 176.646 12.1932C176.027 12.1932 175.462 12.0466 174.95 11.7534C174.445 11.4602 174.044 11.0609 173.747 10.5556C173.457 10.0503 173.312 9.49505 173.312 8.88991C173.312 8.28477 173.457 7.72954 173.747 7.22422C174.044 6.7189 174.448 6.31964 174.96 6.02642C175.472 5.73321 176.04 5.58661 176.665 5.58661ZM176.646 11.6785C177.17 11.6785 177.644 11.5538 178.067 11.3042C178.497 11.0547 178.835 10.7178 179.081 10.2936C179.327 9.86312 179.45 9.38899 179.45 8.8712C179.45 8.3534 179.33 7.88551 179.09 7.46753C178.85 7.04331 178.519 6.70954 178.096 6.46624C177.673 6.22294 177.196 6.10129 176.665 6.10129C176.135 6.10129 175.655 6.22606 175.225 6.4756C174.796 6.7189 174.458 7.05266 174.212 7.47688C173.972 7.9011 173.852 8.37211 173.852 8.88991C173.852 9.40771 173.972 9.87872 174.212 10.3029C174.458 10.7272 174.793 11.064 175.216 11.3136C175.645 11.5569 176.122 11.6785 176.646 11.6785ZM178.38 8.32844C178.38 8.60294 178.314 8.83688 178.181 9.03028C178.055 9.22367 177.872 9.37028 177.632 9.47009L178.465 10.7334H177.65L176.912 9.61046H176.807H176.068V10.7334H175.254V7.04642H176.807C177.294 7.04642 177.676 7.16184 177.954 7.39266C178.238 7.62349 178.38 7.93542 178.38 8.32844ZM176.76 8.98349C177.025 8.98349 177.23 8.92734 177.376 8.81505C177.521 8.69652 177.594 8.53431 177.594 8.32844C177.594 8.12257 177.521 7.96349 177.376 7.8512C177.23 7.7389 177.025 7.68276 176.76 7.68276H176.059V8.98349H176.76Z" fill="#1A345C"/>
</g>
<defs>
<clipPath id="clip0_1821_8177">
<rect width="180" height="51" fill="white"/>
</clipPath>
</defs>
</svg>
