<svg width="70" height="70" viewBox="0 0 70 70" fill="none" xmlns="http://www.w3.org/2000/svg">
<g clip-path="url(#clip0)">
<path d="M41.1059 29.2739C38.2101 26.3684 34.5178 24.3868 30.4959 23.5797C26.4739 22.7727 22.3029 23.1764 18.5104 24.7398C14.7179 26.3033 11.4742 28.9562 9.18942 32.3631C6.90466 35.7701 5.68149 39.7781 5.67458 43.8802C5.66768 47.9823 6.87735 51.9944 9.15063 55.409C11.4239 58.8236 14.6587 61.4875 18.4459 63.0637C22.2331 64.6398 26.4027 65.0576 30.4274 64.2641C34.452 63.4706 38.151 61.5014 41.0565 58.6057L26.4153 43.9151L41.1059 29.2739Z" stroke="#FFA200" stroke-width="2" stroke-linecap="round" stroke-dasharray="1 4"/>
<path d="M64.2513 35.3932L43.456 22.4886L45.0181 19.7721L46.017 20.3917C46.2179 20.5161 46.4582 20.5526 46.685 20.4932C46.9119 20.4338 47.1068 20.2834 47.2269 20.0749L49.1738 16.6904C49.2936 16.4817 49.3288 16.2321 49.2716 15.9965C49.2144 15.7609 49.0696 15.5585 48.8689 15.4337L35.9543 7.42114C35.7534 7.29671 35.5131 7.26018 35.2863 7.31957C35.0594 7.37895 34.8645 7.5294 34.7444 7.73789L32.7982 11.1239C32.6782 11.3325 32.6429 11.5821 32.7001 11.8178C32.7573 12.0535 32.9023 12.2559 33.1031 12.3806L43.5033 18.8328L37.0089 30.1302L29.1204 25.2382L33.8909 16.9434C34.0072 16.7349 34.0397 16.4872 33.9815 16.254C33.9232 16.0208 33.779 15.8208 33.5799 15.6973C33.3807 15.5737 33.1428 15.5366 32.9175 15.5939C32.6922 15.6512 32.4977 15.7983 32.3761 16.0034L27.6048 24.2982L26.6053 23.6779C26.4043 23.5535 26.1641 23.517 25.9372 23.5763C25.7104 23.6357 25.5155 23.7862 25.3953 23.9947L23.4583 27.3645C23.3383 27.5732 23.3031 27.8228 23.3603 28.0585C23.4174 28.2941 23.5624 28.4966 23.7633 28.6212L36.6779 36.633C36.8787 36.7577 37.1191 36.7943 37.346 36.7349C37.5729 36.6755 37.7678 36.5249 37.8878 36.3163L39.8248 32.9486C39.8843 32.8452 39.9237 32.7307 39.9406 32.6115C39.9575 32.4923 39.9516 32.3708 39.9233 32.2539C39.8949 32.1371 39.8447 32.0272 39.7755 31.9305C39.7063 31.8338 39.6194 31.7522 39.5198 31.6904L38.5203 31.0701L42.551 24.065L63.3463 36.9696C63.4651 37.0432 63.5687 37.1405 63.6513 37.2557C63.7338 37.371 63.7937 37.502 63.8276 37.6413C63.8614 37.7806 63.8685 37.9254 63.8484 38.0676C63.8283 38.2097 63.7815 38.3464 63.7106 38.4697C63.6396 38.5931 63.546 38.7007 63.4351 38.7865C63.3241 38.8722 63.198 38.9345 63.0639 38.9696C62.9297 39.0047 62.7903 39.0121 62.6534 38.9912C62.5166 38.9704 62.385 38.9217 62.2663 38.8481L44.0454 27.5397C43.9459 27.4761 43.8352 27.4335 43.7197 27.4147C43.6042 27.3958 43.4863 27.401 43.3728 27.4298C43.2592 27.4587 43.1524 27.5107 43.0583 27.5829C42.9643 27.655 42.885 27.7458 42.8251 27.85C42.7651 27.9543 42.7257 28.0698 42.7091 28.19C42.6926 28.3102 42.6991 28.4326 42.7285 28.5501C42.7578 28.6676 42.8093 28.7779 42.8801 28.8746C42.9508 28.9713 43.0393 29.0524 43.1404 29.1132L61.362 40.4193C62.0037 40.8174 62.7714 40.9344 63.4961 40.7446C64.2208 40.5547 64.8433 40.0736 65.2265 39.4071C65.6097 38.7406 65.7224 37.9433 65.5396 37.1905C65.3569 36.4378 64.8937 35.7912 64.252 35.3932H64.2513ZM35.8068 9.46607L47.2058 16.5386L46.1638 18.3497L34.7677 11.2771L35.8068 9.46607ZM36.8247 34.5896L25.4257 27.517L26.4577 25.7228L27.4566 26.3424L37.856 32.7947L36.8247 34.5896Z" fill="white"/>
<path d="M45.7803 46.4225H43.9725V46.0475C43.9706 44.2784 43.2898 42.5824 42.0793 41.3315C40.8688 40.0805 39.2276 39.3769 37.5158 39.375H25.1901C23.4784 39.3771 21.8374 40.0808 20.627 41.3317C19.4167 42.5826 18.736 44.2786 18.7341 46.0475V46.4225H16.9256C16.6911 46.4225 16.4662 46.5187 16.3004 46.6901C16.1346 46.8614 16.0415 47.0938 16.0415 47.3361V51.5864C16.0415 51.8287 16.1346 52.0611 16.3004 52.2324C16.4662 52.4037 16.6911 52.5 16.9256 52.5H45.7824C46.0169 52.5 46.2418 52.4037 46.4076 52.2324C46.5734 52.0611 46.6665 51.8287 46.6665 51.5864V47.3361C46.6665 47.2159 46.6436 47.0969 46.599 46.986C46.5544 46.875 46.4891 46.7742 46.4068 46.6893C46.3245 46.6044 46.2268 46.5372 46.1193 46.4914C46.0118 46.4456 45.8966 46.4222 45.7803 46.4225ZM44.8962 50.6727H17.8076V48.2497H25.5452C25.7796 48.2497 26.0045 48.1535 26.1703 47.9821C26.3361 47.8108 26.4292 47.5784 26.4292 47.3361C26.4292 47.0938 26.3361 46.8614 26.1703 46.6901C26.0045 46.5187 25.7796 46.4225 25.5452 46.4225H20.5023V46.0475C20.5036 44.763 20.9979 43.5315 21.8767 42.6232C22.7556 41.7148 23.9472 41.2038 25.1901 41.2023H37.5158C38.7589 41.2036 39.9506 41.7145 40.8296 42.6229C41.7086 43.5313 42.203 44.7629 42.2043 46.0475V46.4225H29.7004C29.4659 46.4225 29.241 46.5187 29.0752 46.6901C28.9094 46.8614 28.8163 47.0938 28.8163 47.3361C28.8163 47.5784 28.9094 47.8108 29.0752 47.9821C29.241 48.1535 29.4659 48.2497 29.7004 48.2497H44.8962V50.6727Z" fill="white"/>
</g>
<defs>
<clipPath id="clip0">
<rect width="70" height="70" fill="white"/>
</clipPath>
</defs>
</svg>
