<svg width="12" height="12" viewBox="0 0 12 12" fill="none" xmlns="http://www.w3.org/2000/svg">
<path fill-rule="evenodd" clip-rule="evenodd" d="M5.99986 12C6.22714 12 6.44511 11.921 6.60583 11.7804C6.76654 11.6397 6.85683 11.449 6.85683 11.2501V2.56155L10.5349 5.7817C10.6146 5.85142 10.7092 5.90673 10.8133 5.94446C10.9174 5.9822 11.029 6.00162 11.1417 6.00162C11.2543 6.00162 11.3659 5.9822 11.47 5.94446C11.5741 5.90673 11.6687 5.85142 11.7484 5.7817C11.8281 5.71197 11.8913 5.6292 11.9344 5.5381C11.9775 5.447 11.9997 5.34936 11.9997 5.25075C11.9997 5.15215 11.9775 5.05451 11.9344 4.96341C11.8913 4.87231 11.8281 4.78954 11.7484 4.71981L6.60659 0.220316C6.52699 0.150479 6.43242 0.0950707 6.3283 0.0572652C6.22419 0.0194598 6.11258 0 5.99986 0C5.88714 0 5.77552 0.0194598 5.67141 0.0572652C5.5673 0.0950707 5.47273 0.150479 5.39312 0.220316L0.251317 4.71981C0.0904017 4.86063 0 5.05161 0 5.25075C0 5.4499 0.0904017 5.64088 0.251317 5.7817C0.412233 5.92251 0.630482 6.00162 0.858051 6.00162C1.08562 6.00162 1.30387 5.92251 1.46478 5.7817L5.14289 2.56155V11.2501C5.14289 11.449 5.23318 11.6397 5.39389 11.7804C5.5546 11.921 5.77258 12 5.99986 12Z" fill="#FFA200"/>
</svg>
