<svg width="96" height="141" viewBox="0 0 96 141" fill="none" xmlns="http://www.w3.org/2000/svg">
<path d="M85.1354 104.494C62.1327 132.473 8.48815 140.596 -0.424316 140.897L1.78258 133.777C7.29982 133.075 90.6526 120.54 89.3794 75.4124C88.7004 49.8404 63.8303 34.4972 43.1195 26.0734C32.5943 21.8616 22.5783 19.0537 15.9576 17.5494L14.6844 17.2486L23.6818 28.5805L23.3423 32.9929L19.268 33.3941L3.81972 14.0395V13.9393L3.56507 13.839C2.97091 13.2373 2.63139 12.3347 2.63139 11.4322C2.63139 9.92796 3.48019 8.72457 4.66852 8.52401L26.2282 -0.401131L29.7083 2.20621L28.2653 6.3178L17.7401 10.7302L19.268 11.1314C28.1805 13.3376 36.7534 16.0452 44.6473 19.2542C52.1168 22.2627 58.9921 25.6723 64.8489 29.3828C84.711 41.7175 95.0664 57.161 95.5757 75.3121C95.7454 85.8418 92.2653 95.7698 85.1354 104.494Z" fill="#00315D"/>
</svg>
