<?xml version="1.0" encoding="UTF-8"?>
<!DOCTYPE svg PUBLIC "-//W3C//DTD SVG 1.1//EN" "http://www.w3.org/Graphics/SVG/1.1/DTD/svg11.dtd">
<!-- Creator: CorelDRAW 2019 (64-Bit) -->
<svg xmlns="http://www.w3.org/2000/svg" xml:space="preserve" width="48px" height="48px" version="1.1" style="shape-rendering:geometricPrecision; text-rendering:geometricPrecision; image-rendering:optimizeQuality; fill-rule:evenodd; clip-rule:evenodd"
viewBox="0 0 48 48"
 xmlns:xlink="http://www.w3.org/1999/xlink"
 xmlns:xodm="http://www.corel.com/coreldraw/odm/2003">
 <defs>
  <style type="text/css">
   <![CDATA[
    .fil0 {fill:#0077FF}
    .fil1 {fill:white}
   ]]>
  </style>
 </defs>
 <g id="Слой_x0020_1">
  <metadata id="CorelCorpID_0Corel-Layer"/>
  <g id="_804475488">
   <path class="fil0" d="M0 23.04c0,-10.86 0,-16.29 3.37,-19.67 3.38,-3.37 8.81,-3.37 19.67,-3.37l1.92 0c10.86,0 16.29,0 19.67,3.37 3.37,3.38 3.37,8.81 3.37,19.67l0 1.92c0,10.86 0,16.29 -3.37,19.67 -3.38,3.37 -8.81,3.37 -19.67,3.37l-1.92 0c-10.86,0 -16.29,0 -19.67,-3.37 -3.37,-3.38 -3.37,-8.81 -3.37,-19.67l0 -1.92z"/>
   <path class="fil1" d="M25.54 34.58c-10.94,0 -17.18,-7.5 -17.44,-19.98l5.48 0c0.18,9.16 4.22,13.04 7.42,13.84l0 -13.84 5.16 0 0 7.9c3.16,-0.34 6.48,-3.94 7.6,-7.9l5.16 0c-0.86,4.88 -4.46,8.48 -7.02,9.96 2.56,1.2 6.66,4.34 8.22,10.02l-5.68 0c-1.22,-3.8 -4.26,-6.74 -8.28,-7.14l0 7.14 -0.62 0z"/>
  </g>
 </g>
</svg>
