<svg width="32" height="30" viewBox="0 0 32 30" fill="none" xmlns="http://www.w3.org/2000/svg">
<g clip-path="url(#clip0_1546_773)">
<path d="M27 0.999832H13C11.6744 1.00142 10.4036 1.52871 9.46622 2.46605C8.52888 3.40339 8.00159 4.67424 8 5.99983V17.9998C8.00159 19.3254 8.52888 20.5963 9.46622 21.5336C10.4036 22.471 11.6744 22.9982 13 22.9998H27C28.3256 22.9982 29.5964 22.471 30.5338 21.5336C31.4711 20.5963 31.9984 19.3254 32 17.9998V5.99983C31.9984 4.67424 31.4711 3.40339 30.5338 2.46605C29.5964 1.52871 28.3256 1.00142 27 0.999832ZM13 2.99983H27C27.5988 3.00101 28.1835 3.18135 28.679 3.51764C29.1744 3.85393 29.5579 4.33078 29.78 4.88683L22.122 12.5458C21.5584 13.1071 20.7954 13.4223 20 13.4223C19.2046 13.4223 18.4416 13.1071 17.878 12.5458L10.22 4.88683C10.4421 4.33078 10.8256 3.85393 11.321 3.51764C11.8165 3.18135 12.4012 3.00101 13 2.99983ZM27 20.9998H13C12.2044 20.9998 11.4413 20.6838 10.8787 20.1212C10.3161 19.5585 10 18.7955 10 17.9998V7.49983L16.464 13.9598C17.4026 14.8961 18.6743 15.4219 20 15.4219C21.3257 15.4219 22.5974 14.8961 23.536 13.9598L30 7.49983V17.9998C30 18.7955 29.6839 19.5585 29.1213 20.1212C28.5587 20.6838 27.7956 20.9998 27 20.9998Z" fill="#AFAFAF"/>
</g>
<path d="M9.49998 17.2572C8.85861 17.2572 8.23164 17.4474 7.69836 17.8037C7.16508 18.16 6.74943 18.6665 6.50399 19.2591C6.25855 19.8516 6.19433 20.5036 6.31945 21.1327C6.44458 21.7617 6.75343 22.3396 7.20695 22.7931L7.62817 22.3718L7.20695 22.7931C7.66047 23.2466 8.23829 23.5554 8.86733 23.6806C9.49638 23.8057 10.1484 23.7415 10.741 23.496C11.3335 23.2506 11.84 22.8349 12.1963 22.3017C12.5526 21.7684 12.7428 21.1414 12.7428 20.5C12.7428 19.64 12.4012 18.8152 11.793 18.207C11.1849 17.5989 10.36 17.2572 9.49998 17.2572ZM9.49998 21.2279C9.35602 21.2279 9.2153 21.1852 9.0956 21.1052C8.9759 21.0253 8.88261 20.9116 8.82752 20.7786C8.77243 20.6456 8.75802 20.4992 8.7861 20.358C8.81419 20.2168 8.88351 20.0872 8.9853 19.9854C9.0871 19.8836 9.21679 19.8142 9.35798 19.7862C9.49917 19.7581 9.64552 19.7725 9.77852 19.8276C9.91152 19.8827 10.0252 19.976 10.1052 20.0957C10.1852 20.2154 10.2278 20.3561 10.2278 20.5C10.2278 20.6931 10.1512 20.8782 10.0147 21.0147C9.87816 21.1512 9.69302 21.2279 9.49998 21.2279Z" fill="#AFAFAF" stroke="#444444" stroke-width="1.19141"/>
<mask id="path-3-outside-1_1546_773" maskUnits="userSpaceOnUse" x="0.354919" y="10.5586" width="18" height="20" fill="black">
<rect fill="white" x="0.354919" y="10.5586" width="18" height="20"/>
<path d="M15.6506 21.7574L15.3568 21.588C15.4891 20.8682 15.4891 20.1304 15.3568 19.4107L15.6506 19.2413C15.8766 19.1109 16.0746 18.9373 16.2335 18.7304C16.3924 18.5235 16.5089 18.2874 16.5765 18.0354C16.6441 17.7834 16.6614 17.5206 16.6275 17.262C16.5935 17.0034 16.5089 16.7539 16.3786 16.528C16.2482 16.302 16.0746 16.1039 15.8677 15.9451C15.6608 15.7862 15.4246 15.6696 15.1727 15.602C14.9207 15.5344 14.6579 15.5171 14.3993 15.5511C14.1406 15.5851 13.8912 15.6697 13.6653 15.8L13.3708 15.9701C12.8146 15.4949 12.1754 15.1265 11.4853 14.8834V14.5439C11.4853 14.0174 11.2762 13.5124 10.9038 13.1401C10.5315 12.7678 10.0265 12.5586 9.49998 12.5586C8.97344 12.5586 8.46845 12.7678 8.09613 13.1401C7.7238 13.5124 7.51463 14.0174 7.51463 14.5439V14.8834C6.82465 15.1274 6.18567 15.4966 5.62987 15.9727L5.33405 15.8013C4.87771 15.5381 4.33548 15.4669 3.82663 15.6034C3.31779 15.7399 2.88401 16.073 2.62074 16.5293C2.35747 16.9856 2.28626 17.5279 2.42278 18.0367C2.5593 18.5456 2.89236 18.9793 3.3487 19.2426L3.64253 19.412C3.51025 20.1318 3.51025 20.8696 3.64253 21.5893L3.3487 21.7587C2.89236 22.022 2.5593 22.4558 2.42278 22.9646C2.28626 23.4734 2.35747 24.0157 2.62074 24.472C2.88401 24.9284 3.31779 25.2614 3.82663 25.398C4.33548 25.5345 4.87771 25.4633 5.33405 25.2L5.62855 25.0299C6.18495 25.5052 6.82438 25.8736 7.51463 26.1166V26.4561C7.51463 26.9826 7.7238 27.4876 8.09613 27.8599C8.46845 28.2322 8.97344 28.4414 9.49998 28.4414C10.0265 28.4414 10.5315 28.2322 10.9038 27.8599C11.2762 27.4876 11.4853 26.9826 11.4853 26.4561V26.1166C12.1753 25.8726 12.8143 25.5033 13.3701 25.0273L13.6659 25.198C14.1223 25.4613 14.6645 25.5325 15.1733 25.396C15.6822 25.2594 16.116 24.9264 16.3792 24.47C16.6425 24.0137 16.7137 23.4715 16.5772 22.9626C16.4407 22.4538 16.1076 22.02 15.6513 21.7567L15.6506 21.7574ZM13.9644 19.2585C14.1885 20.0705 14.1885 20.9281 13.9644 21.7402C13.9252 21.8815 13.9342 22.0319 13.9897 22.1676C14.0453 22.3033 14.1444 22.4167 14.2714 22.49L14.9888 22.9043C15.1409 22.992 15.2519 23.1366 15.2974 23.3062C15.3429 23.4758 15.3191 23.6565 15.2314 23.8086C15.1436 23.9607 14.999 24.0717 14.8294 24.1172C14.6598 24.1626 14.4791 24.1389 14.327 24.0511L13.6083 23.6355C13.4812 23.5619 13.3332 23.5327 13.1876 23.5524C13.042 23.5722 12.9072 23.6399 12.8043 23.7447C12.2152 24.3461 11.4731 24.7751 10.6581 24.9856C10.5158 25.0221 10.3898 25.105 10.2998 25.2211C10.2098 25.3372 10.161 25.48 10.1611 25.6268V26.4561C10.1611 26.6316 10.0914 26.7999 9.96727 26.924C9.84316 27.0481 9.67484 27.1178 9.49932 27.1178C9.32381 27.1178 9.15548 27.0481 9.03137 26.924C8.90726 26.7999 8.83754 26.6316 8.83754 26.4561V25.6275C8.83761 25.4806 8.78881 25.3379 8.69883 25.2218C8.60885 25.1057 8.4828 25.0228 8.34054 24.9862C7.52545 24.7749 6.78358 24.3449 6.19503 23.7427C6.09214 23.6379 5.95728 23.5702 5.8117 23.5504C5.66612 23.5307 5.5181 23.5599 5.39097 23.6335L4.67359 24.0485C4.5983 24.0926 4.51502 24.1214 4.42855 24.1333C4.34208 24.1451 4.25412 24.1397 4.16975 24.1174C4.08537 24.0951 4.00624 24.0563 3.93691 24.0033C3.86758 23.9503 3.80942 23.8841 3.76578 23.8085C3.72214 23.7329 3.69389 23.6494 3.68264 23.5629C3.67139 23.4763 3.67737 23.3884 3.70024 23.3042C3.7231 23.22 3.7624 23.1411 3.81588 23.0721C3.86935 23.0031 3.93594 22.9454 4.01181 22.9023L4.72918 22.488C4.85621 22.4147 4.9553 22.3013 5.01088 22.1656C5.06646 22.0299 5.07538 21.8795 5.03625 21.7382C4.81214 20.9261 4.81214 20.0686 5.03625 19.2565C5.07468 19.1155 5.06533 18.9657 5.00966 18.8305C4.95399 18.6953 4.85513 18.5824 4.72852 18.5094L4.01115 18.0951C3.85906 18.0073 3.74807 17.8627 3.70258 17.6931C3.6571 17.5236 3.68085 17.3428 3.7686 17.1907C3.85636 17.0387 4.00094 16.9277 4.17054 16.8822C4.34013 16.8367 4.52085 16.8604 4.67293 16.9482L5.39163 17.3638C5.51841 17.4376 5.66612 17.4672 5.81155 17.4479C5.95697 17.4286 6.09187 17.3616 6.19503 17.2573C6.78408 16.6559 7.52616 16.2269 8.3412 16.0164C8.4839 15.9797 8.61028 15.8965 8.70031 15.7798C8.79033 15.6632 8.83886 15.5198 8.8382 15.3725V14.5439C8.8382 14.3684 8.90792 14.2001 9.03203 14.076C9.15614 13.9519 9.32447 13.8822 9.49998 13.8822C9.6755 13.8822 9.84383 13.9519 9.96794 14.076C10.092 14.2001 10.1618 14.3684 10.1618 14.5439V15.3725C10.1617 15.5194 10.2105 15.6621 10.3005 15.7782C10.3905 15.8943 10.5165 15.9772 10.6588 16.0138C11.4741 16.225 12.2162 16.655 12.8049 17.2573C12.9078 17.3621 13.0427 17.4298 13.1883 17.4496C13.3338 17.4693 13.4819 17.4401 13.609 17.3665L14.3264 16.9515C14.4017 16.9074 14.4849 16.8786 14.5714 16.8667C14.6579 16.8549 14.7458 16.8603 14.8302 16.8826C14.9146 16.9049 14.9937 16.9437 15.0631 16.9967C15.1324 17.0497 15.1905 17.1159 15.2342 17.1915C15.2778 17.2671 15.3061 17.3506 15.3173 17.4371C15.3286 17.5237 15.3226 17.6116 15.2997 17.6958C15.2769 17.78 15.2376 17.8589 15.1841 17.9279C15.1306 17.9969 15.064 18.0546 14.9882 18.0977L14.2708 18.512C14.1444 18.5853 14.0458 18.6983 13.9904 18.8334C13.935 18.9686 13.9258 19.1183 13.9644 19.2592V19.2585Z"/>
</mask>
<path d="M15.6506 21.7574L15.3568 21.588C15.4891 20.8682 15.4891 20.1304 15.3568 19.4107L15.6506 19.2413C15.8766 19.1109 16.0746 18.9373 16.2335 18.7304C16.3924 18.5235 16.5089 18.2874 16.5765 18.0354C16.6441 17.7834 16.6614 17.5206 16.6275 17.262C16.5935 17.0034 16.5089 16.7539 16.3786 16.528C16.2482 16.302 16.0746 16.1039 15.8677 15.9451C15.6608 15.7862 15.4246 15.6696 15.1727 15.602C14.9207 15.5344 14.6579 15.5171 14.3993 15.5511C14.1406 15.5851 13.8912 15.6697 13.6653 15.8L13.3708 15.9701C12.8146 15.4949 12.1754 15.1265 11.4853 14.8834V14.5439C11.4853 14.0174 11.2762 13.5124 10.9038 13.1401C10.5315 12.7678 10.0265 12.5586 9.49998 12.5586C8.97344 12.5586 8.46845 12.7678 8.09613 13.1401C7.7238 13.5124 7.51463 14.0174 7.51463 14.5439V14.8834C6.82465 15.1274 6.18567 15.4966 5.62987 15.9727L5.33405 15.8013C4.87771 15.5381 4.33548 15.4669 3.82663 15.6034C3.31779 15.7399 2.88401 16.073 2.62074 16.5293C2.35747 16.9856 2.28626 17.5279 2.42278 18.0367C2.5593 18.5456 2.89236 18.9793 3.3487 19.2426L3.64253 19.412C3.51025 20.1318 3.51025 20.8696 3.64253 21.5893L3.3487 21.7587C2.89236 22.022 2.5593 22.4558 2.42278 22.9646C2.28626 23.4734 2.35747 24.0157 2.62074 24.472C2.88401 24.9284 3.31779 25.2614 3.82663 25.398C4.33548 25.5345 4.87771 25.4633 5.33405 25.2L5.62855 25.0299C6.18495 25.5052 6.82438 25.8736 7.51463 26.1166V26.4561C7.51463 26.9826 7.7238 27.4876 8.09613 27.8599C8.46845 28.2322 8.97344 28.4414 9.49998 28.4414C10.0265 28.4414 10.5315 28.2322 10.9038 27.8599C11.2762 27.4876 11.4853 26.9826 11.4853 26.4561V26.1166C12.1753 25.8726 12.8143 25.5033 13.3701 25.0273L13.6659 25.198C14.1223 25.4613 14.6645 25.5325 15.1733 25.396C15.6822 25.2594 16.116 24.9264 16.3792 24.47C16.6425 24.0137 16.7137 23.4715 16.5772 22.9626C16.4407 22.4538 16.1076 22.02 15.6513 21.7567L15.6506 21.7574ZM13.9644 19.2585C14.1885 20.0705 14.1885 20.9281 13.9644 21.7402C13.9252 21.8815 13.9342 22.0319 13.9897 22.1676C14.0453 22.3033 14.1444 22.4167 14.2714 22.49L14.9888 22.9043C15.1409 22.992 15.2519 23.1366 15.2974 23.3062C15.3429 23.4758 15.3191 23.6565 15.2314 23.8086C15.1436 23.9607 14.999 24.0717 14.8294 24.1172C14.6598 24.1626 14.4791 24.1389 14.327 24.0511L13.6083 23.6355C13.4812 23.5619 13.3332 23.5327 13.1876 23.5524C13.042 23.5722 12.9072 23.6399 12.8043 23.7447C12.2152 24.3461 11.4731 24.7751 10.6581 24.9856C10.5158 25.0221 10.3898 25.105 10.2998 25.2211C10.2098 25.3372 10.161 25.48 10.1611 25.6268V26.4561C10.1611 26.6316 10.0914 26.7999 9.96727 26.924C9.84316 27.0481 9.67484 27.1178 9.49932 27.1178C9.32381 27.1178 9.15548 27.0481 9.03137 26.924C8.90726 26.7999 8.83754 26.6316 8.83754 26.4561V25.6275C8.83761 25.4806 8.78881 25.3379 8.69883 25.2218C8.60885 25.1057 8.4828 25.0228 8.34054 24.9862C7.52545 24.7749 6.78358 24.3449 6.19503 23.7427C6.09214 23.6379 5.95728 23.5702 5.8117 23.5504C5.66612 23.5307 5.5181 23.5599 5.39097 23.6335L4.67359 24.0485C4.5983 24.0926 4.51502 24.1214 4.42855 24.1333C4.34208 24.1451 4.25412 24.1397 4.16975 24.1174C4.08537 24.0951 4.00624 24.0563 3.93691 24.0033C3.86758 23.9503 3.80942 23.8841 3.76578 23.8085C3.72214 23.7329 3.69389 23.6494 3.68264 23.5629C3.67139 23.4763 3.67737 23.3884 3.70024 23.3042C3.7231 23.22 3.7624 23.1411 3.81588 23.0721C3.86935 23.0031 3.93594 22.9454 4.01181 22.9023L4.72918 22.488C4.85621 22.4147 4.9553 22.3013 5.01088 22.1656C5.06646 22.0299 5.07538 21.8795 5.03625 21.7382C4.81214 20.9261 4.81214 20.0686 5.03625 19.2565C5.07468 19.1155 5.06533 18.9657 5.00966 18.8305C4.95399 18.6953 4.85513 18.5824 4.72852 18.5094L4.01115 18.0951C3.85906 18.0073 3.74807 17.8627 3.70258 17.6931C3.6571 17.5236 3.68085 17.3428 3.7686 17.1907C3.85636 17.0387 4.00094 16.9277 4.17054 16.8822C4.34013 16.8367 4.52085 16.8604 4.67293 16.9482L5.39163 17.3638C5.51841 17.4376 5.66612 17.4672 5.81155 17.4479C5.95697 17.4286 6.09187 17.3616 6.19503 17.2573C6.78408 16.6559 7.52616 16.2269 8.3412 16.0164C8.4839 15.9797 8.61028 15.8965 8.70031 15.7798C8.79033 15.6632 8.83886 15.5198 8.8382 15.3725V14.5439C8.8382 14.3684 8.90792 14.2001 9.03203 14.076C9.15614 13.9519 9.32447 13.8822 9.49998 13.8822C9.6755 13.8822 9.84383 13.9519 9.96794 14.076C10.092 14.2001 10.1618 14.3684 10.1618 14.5439V15.3725C10.1617 15.5194 10.2105 15.6621 10.3005 15.7782C10.3905 15.8943 10.5165 15.9772 10.6588 16.0138C11.4741 16.225 12.2162 16.655 12.8049 17.2573C12.9078 17.3621 13.0427 17.4298 13.1883 17.4496C13.3338 17.4693 13.4819 17.4401 13.609 17.3665L14.3264 16.9515C14.4017 16.9074 14.4849 16.8786 14.5714 16.8667C14.6579 16.8549 14.7458 16.8603 14.8302 16.8826C14.9146 16.9049 14.9937 16.9437 15.0631 16.9967C15.1324 17.0497 15.1905 17.1159 15.2342 17.1915C15.2778 17.2671 15.3061 17.3506 15.3173 17.4371C15.3286 17.5237 15.3226 17.6116 15.2997 17.6958C15.2769 17.78 15.2376 17.8589 15.1841 17.9279C15.1306 17.9969 15.064 18.0546 14.9882 18.0977L14.2708 18.512C14.1444 18.5853 14.0458 18.6983 13.9904 18.8334C13.935 18.9686 13.9258 19.1183 13.9644 19.2592V19.2585Z" fill="#AFAFAF"/>
<path d="M15.6506 21.7574L15.3568 21.588C15.4891 20.8682 15.4891 20.1304 15.3568 19.4107L15.6506 19.2413C15.8766 19.1109 16.0746 18.9373 16.2335 18.7304C16.3924 18.5235 16.5089 18.2874 16.5765 18.0354C16.6441 17.7834 16.6614 17.5206 16.6275 17.262C16.5935 17.0034 16.5089 16.7539 16.3786 16.528C16.2482 16.302 16.0746 16.1039 15.8677 15.9451C15.6608 15.7862 15.4246 15.6696 15.1727 15.602C14.9207 15.5344 14.6579 15.5171 14.3993 15.5511C14.1406 15.5851 13.8912 15.6697 13.6653 15.8L13.3708 15.9701C12.8146 15.4949 12.1754 15.1265 11.4853 14.8834V14.5439C11.4853 14.0174 11.2762 13.5124 10.9038 13.1401C10.5315 12.7678 10.0265 12.5586 9.49998 12.5586C8.97344 12.5586 8.46845 12.7678 8.09613 13.1401C7.7238 13.5124 7.51463 14.0174 7.51463 14.5439V14.8834C6.82465 15.1274 6.18567 15.4966 5.62987 15.9727L5.33405 15.8013C4.87771 15.5381 4.33548 15.4669 3.82663 15.6034C3.31779 15.7399 2.88401 16.073 2.62074 16.5293C2.35747 16.9856 2.28626 17.5279 2.42278 18.0367C2.5593 18.5456 2.89236 18.9793 3.3487 19.2426L3.64253 19.412C3.51025 20.1318 3.51025 20.8696 3.64253 21.5893L3.3487 21.7587C2.89236 22.022 2.5593 22.4558 2.42278 22.9646C2.28626 23.4734 2.35747 24.0157 2.62074 24.472C2.88401 24.9284 3.31779 25.2614 3.82663 25.398C4.33548 25.5345 4.87771 25.4633 5.33405 25.2L5.62855 25.0299C6.18495 25.5052 6.82438 25.8736 7.51463 26.1166V26.4561C7.51463 26.9826 7.7238 27.4876 8.09613 27.8599C8.46845 28.2322 8.97344 28.4414 9.49998 28.4414C10.0265 28.4414 10.5315 28.2322 10.9038 27.8599C11.2762 27.4876 11.4853 26.9826 11.4853 26.4561V26.1166C12.1753 25.8726 12.8143 25.5033 13.3701 25.0273L13.6659 25.198C14.1223 25.4613 14.6645 25.5325 15.1733 25.396C15.6822 25.2594 16.116 24.9264 16.3792 24.47C16.6425 24.0137 16.7137 23.4715 16.5772 22.9626C16.4407 22.4538 16.1076 22.02 15.6513 21.7567L15.6506 21.7574ZM13.9644 19.2585C14.1885 20.0705 14.1885 20.9281 13.9644 21.7402C13.9252 21.8815 13.9342 22.0319 13.9897 22.1676C14.0453 22.3033 14.1444 22.4167 14.2714 22.49L14.9888 22.9043C15.1409 22.992 15.2519 23.1366 15.2974 23.3062C15.3429 23.4758 15.3191 23.6565 15.2314 23.8086C15.1436 23.9607 14.999 24.0717 14.8294 24.1172C14.6598 24.1626 14.4791 24.1389 14.327 24.0511L13.6083 23.6355C13.4812 23.5619 13.3332 23.5327 13.1876 23.5524C13.042 23.5722 12.9072 23.6399 12.8043 23.7447C12.2152 24.3461 11.4731 24.7751 10.6581 24.9856C10.5158 25.0221 10.3898 25.105 10.2998 25.2211C10.2098 25.3372 10.161 25.48 10.1611 25.6268V26.4561C10.1611 26.6316 10.0914 26.7999 9.96727 26.924C9.84316 27.0481 9.67484 27.1178 9.49932 27.1178C9.32381 27.1178 9.15548 27.0481 9.03137 26.924C8.90726 26.7999 8.83754 26.6316 8.83754 26.4561V25.6275C8.83761 25.4806 8.78881 25.3379 8.69883 25.2218C8.60885 25.1057 8.4828 25.0228 8.34054 24.9862C7.52545 24.7749 6.78358 24.3449 6.19503 23.7427C6.09214 23.6379 5.95728 23.5702 5.8117 23.5504C5.66612 23.5307 5.5181 23.5599 5.39097 23.6335L4.67359 24.0485C4.5983 24.0926 4.51502 24.1214 4.42855 24.1333C4.34208 24.1451 4.25412 24.1397 4.16975 24.1174C4.08537 24.0951 4.00624 24.0563 3.93691 24.0033C3.86758 23.9503 3.80942 23.8841 3.76578 23.8085C3.72214 23.7329 3.69389 23.6494 3.68264 23.5629C3.67139 23.4763 3.67737 23.3884 3.70024 23.3042C3.7231 23.22 3.7624 23.1411 3.81588 23.0721C3.86935 23.0031 3.93594 22.9454 4.01181 22.9023L4.72918 22.488C4.85621 22.4147 4.9553 22.3013 5.01088 22.1656C5.06646 22.0299 5.07538 21.8795 5.03625 21.7382C4.81214 20.9261 4.81214 20.0686 5.03625 19.2565C5.07468 19.1155 5.06533 18.9657 5.00966 18.8305C4.95399 18.6953 4.85513 18.5824 4.72852 18.5094L4.01115 18.0951C3.85906 18.0073 3.74807 17.8627 3.70258 17.6931C3.6571 17.5236 3.68085 17.3428 3.7686 17.1907C3.85636 17.0387 4.00094 16.9277 4.17054 16.8822C4.34013 16.8367 4.52085 16.8604 4.67293 16.9482L5.39163 17.3638C5.51841 17.4376 5.66612 17.4672 5.81155 17.4479C5.95697 17.4286 6.09187 17.3616 6.19503 17.2573C6.78408 16.6559 7.52616 16.2269 8.3412 16.0164C8.4839 15.9797 8.61028 15.8965 8.70031 15.7798C8.79033 15.6632 8.83886 15.5198 8.8382 15.3725V14.5439C8.8382 14.3684 8.90792 14.2001 9.03203 14.076C9.15614 13.9519 9.32447 13.8822 9.49998 13.8822C9.6755 13.8822 9.84383 13.9519 9.96794 14.076C10.092 14.2001 10.1618 14.3684 10.1618 14.5439V15.3725C10.1617 15.5194 10.2105 15.6621 10.3005 15.7782C10.3905 15.8943 10.5165 15.9772 10.6588 16.0138C11.4741 16.225 12.2162 16.655 12.8049 17.2573C12.9078 17.3621 13.0427 17.4298 13.1883 17.4496C13.3338 17.4693 13.4819 17.4401 13.609 17.3665L14.3264 16.9515C14.4017 16.9074 14.4849 16.8786 14.5714 16.8667C14.6579 16.8549 14.7458 16.8603 14.8302 16.8826C14.9146 16.9049 14.9937 16.9437 15.0631 16.9967C15.1324 17.0497 15.1905 17.1159 15.2342 17.1915C15.2778 17.2671 15.3061 17.3506 15.3173 17.4371C15.3286 17.5237 15.3226 17.6116 15.2997 17.6958C15.2769 17.78 15.2376 17.8589 15.1841 17.9279C15.1306 17.9969 15.064 18.0546 14.9882 18.0977L14.2708 18.512C14.1444 18.5853 14.0458 18.6983 13.9904 18.8334C13.935 18.9686 13.9258 19.1183 13.9644 19.2592V19.2585Z" stroke="#444444" stroke-width="2.38281" mask="url(#path-3-outside-1_1546_773)"/>
<defs>
<clipPath id="clip0_1546_773">
<rect width="24" height="24" fill="white" transform="translate(8)"/>
</clipPath>
</defs>
</svg>
