<svg width="14" height="13" viewBox="0 0 14 13" fill="none" xmlns="http://www.w3.org/2000/svg">
<path d="M6.12207 0.609785C6.50107 -0.0851565 7.49893 -0.0851551 7.87793 0.609786L9.26493 3.15302C9.40876 3.41675 9.66353 3.60185 9.95879 3.65714L12.8062 4.19036C13.5842 4.33606 13.8926 5.28508 13.3487 5.86027L11.3586 7.9653C11.1522 8.18358 11.0549 8.48308 11.0936 8.78098L11.4663 11.6538C11.5682 12.4387 10.7609 13.0253 10.0458 12.6858L7.42883 11.4436C7.15745 11.3147 6.84255 11.3147 6.57117 11.4436L3.95418 12.6858C3.23909 13.0253 2.43181 12.4387 2.53367 11.6538L2.90644 8.78098C2.94509 8.48308 2.84778 8.18358 2.64141 7.96529L0.65125 5.86027C0.107439 5.28507 0.415794 4.33606 1.19384 4.19036L4.04121 3.65714C4.33648 3.60185 4.59124 3.41675 4.73507 3.15302L6.12207 0.609785Z" fill="#1A345C"/>
</svg>
