<svg width="180" height="51" viewBox="0 0 180 51" fill="none" xmlns="http://www.w3.org/2000/svg">
<g clip-path="url(#clip0_7_87)">
<mask id="mask0_7_87" style="mask-type:luminance" maskUnits="userSpaceOnUse" x="0" y="0" width="180" height="51">
<path d="M180 0H0V51H180V0Z" fill="white"/>
</mask>
<g mask="url(#mask0_7_87)">
<path d="M99 31.7195V18.0183H106.56V20.8184H101.337V23.7303H105.529V26.2689H101.337V31.7195H99Z" fill="#1A345C"/>
<path d="M108.064 31.7385V18.0373H110.401V31.7385H108.064Z" fill="#1A345C"/>
<path d="M112.093 31.7203V18.0191H117.316C117.436 18.0191 117.597 18.0254 117.797 18.0378C118.003 18.044 118.186 18.0627 118.347 18.0938C119.086 18.2182 119.69 18.4827 120.159 18.8871C120.635 19.2915 120.984 20.0633 121.208 20.6793C121.431 21.289 121.543 21.9703 121.543 22.7232C121.543 23.8494 121.285 24.8138 120.769 25.6165C120.254 26.4129 119.446 26.9044 118.347 27.0911L117.316 27.1658H114.429V31.7203H112.093ZM119.068 31.7203L116.629 26.2511L119.034 25.7471L121.714 31.7203H119.068ZM114.429 24.7952H117.213C117.333 24.7952 117.465 24.7889 117.608 24.7765C117.751 24.764 117.883 24.7392 118.003 24.7018C118.318 24.6085 118.562 24.4529 118.733 24.2352C118.905 24.0112 119.023 23.7654 119.086 23.4979C119.154 23.2241 119.189 22.9659 119.189 22.7232C119.189 22.4805 119.154 22.2254 119.086 21.9579C119.023 21.6841 118.905 21.4384 118.733 21.2206C118.562 20.9966 118.318 20.8379 118.003 20.7446C117.883 20.7073 117.751 20.6824 117.608 20.6699C117.465 20.6575 117.333 20.6513 117.213 20.6513H114.429V24.7952Z" fill="#1A345C"/>
<path d="M122.972 31.7203V18.0191H125.068L129.157 27.203L133.246 18.0191H135.342V31.7203H133.16V23.6938L129.569 31.7203H128.744L125.154 23.6938V31.7203H122.972Z" fill="#1A345C"/>
<path d="M141.874 32.0002C140.957 32.0002 140.13 31.826 139.391 31.4775C138.658 31.1229 138.054 30.6189 137.578 29.9656C137.109 29.306 136.811 28.5221 136.685 27.6136L139.125 27.2216C139.296 27.9932 139.651 28.5874 140.19 29.0043C140.728 29.4211 141.341 29.6296 142.028 29.6296C142.412 29.6296 142.784 29.5642 143.145 29.4336C143.506 29.3029 143.801 29.11 144.03 28.8549C144.265 28.5998 144.382 28.2856 144.382 27.9123C144.382 27.7754 144.362 27.6447 144.322 27.5203C144.288 27.3896 144.227 27.2683 144.142 27.1563C144.056 27.0443 143.933 26.9385 143.772 26.839C143.618 26.7394 143.42 26.6492 143.179 26.5683L139.966 25.5417C139.726 25.467 139.445 25.3612 139.125 25.2244C138.81 25.0875 138.503 24.8915 138.205 24.6364C137.908 24.3813 137.658 24.0453 137.458 23.6284C137.263 23.2053 137.166 22.6733 137.166 22.0324C137.166 21.1302 137.375 20.3805 137.793 19.7832C138.211 19.1858 138.769 18.741 139.468 18.4485C140.167 18.1561 140.94 18.013 141.788 18.0192C142.641 18.0317 143.403 18.1903 144.073 18.4952C144.743 18.8001 145.304 19.245 145.757 19.8298C146.209 20.4085 146.535 21.1178 146.736 21.9578L144.21 22.4244C144.119 21.9889 143.95 21.6218 143.703 21.3231C143.457 21.0245 143.162 20.7974 142.819 20.6418C142.481 20.4863 142.126 20.4023 141.753 20.3898C141.387 20.3774 141.04 20.4334 140.714 20.5578C140.393 20.676 140.13 20.8502 139.924 21.0805C139.723 21.3107 139.623 21.5845 139.623 21.9018C139.623 22.1942 139.706 22.4338 139.872 22.6204C140.038 22.8009 140.247 22.9471 140.499 23.0591C140.751 23.1711 141.009 23.2644 141.272 23.3391L143.42 23.9737C143.741 24.0671 144.096 24.1915 144.485 24.347C144.875 24.4964 145.247 24.7079 145.602 24.9817C145.963 25.2492 146.258 25.6039 146.487 26.0457C146.722 26.4874 146.839 27.0474 146.839 27.7256C146.839 28.4474 146.699 29.0789 146.418 29.6202C146.143 30.1553 145.771 30.6002 145.301 30.9549C144.832 31.3033 144.299 31.5646 143.703 31.7389C143.114 31.9131 142.504 32.0002 141.874 32.0002Z" fill="#1A345C"/>
<path d="M147.846 31.7387V29.2001H150.183V31.7387H147.846Z" fill="#1A345C"/>
<path d="M151.638 31.7387V18.0377H156.861C156.982 18.0377 157.142 18.0439 157.343 18.0564C157.549 18.0626 157.732 18.0812 157.892 18.1124C158.631 18.2368 159.235 18.5012 159.705 18.9057C160.18 19.3101 160.53 20.0816 160.753 20.6976C160.976 21.3074 161.088 21.9887 161.088 22.7416C161.088 23.8678 160.83 24.8322 160.315 25.6348C159.8 26.4313 158.992 26.9228 157.892 27.1095L156.861 27.1841H153.975V31.7387H151.638ZM158.614 31.7387L156.174 26.2695L158.58 25.7655L161.26 31.7387H158.614ZM153.975 24.8135H156.758C156.879 24.8135 157.01 24.8073 157.154 24.7949C157.297 24.7824 157.428 24.7575 157.549 24.7202C157.864 24.6269 158.107 24.4713 158.279 24.2535C158.451 24.0295 158.568 23.7838 158.631 23.5162C158.7 23.2424 158.734 22.9842 158.734 22.7416C158.734 22.4989 158.7 22.2438 158.631 21.9763C158.568 21.7025 158.451 21.4567 158.279 21.2389C158.107 21.0149 157.864 20.8563 157.549 20.763C157.428 20.7256 157.297 20.7007 157.154 20.6883C157.01 20.6758 156.879 20.6696 156.758 20.6696H153.975V24.8135Z" fill="#1A345C"/>
<path d="M167.017 31.981C166.032 31.981 165.165 31.7632 164.414 31.3277C163.67 30.8921 163.086 30.2792 162.662 29.489C162.244 28.6988 162.035 27.7717 162.035 26.7078V18.0187L164.131 18V26.6518C164.131 27.1558 164.208 27.6069 164.363 28.0051C164.523 28.4033 164.738 28.7424 165.007 29.0224C165.276 29.2962 165.586 29.5046 165.935 29.6477C166.284 29.7908 166.645 29.8624 167.017 29.8624C167.401 29.8624 167.765 29.7908 168.108 29.6477C168.458 29.4984 168.767 29.2868 169.036 29.0131C169.305 28.7331 169.517 28.394 169.672 27.9957C169.827 27.5975 169.904 27.1495 169.904 26.6518V18H172V26.7078C172 27.7717 171.788 28.6988 171.364 29.489C170.946 30.2792 170.362 30.8921 169.612 31.3277C168.867 31.7632 168.002 31.981 167.017 31.981Z" fill="#1A345C"/>
<path d="M51 31.7143V18H52.0187V24.5143L58.0864 18H59.4329L53.3297 24.5905L59.9643 31.7143H58.6002L52.0187 24.7048V31.7143H51Z" fill="#1A345C"/>
<path d="M66.1326 32C65.1759 32 64.3256 31.7873 63.5815 31.3619C62.8433 30.9302 62.2616 30.327 61.8364 29.5524C61.4172 28.7714 61.2075 27.8571 61.2075 26.8095V18H62.2351V26.581C62.2351 27.3619 62.3561 28.0317 62.5982 28.5905C62.8463 29.1429 63.1651 29.5937 63.5549 29.9429C63.9506 30.2921 64.3728 30.5492 64.8216 30.7143C65.2763 30.8794 65.7133 30.9619 66.1326 30.9619C66.5519 30.9619 66.9889 30.8794 67.4436 30.7143C67.8983 30.5492 68.3205 30.2921 68.7103 29.9429C69.1 29.5937 69.416 29.1429 69.6581 28.5905C69.9061 28.0317 70.0301 27.3619 70.0301 26.581V18H71.0577V26.8095C71.0577 27.8508 70.8451 28.7619 70.4199 29.5429C70.0006 30.3175 69.4189 30.9206 68.6749 31.3524C67.9367 31.7841 67.0893 32 66.1326 32Z" fill="#1A345C"/>
<path d="M73.543 31.7143V18H78.353C78.477 18 78.6099 18.0063 78.7516 18.019C78.8992 18.0254 79.0528 18.0444 79.2122 18.0762C79.85 18.1841 80.3962 18.4317 80.8509 18.819C81.3116 19.2 81.6629 19.6825 81.9051 20.2667C82.1472 20.8444 82.2682 21.4825 82.2682 22.181C82.2682 22.8857 82.1472 23.5302 81.9051 24.1143C81.6629 24.6921 81.3116 25.1746 80.8509 25.5619C80.3962 25.9429 79.85 26.1873 79.2122 26.2952C79.0528 26.3206 78.8992 26.3397 78.7516 26.3524C78.6099 26.3651 78.477 26.3714 78.353 26.3714H74.5617V31.7143H73.543ZM74.5617 25.2952H78.3353C78.4416 25.2952 78.5626 25.2889 78.6984 25.2762C78.8402 25.2635 78.9819 25.2444 79.1236 25.219C79.5842 25.1175 79.9681 24.9175 80.2752 24.619C80.5822 24.3143 80.8126 23.9492 80.9661 23.5238C81.1196 23.0984 81.1964 22.6508 81.1964 22.181C81.1964 21.7111 81.1196 21.2667 80.9661 20.8476C80.8126 20.4222 80.5822 20.0603 80.2752 19.7619C79.9681 19.4571 79.5842 19.254 79.1236 19.1524C78.9819 19.1206 78.8402 19.0984 78.6984 19.0857C78.5626 19.073 78.4416 19.0667 78.3353 19.0667H74.5617V25.2952Z" fill="#1A345C"/>
<path d="M84.2218 31.7143V18H85.2405V31.7143H84.2218Z" fill="#1A345C"/>
<path d="M91.4106 31.7143V19.0667H86.8398V18H97V19.0667H92.4292V31.7143H91.4106Z" fill="#1A345C"/>
<path d="M26 12V2L16 12V22L26 32V22L36 12V2L26 12Z" fill="#1A345C"/>
<path d="M16 22V32M36 22V32M26 12V22V32" stroke="#0072BC" stroke-width="2"/>
<path d="M13 12L10 17V27L13 22V12Z" fill="#FFA200"/>
<path d="M39 12L42 17V27L39 22V12Z" fill="#FFA200"/>
<path d="M16 29H10V33H16V29Z" fill="#FFA200"/>
<path d="M29 29H23V33H29V29Z" fill="#1A345C"/>
<path d="M42 29H36V33H42V29Z" fill="#FFA200"/>
<path d="M36 33H16V37H36V33Z" fill="#0072BC"/>
<path d="M176.353 12C176.978 12 177.544 12.1435 178.049 12.4305C178.561 12.7174 178.962 13.1136 179.252 13.6189C179.543 14.118 179.688 14.6732 179.688 15.2846C179.688 15.896 179.54 16.4574 179.243 16.969C178.946 17.4743 178.542 17.8736 178.03 18.1668C177.518 18.46 176.953 18.6066 176.334 18.6066C175.715 18.6066 175.15 18.46 174.638 18.1668C174.133 17.8736 173.732 17.4743 173.435 16.969C173.145 16.4637 173 15.9084 173 15.3033C173 14.6982 173.145 14.1429 173.435 13.6376C173.732 13.1323 174.136 12.733 174.648 12.4398C175.16 12.1466 175.728 12 176.353 12ZM176.334 18.0919C176.858 18.0919 177.332 17.9672 177.755 17.7176C178.185 17.4681 178.523 17.1312 178.769 16.707C179.015 16.2765 179.138 15.8024 179.138 15.2846C179.138 14.7668 179.018 14.2989 178.778 13.8809C178.538 13.4567 178.207 13.1229 177.784 12.8796C177.361 12.6363 176.884 12.5147 176.353 12.5147C175.823 12.5147 175.343 12.6394 174.913 12.889C174.484 13.1323 174.146 13.4661 173.9 13.8903C173.66 14.3145 173.54 14.7855 173.54 15.3033C173.54 15.8211 173.66 16.2921 173.9 16.7163C174.146 17.1406 174.481 17.4774 174.904 17.727C175.333 17.9703 175.81 18.0919 176.334 18.0919ZM178.068 14.7418C178.068 15.0163 178.002 15.2503 177.869 15.4437C177.743 15.6371 177.56 15.7837 177.32 15.8835L178.153 17.1468H177.338L176.6 16.0239H176.495H175.756V17.1468H174.942V13.4598H176.495C176.982 13.4598 177.364 13.5752 177.642 13.8061C177.926 14.0369 178.068 14.3488 178.068 14.7418ZM176.448 15.3969C176.713 15.3969 176.918 15.3407 177.064 15.2284C177.209 15.1099 177.282 14.9477 177.282 14.7418C177.282 14.536 177.209 14.3769 177.064 14.2646C176.918 14.1523 176.713 14.0961 176.448 14.0961H175.747V15.3969H176.448Z" fill="#1A345C"/>
</g>
</g>
<defs>
<clipPath id="clip0_7_87">
<rect width="180" height="51" fill="white"/>
</clipPath>
</defs>
</svg>
