<svg width="60" height="54" viewBox="0 0 60 54" fill="none" xmlns="http://www.w3.org/2000/svg">
<path d="M50.625 12.469C50.1073 12.469 49.6875 12.8888 49.6875 13.4065V15.2813C49.6875 15.799 50.1073 16.2188 50.625 16.2188C51.1427 16.2188 51.5625 15.799 51.5625 15.2813V13.4065C51.5625 12.8888 51.1427 12.469 50.625 12.469Z" fill="#FFA200"/>
<path d="M60 19.9688C60 16.9133 58.1041 14.1499 55.3125 13.0161V3.09375C55.3125 1.54301 54.0509 0.28125 52.5 0.28125H50.6311C50.6307 0.28125 50.6305 0.28125 50.6302 0.28125H50.625C50.6173 0.28125 50.6098 0.282188 50.6021 0.282422C50.5795 0.283008 50.5568 0.283711 50.5342 0.28582C50.5222 0.286992 50.5106 0.289101 50.4988 0.290742C50.4802 0.293203 50.4616 0.295547 50.4431 0.29918C50.4295 0.301875 50.4164 0.305508 50.403 0.308789C50.3868 0.312774 50.3703 0.316523 50.3542 0.321328C50.3401 0.325547 50.3264 0.33082 50.3126 0.335742C50.2976 0.341016 50.2826 0.346055 50.2678 0.352148C50.2534 0.358125 50.2396 0.364922 50.2256 0.371602C50.212 0.378047 50.1983 0.384023 50.185 0.391172C50.1696 0.399375 50.1548 0.408633 50.14 0.417656C50.1287 0.42457 50.1172 0.430899 50.1061 0.438164C50.0883 0.450117 50.0713 0.463125 50.0543 0.47625C50.0474 0.481523 50.04 0.486094 50.0332 0.491719C44.467 5.02359 37.0659 9.65625 24.375 9.65625H6.5625C2.94398 9.65625 0 12.6001 0 16.2188V23.7188C0 27.3374 2.94398 30.2812 6.5625 30.2812H10.4183L12.8345 50.4156C13.0603 52.2987 14.661 53.7188 16.5577 53.7188H20.2673C21.3389 53.7188 22.3614 53.259 23.0726 52.4573C23.7837 51.6558 24.1184 50.5859 23.9906 49.5219L21.6817 30.2812H24.375C37.0659 30.2812 44.467 34.9139 50.0331 39.4458C50.0549 39.4635 50.0773 39.4801 50.1001 39.4956C50.1037 39.498 50.1077 39.5002 50.1114 39.5025C50.132 39.516 50.1527 39.529 50.1741 39.5406C50.1823 39.5452 50.1908 39.5489 50.1993 39.5532C50.2166 39.5621 50.2341 39.5708 50.2518 39.5786C50.2616 39.5829 50.2718 39.5865 50.2818 39.5905C50.2986 39.5972 50.3155 39.6035 50.3326 39.6091C50.3434 39.6127 50.3543 39.6158 50.3653 39.619C50.3827 39.6239 50.4 39.6285 50.4175 39.6323C50.4282 39.6348 50.4391 39.6373 50.4502 39.6393C50.4695 39.6429 50.4889 39.6457 50.5084 39.6482C50.5178 39.6493 50.527 39.6507 50.5365 39.6517C50.5657 39.6544 50.595 39.6561 50.6243 39.6561C50.6244 39.6561 50.6245 39.6561 50.6245 39.6561C50.6248 39.6561 50.6248 39.6561 50.6249 39.6561H52.4999C54.0507 39.6561 55.3124 38.3944 55.3124 36.8436V26.9212C58.1041 25.7875 60 23.0239 60 19.9688ZM22.129 49.7454C22.1938 50.2852 22.0308 50.8065 21.67 51.213C21.3091 51.6198 20.811 51.8438 20.2673 51.8438H16.5577C15.6094 51.8438 14.8091 51.1337 14.696 50.1921L14.6692 49.9688H18.75C19.2677 49.9688 19.6875 49.549 19.6875 49.0312C19.6875 48.5135 19.2677 48.0938 18.75 48.0938H14.4442L12.3067 30.2812H19.7932L22.129 49.7454ZM52.5 37.7812H51.5625V19.0315C51.5625 18.5138 51.1427 18.094 50.625 18.094C50.1073 18.094 49.6875 18.5138 49.6875 19.0315V36.7834C44.6437 32.9259 38.1131 29.2796 28.125 28.5421V16.2188C28.125 15.701 27.7052 15.2812 27.1875 15.2812C26.6698 15.2812 26.25 15.701 26.25 16.2188V28.4394C25.6375 28.4176 25.0127 28.4062 24.375 28.4062H6.5625C3.97781 28.4062 1.875 26.3034 1.875 23.7188V16.2188C1.875 13.6341 3.97781 11.5312 6.5625 11.5312H24.375C25.0127 11.5312 25.6375 11.5199 26.25 11.4981V12.4688C26.25 12.9865 26.6698 13.4062 27.1875 13.4062C27.7052 13.4062 28.125 12.9865 28.125 12.4688V11.3954C38.1131 10.6579 44.6437 7.01145 49.6875 3.1541V9.65637C49.6875 10.1741 50.1073 10.5939 50.625 10.5939C51.1427 10.5939 51.5625 10.1741 51.5625 9.65637V2.15625H52.5C53.0169 2.15625 53.4375 2.57684 53.4375 3.09375V13.6636C53.4373 13.6777 53.4371 13.6916 53.4375 13.7055V36.8438C53.4375 37.3607 53.0169 37.7812 52.5 37.7812ZM55.3125 24.8387V15.0988C57.015 16.0897 58.125 17.9436 58.125 19.9688C58.125 21.9936 57.015 23.8478 55.3125 24.8387Z" fill="#FFA200"/>
</svg>
