<?xml version="1.0" encoding="UTF-8"?>
<!DOCTYPE svg PUBLIC "-//W3C//DTD SVG 1.1//EN" "http://www.w3.org/Graphics/SVG/1.1/DTD/svg11.dtd">
<svg xmlns="http://www.w3.org/2000/svg" version="1.1" width="1024px" height="1024px" style="shape-rendering:geometricPrecision; text-rendering:geometricPrecision; image-rendering:optimizeQuality; fill-rule:evenodd; clip-rule:evenodd" xmlns:xlink="http://www.w3.org/1999/xlink">
<g><path style="opacity:0.989" fill="#ff0000" d="M 550.5,1023.5 C 524.5,1023.5 498.5,1023.5 472.5,1023.5C 470.723,1022.4 468.723,1021.57 466.5,1021C 312.448,1005.18 188.614,934.681 95,809.5C 14.3273,693.451 -15.0061,564.784 7,423.5C 35.4421,276.924 112.275,162.091 237.5,79C 363.479,2.37973 499.146,-18.2869 644.5,17C 785.301,57.3406 891.801,142.174 964,271.5C 1020.73,381.321 1036.73,497.654 1012,620.5C 975.992,770.926 890.492,884.759 755.5,962C 706.487,987.603 654.82,1005.6 600.5,1016C 585.888,1018 571.222,1019.66 556.5,1021C 554.277,1021.57 552.277,1022.4 550.5,1023.5 Z"/></g>
<g><path style="opacity:1" fill="#fffefe" d="M 418.5,272.5 C 488.84,272.191 559.173,272.691 629.5,274C 675.375,274.718 721.042,278.051 766.5,284C 799.463,290.057 822.297,308.557 835,339.5C 838.416,350.998 841.083,362.665 843,374.5C 855.071,470.653 854.071,566.653 840,662.5C 831.602,706.231 805.436,731.731 761.5,739C 702.027,745.557 642.361,748.89 582.5,749C 490.095,750.874 397.762,749.207 305.5,744C 284.231,742.844 263.231,739.844 242.5,735C 217.216,726.049 199.383,709.216 189,684.5C 180.797,655.75 176.131,626.417 175,596.5C 168.626,518.219 170.959,440.219 182,362.5C 191.846,311.661 222.679,284.494 274.5,281C 322.577,276.898 370.577,274.064 418.5,272.5 Z"/></g>
<g><path style="opacity:1" fill="#ff0201" d="M 443.5,411.5 C 502.131,444.149 560.464,477.315 618.5,511C 560.464,544.685 502.131,577.851 443.5,610.5C 442.167,544.167 442.167,477.833 443.5,411.5 Z"/></g>
<g><path style="opacity:1" fill="#ff8282" d="M 443.5,411.5 C 442.167,477.833 442.167,544.167 443.5,610.5C 443.44,611.043 443.107,611.376 442.5,611.5C 441.167,544.5 441.167,477.5 442.5,410.5C 443.107,410.624 443.44,410.957 443.5,411.5 Z"/></g>
</svg>
