<?xml version="1.0" encoding="utf-8"?>
<!-- Generator: Adobe Illustrator 16.0.0, SVG Export Plug-In . SVG Version: 6.00 Build 0)  -->
<!DOCTYPE svg PUBLIC "-//W3C//DTD SVG 1.1//EN" "http://www.w3.org/Graphics/SVG/1.1/DTD/svg11.dtd">
<svg version="1.1" id="Слой_1" xmlns="http://www.w3.org/2000/svg" xmlns:xlink="http://www.w3.org/1999/xlink" x="0px" y="0px"
	 width="1248.5px" height="250.5px" viewBox="0 0 1248.5 250.5" enable-background="new 0 0 1248.5 250.5" xml:space="preserve">
<path fill="#E1E2E4" d="M1047.208,51.281c0.01-1.14,0.018-2.273,0.018-3.38c0-0.001,0-0.002,0-0.003c0-0.257,0.018-0.51,0.045-0.76
	c0.006-0.063,0.02-0.125,0.029-0.188c0.025-0.19,0.057-0.379,0.098-0.564c0.014-0.063,0.033-0.127,0.049-0.189
	c0.047-0.185,0.1-0.365,0.16-0.543c0.02-0.058,0.041-0.114,0.063-0.171c0.068-0.183,0.145-0.362,0.227-0.538
	c0.023-0.047,0.047-0.096,0.07-0.143c0.094-0.186,0.193-0.366,0.303-0.542c0.021-0.033,0.041-0.067,0.063-0.101
	c0.133-0.207,0.273-0.406,0.428-0.597c0-0.001,0-0.001,0-0.001c0.32-0.399,0.686-0.762,1.086-1.082
	c0.004-0.002,0.008-0.006,0.012-0.009l-2.139-2.06l0.299-0.897c2.727-8.205,0.5-17.076-5.813-23.152
	c-4.492-4.326-10.473-6.708-16.842-6.708c-3.557,0-7.125,0.775-10.318,2.242c-0.063,0.028-0.107,0.077-0.117,0.13
	c-0.006,0.042,0.01,0.087,0.051,0.127l15.713,15.129c1.457,1.398,2.26,3.264,2.26,5.249c0,1.984-0.803,3.85-2.26,5.252
	c-1.373,1.326-3.33,2.09-5.363,2.09c-2.035,0-3.996-0.765-5.377-2.098l-15.719-15.127c-0.047-0.044-0.119-0.071-0.191-0.071
	c-0.133,0.019-0.197,0.06-0.227,0.119c-4.326,8.728-2.465,19.179,4.631,26.005c4.496,4.331,10.48,6.717,16.85,6.717
	c2.477,0,4.945-0.373,7.338-1.106l0.844-0.259l13.473,12.957c0.033-2.424,0.078-4.807,0.123-7.138
	C1047.122,57.162,1047.179,54.199,1047.208,51.281z"/>
<path fill="#E1E2E4" d="M1068.142,148.451l-32.799,29.405c-0.361,0.312-0.557,0.705-0.572,1.125
	c-0.016,0.419,0.15,0.822,0.465,1.137l10.375,10.37c0.633,0.631,1.658,0.596,2.242-0.076l29.43-32.825
	C1073.872,154.686,1070.839,151.631,1068.142,148.451z"/>
<path fill="#E1E2E4" d="M1152.862,155.057l6.662,6.135l-0.207,0.858c-0.588,2.431-0.809,4.918-0.66,7.392
	c0.387,6.356,3.131,12.186,7.727,16.412c4.195,3.863,9.602,5.99,15.219,5.99c3.85,0,7.66-1.019,11.02-2.944
	c0.055-0.032,0.094-0.101,0.104-0.182c0.01-0.091-0.025-0.186-0.082-0.237l-16.055-14.777c-2.982-2.736-3.281-7.646-0.652-10.72
	c1.309-1.538,3.121-2.452,5.102-2.571c1.961-0.115,3.902,0.577,5.377,1.938l16.055,14.769c0.029,0.026,0.066,0.042,0.104,0.042
	c0.078-0.015,0.121-0.061,0.146-0.125c1.271-3.278,1.83-6.887,1.615-10.437c-0.387-6.356-3.129-12.182-7.719-16.404
	c-4.195-3.86-9.607-5.985-15.238-5.985c-2.83,0-5.598,0.534-8.223,1.588l-0.879,0.353l-6.803-6.255
	C1162.079,145.239,1157.925,150.328,1152.862,155.057z"/>
<path fill="#E1E2E4" d="M1166.274,54.656c-21.121-1.131-37.908-7.496-52.619-19.955c-14.713,12.459-31.498,18.824-52.613,19.955
	c-0.029,1.786-0.063,3.605-0.098,5.471c-0.74,38.578-1.58,82.286,52.711,102.283c54.287-19.994,53.453-63.706,52.719-102.287
	C1166.337,58.262,1166.304,56.443,1166.274,54.656z"/>
<path fill="#E1E2E4" d="M1221.11,43.844l-2.873,2.397l-0.9-1.508c-2.305-3.86-2.934-5.568-2.486-6.769
	c0.752-2.101-2.889-8.666-5.605-12.469c-14.42-17.267-25.576-20.891-32.396-20.891c-0.623,0-1.238,0.029-1.84,0.09
	c12.332,3.822,15.941,10.149,16.992,13.687c1.004,3.381,0.424,6.825-1.514,8.987c-0.557,0.624,0.314,1.878,0.322,1.891l1.541,1.834
	l-14.285,11.914c0.943,0.945,1.594,2.145,1.871,3.461c0.002,0.014,0.006,0.025,0.01,0.039c0.045,0.221,0.078,0.445,0.102,0.673
	c0.002,0.005,0.002,0.009,0.002,0.013c0.025,0.234,0.037,0.47,0.037,0.708c0,1.204,0.008,2.423,0.021,3.657l17.291-14.421
	l2.078,2.501c0.373,0.37,1.666,1.387,2.473,1.072c0.309-0.121,0.652-0.185,1.012-0.185c2.324,0,5.23,2.761,8.516,6.097
	c0.617,0.627,1.156,1.175,1.521,1.505l1.676,1.081l-2.721,2.275c-0.434,0.357-0.695,0.854-0.746,1.404
	c-0.051,0.553,0.117,1.091,0.475,1.516c0.4,0.477,0.982,0.75,1.602,0.75c0.492,0,0.953-0.168,1.336-0.484l9.156-7.63
	c0.877-0.735,0.996-2.052,0.262-2.933C1223.331,43.259,1221.964,43.132,1221.11,43.844z"/>
<path fill="#B6BAC1" d="M1177.165,55.691c-0.047-2.764-0.078-5.29-0.078-7.789c0-0.244-0.029-0.48-0.072-0.711
	c-0.01-0.057-0.023-0.113-0.035-0.17c-0.049-0.208-0.109-0.41-0.188-0.604c-0.008-0.019-0.014-0.039-0.021-0.058
	c-0.09-0.212-0.203-0.412-0.328-0.603c-0.029-0.045-0.061-0.087-0.092-0.131c-0.105-0.148-0.223-0.288-0.348-0.421
	c-0.037-0.039-0.072-0.082-0.111-0.12c-0.156-0.15-0.322-0.288-0.5-0.413c-0.059-0.039-0.123-0.073-0.184-0.11
	c-0.6-0.372-1.301-0.597-2.057-0.597c-23.666,0-41.699-6.816-56.752-21.451c-0.74-0.72-1.715-1.115-2.746-1.115
	s-2.004,0.396-2.744,1.114c-15.049,14.636-33.082,21.452-56.748,21.452c-0.49,0-0.957,0.102-1.393,0.268
	c-0.113,0.043-0.223,0.094-0.33,0.147c-0.102,0.05-0.201,0.104-0.299,0.161c-0.096,0.059-0.191,0.119-0.283,0.185
	c-0.104,0.076-0.201,0.16-0.299,0.246c-0.07,0.064-0.148,0.124-0.215,0.192c-0.148,0.153-0.285,0.318-0.406,0.493
	c-0.051,0.071-0.09,0.149-0.135,0.224c-0.074,0.123-0.146,0.248-0.207,0.381c-0.039,0.084-0.072,0.171-0.105,0.258
	c-0.053,0.141-0.098,0.285-0.135,0.433c-0.02,0.079-0.041,0.157-0.057,0.238c-0.043,0.231-0.072,0.468-0.072,0.712
	c0,2.978-0.047,6.127-0.1,9.107c-0.02,0.994-0.037,1.969-0.057,2.912c-0.059,3.156-0.121,6.411-0.148,9.733
	c-0.314,37.274,3.65,83.46,62.445,103.84c0.838,0.286,1.732,0.288,2.582-0.002c64.033-22.196,63.029-75.01,62.295-113.572
	c-0.014-0.697-0.025-1.37-0.039-2.034l-0.004,0.004L1177.165,55.691z M1114.167,165.418l-0.512,0.186l-0.512-0.186
	c-56.822-20.644-55.961-65.646-55.199-105.35c0.045-2.351,0.086-4.631,0.119-6.865l0.02-1.418l1.416-0.059
	c21.545-0.908,38.439-7.305,53.172-20.133l0.984-0.858l0.984,0.858c14.73,12.828,31.627,19.225,53.176,20.133l1.418,0.059
	l0.02,1.418c0.031,2.233,0.074,4.514,0.119,6.862C1170.128,99.772,1170.985,144.776,1114.167,165.418z"/>
<path d="M1169.253,53.203l-0.02-1.418l-1.418-0.059c-21.549-0.908-38.445-7.305-53.176-20.133l-0.984-0.858l-0.984,0.858
	c-14.732,12.828-31.627,19.225-53.172,20.133l-1.416,0.059l-0.02,1.418c-0.033,2.234-0.074,4.515-0.119,6.865
	c-0.762,39.704-1.623,84.706,55.199,105.35l0.512,0.186l0.512-0.186c56.818-20.642,55.961-65.646,55.205-105.353
	C1169.327,57.717,1169.284,55.437,1169.253,53.203z M1113.655,162.41c-54.291-19.997-53.451-63.705-52.711-102.283
	c0.035-1.865,0.068-3.685,0.098-5.471c21.115-1.131,37.9-7.496,52.613-19.955c14.711,12.459,31.498,18.824,52.619,19.955
	c0.029,1.787,0.063,3.605,0.1,5.467C1167.108,98.704,1167.942,142.416,1113.655,162.41z"/>
<path d="M1222.442,40.363c-1.186,0-2.34,0.417-3.254,1.177l-0.158,0.132c-1.025-1.838-1.262-2.566-1.307-2.844
	c1.357-4.436-4.809-13.361-6.072-15.125l-0.068-0.087c-15.18-18.192-27.268-22.011-34.734-22.011c-1.697,0-3.348,0.193-4.904,0.576
	c-1.014,0.248-2.9,0.712-2.918,2.315c-0.02,1.647,1.969,2.185,3.285,2.54c12.941,3.484,16.068,9.691,16.814,12.199
	c0.848,2.855,0.105,5.039-0.875,6.133c-1.57,1.76-0.916,3.969-0.09,5.312l-12.779,10.659c-0.701-0.239-1.451-0.375-2.23-0.375
	c-22.834,0-40.203-6.547-54.662-20.604c-1.303-1.266-3.02-1.963-4.836-1.963s-3.533,0.697-4.836,1.964
	c-14.453,14.056-31.82,20.603-54.656,20.603c-0.479,0-0.945,0.049-1.398,0.142l-1.615-1.558c2.588-8.936-0.051-18.791-6.861-25.348
	c-5.055-4.867-11.775-7.547-18.924-7.547c-3.986,0-7.988,0.869-11.572,2.516c-0.955,0.441-1.635,1.311-1.816,2.336
	c-0.178,1.027,0.166,2.074,0.922,2.807l15.717,15.133c0.863,0.828,1.338,1.925,1.338,3.086s-0.475,2.258-1.342,3.092
	c-0.822,0.794-2.018,1.25-3.281,1.25c-1.266,0-2.467-0.457-3.295-1.258l-15.721-15.129c-0.73-0.701-1.84-1.027-2.805-0.865
	c-1.033,0.168-1.922,0.818-2.381,1.742c-4.91,9.906-2.805,21.762,5.236,29.499c5.059,4.872,11.783,7.556,18.932,7.556
	c2.482,0,4.953-0.333,7.363-0.99l14.252,13.706c-0.135,24.507,1.781,52.577,19.336,74.988l-32.883,29.481
	c-0.979,0.845-1.543,2.005-1.59,3.269c-0.045,1.261,0.43,2.456,1.34,3.367l10.379,10.371c0.869,0.868,2.01,1.346,3.211,1.346
	c1.301,0,2.547-0.575,3.4-1.561l29.504-32.907c8.332,6.591,18.746,12.324,31.781,16.843c0.738,0.253,1.5,0.382,2.268,0.382
	c0.766,0,1.529-0.129,2.271-0.384c14.6-5.062,25.922-11.645,34.697-19.254l5.582,5.139c-0.51,2.443-0.693,4.932-0.543,7.409
	c0.434,7.135,3.52,13.684,8.689,18.438c4.75,4.374,10.877,6.782,17.25,6.782c4.373,0,8.699-1.155,12.514-3.344
	c0.893-0.513,1.488-1.439,1.592-2.47c0.111-1.03-0.275-2.061-1.033-2.758l-16.055-14.778c-1.766-1.618-1.957-4.746-0.402-6.563
	c0.777-0.913,1.844-1.454,3.002-1.524c1.156-0.069,2.287,0.343,3.164,1.149l16.059,14.773c0.77,0.702,1.842,0.986,2.857,0.746
	c1.008-0.241,1.836-0.973,2.217-1.956c1.428-3.678,2.055-7.725,1.813-11.702c-0.434-7.135-3.518-13.681-8.682-18.431
	c-4.75-4.37-10.883-6.777-17.27-6.777c-2.896,0-5.732,0.492-8.449,1.466l-5.871-5.399c14.188-24.409,13.639-53.57,13.186-77.416
	c-0.031-1.563-0.059-3.029-0.082-4.438l16.852-14.056l0.266,0.313c0.205,0.215,2.061,2.093,4.33,2.093
	c0.496,0,0.977-0.089,1.354-0.246c1.256,0,4.977,3.778,6.377,5.2c0.197,0.201,0.385,0.391,0.561,0.568
	c-0.967,0.855-1.561,2.027-1.68,3.32c-0.123,1.355,0.291,2.676,1.164,3.717c0.971,1.158,2.393,1.822,3.9,1.822l0,0
	c1.182,0,2.336-0.417,3.254-1.177l9.162-7.636c2.145-1.797,2.434-5.008,0.643-7.154
	C1225.378,41.027,1223.956,40.363,1222.442,40.363z M1033.476,54.053l-0.844,0.259c-2.393,0.733-4.861,1.106-7.338,1.106
	c-6.369,0-12.354-2.386-16.85-6.717c-7.096-6.826-8.957-17.277-4.631-26.005c0.029-0.06,0.094-0.101,0.227-0.119
	c0.072,0,0.145,0.027,0.191,0.071l15.719,15.127c1.381,1.333,3.342,2.098,5.377,2.098c2.033,0,3.99-0.764,5.363-2.09
	c1.457-1.402,2.26-3.268,2.26-5.252c0-1.985-0.803-3.851-2.26-5.249l-15.713-15.129c-0.041-0.04-0.057-0.085-0.051-0.127
	c0.01-0.053,0.055-0.102,0.117-0.13c3.193-1.467,6.762-2.242,10.318-2.242c6.369,0,12.35,2.382,16.842,6.708
	c6.313,6.076,8.539,14.947,5.813,23.152l-0.299,0.897l2.139,2.06c-0.004,0.003-0.008,0.007-0.012,0.009
	c-0.4,0.32-0.766,0.683-1.086,1.082c0,0,0,0,0,0.001c-0.154,0.19-0.295,0.39-0.428,0.597c-0.021,0.033-0.041,0.067-0.063,0.101
	c-0.109,0.176-0.209,0.356-0.303,0.542c-0.023,0.047-0.047,0.096-0.07,0.143c-0.082,0.176-0.158,0.355-0.227,0.538
	c-0.021,0.057-0.043,0.113-0.063,0.171c-0.061,0.178-0.113,0.358-0.16,0.543c-0.016,0.063-0.035,0.126-0.049,0.189
	c-0.041,0.186-0.072,0.374-0.098,0.564c-0.01,0.063-0.023,0.125-0.029,0.188c-0.027,0.25-0.045,0.503-0.045,0.76
	c0,0.001,0,0.002,0,0.003c0,1.106-0.008,2.24-0.018,3.38c-0.029,2.918-0.086,5.881-0.137,8.591c-0.045,2.331-0.09,4.714-0.123,7.138
	L1033.476,54.053z M1047.853,190.412c-0.584,0.672-1.609,0.707-2.242,0.076l-10.375-10.37c-0.314-0.314-0.48-0.718-0.465-1.137
	c0.016-0.42,0.211-0.813,0.572-1.125l32.799-29.405c2.697,3.18,5.73,6.234,9.141,9.136L1047.853,190.412z M1172.276,146.149
	l0.879-0.353c2.625-1.054,5.393-1.588,8.223-1.588c5.631,0,11.043,2.125,15.238,5.985c4.59,4.223,7.332,10.048,7.719,16.404
	c0.215,3.55-0.344,7.158-1.615,10.437c-0.025,0.064-0.068,0.11-0.146,0.125c-0.037,0-0.074-0.016-0.104-0.042l-16.055-14.769
	c-1.475-1.36-3.416-2.053-5.377-1.938c-1.98,0.119-3.793,1.033-5.102,2.571c-2.629,3.073-2.33,7.983,0.652,10.72l16.055,14.777
	c0.057,0.052,0.092,0.146,0.082,0.237c-0.01,0.081-0.049,0.149-0.104,0.182c-3.359,1.926-7.17,2.944-11.02,2.944
	c-5.617,0-11.023-2.127-15.219-5.99c-4.596-4.227-7.34-10.056-7.727-16.412c-0.148-2.474,0.072-4.961,0.66-7.392l0.207-0.858
	l-6.662-6.135c5.063-4.729,9.217-9.817,12.611-15.162L1172.276,146.149z M1177.243,59.921c0.734,38.563,1.738,91.376-62.295,113.572
	c-0.85,0.29-1.744,0.288-2.582,0.002c-58.795-20.38-62.76-66.565-62.445-103.84c0.027-3.322,0.09-6.577,0.148-9.733
	c0.02-0.943,0.037-1.918,0.057-2.912c0.053-2.98,0.1-6.13,0.1-9.107c0-0.244,0.029-0.48,0.072-0.712
	c0.016-0.081,0.037-0.159,0.057-0.238c0.037-0.147,0.082-0.292,0.135-0.433c0.033-0.087,0.066-0.174,0.105-0.258
	c0.061-0.133,0.133-0.258,0.207-0.381c0.045-0.074,0.084-0.152,0.135-0.224c0.121-0.175,0.258-0.34,0.406-0.493
	c0.066-0.068,0.145-0.128,0.215-0.192c0.098-0.086,0.195-0.17,0.299-0.246c0.092-0.065,0.188-0.126,0.283-0.185
	c0.098-0.058,0.197-0.111,0.299-0.161c0.107-0.054,0.217-0.104,0.33-0.147c0.436-0.166,0.902-0.268,1.393-0.268
	c23.666,0,41.699-6.816,56.748-21.452c0.74-0.719,1.713-1.114,2.744-1.114s2.006,0.396,2.746,1.115
	c15.053,14.635,33.086,21.451,56.752,21.451c0.756,0,1.457,0.225,2.057,0.597c0.061,0.037,0.125,0.071,0.184,0.11
	c0.178,0.125,0.344,0.263,0.5,0.413c0.039,0.038,0.074,0.081,0.111,0.12c0.125,0.133,0.242,0.272,0.348,0.421
	c0.031,0.044,0.063,0.086,0.092,0.131c0.125,0.19,0.238,0.391,0.328,0.603c0.008,0.019,0.014,0.039,0.021,0.058
	c0.078,0.194,0.139,0.396,0.188,0.604c0.012,0.057,0.025,0.113,0.035,0.17c0.043,0.23,0.072,0.467,0.072,0.711
	c0,2.499,0.031,5.025,0.078,7.789l0.035,2.199l0.004-0.004C1177.218,58.551,1177.229,59.224,1177.243,59.921z M1223.776,47.04
	l-9.156,7.63c-0.383,0.316-0.844,0.484-1.336,0.484c-0.619,0-1.201-0.273-1.602-0.75c-0.357-0.425-0.525-0.963-0.475-1.516
	c0.051-0.551,0.313-1.047,0.746-1.404l2.721-2.275l-1.676-1.081c-0.365-0.33-0.904-0.878-1.521-1.505
	c-3.285-3.336-6.191-6.097-8.516-6.097c-0.359,0-0.703,0.063-1.012,0.185c-0.807,0.314-2.1-0.702-2.473-1.072l-2.078-2.501
	l-17.291,14.421c-0.014-1.234-0.021-2.453-0.021-3.657c0-0.238-0.012-0.474-0.037-0.708c0-0.004,0-0.008-0.002-0.013
	c-0.023-0.228-0.057-0.452-0.102-0.673c-0.004-0.014-0.008-0.025-0.01-0.039c-0.277-1.316-0.928-2.516-1.871-3.461l14.285-11.914
	l-1.541-1.834c-0.008-0.013-0.879-1.267-0.322-1.891c1.938-2.162,2.518-5.606,1.514-8.987c-1.051-3.537-4.66-9.864-16.992-13.687
	c0.602-0.061,1.217-0.09,1.84-0.09c6.82,0,17.977,3.624,32.396,20.891c2.717,3.803,6.357,10.368,5.605,12.469
	c-0.447,1.2,0.182,2.908,2.486,6.769l0.9,1.508l2.873-2.397c0.854-0.712,2.221-0.585,2.928,0.264
	C1224.772,44.988,1224.653,46.305,1223.776,47.04z"/>
<path fill="none" d="M670.146,115.397c-5.922-6.484-14.439-10.56-23.891-10.56c-17.842,0-32.357,14.516-32.357,32.358
	c0,16.603,12.572,30.317,28.693,32.144c1.203,0.136,2.424,0.213,3.664,0.213c17.842,0,32.357-14.515,32.357-32.356
	C678.613,128.806,675.402,121.153,670.146,115.397z M650.52,119.589c0,0.828-0.672,1.5-1.5,1.5c-9.545,0-17.311,7.765-17.311,17.31
	c0,0.828-0.672,1.5-1.5,1.5h-7.523c-0.828,0-1.5-0.672-1.5-1.5c0-15.348,12.486-27.834,27.834-27.834c0.828,0,1.5,0.672,1.5,1.5
	V119.589z"/>
<polygon fill="none" points="691.65,96.713 691.652,96.712 694,96.305 691.652,96.712 "/>
<path fill="#82878E" d="M548.936,206.514l72.68-24.855c-10.094-5.615-18.08-14.565-22.473-25.353l-50.207,13.901V206.514z"/>
<path fill="#82878E" d="M660.996,73.159l-31.029-6.22l-86.26,5.832l17.639,6.895c0.029,0.012,0.053,0.035,0.082,0.049
	c0.098,0.047,0.193,0.102,0.279,0.168c0.02,0.015,0.045,0.021,0.064,0.038l13.027,11.075c0.014,0.012,0.023,0.027,0.037,0.039
	c0.059,0.053,0.111,0.108,0.16,0.17c0.02,0.023,0.035,0.047,0.053,0.071c0.041,0.059,0.078,0.12,0.111,0.186
	c0.016,0.031,0.031,0.063,0.045,0.095c0.025,0.06,0.045,0.12,0.063,0.184c0.012,0.042,0.021,0.083,0.031,0.127
	c0.004,0.021,0.012,0.04,0.014,0.062c0.006,0.04,0.002,0.079,0.006,0.118c0.002,0.031,0.01,0.061,0.01,0.092v3.387l40.861-5.418
	c0.83-0.104,1.576,0.47,1.686,1.29c0.107,0.821-0.469,1.575-1.291,1.685l-41.256,5.47v18.609l5.252-0.885
	c-0.104-0.787,0.424-1.525,1.213-1.668l21.016-3.813c8.936-14.65,25.068-24.452,43.447-24.452c11.313,0,21.771,3.717,30.227,9.989
	V80.702L660.996,73.159z M643.721,73.319c0.08,0.824-0.523,1.558-1.348,1.639c-6.785,0.662-12.869,1.252-18.334,1.779v2.388v8.815
	c0,0.828-0.672,1.5-1.5,1.5s-1.5-0.672-1.5-1.5v-8.525v-2.388c-34.736,3.346-42.6,3.958-44.592,3.958
	c-0.559,0-0.654-0.048-0.754-0.098c-0.742-0.369-1.045-1.27-0.676-2.011c0.289-0.582,0.91-0.895,1.518-0.822
	c2.496-0.016,40.441-3.634,65.547-6.083C642.902,71.891,643.639,72.494,643.721,73.319z"/>
<path fill="#82878E" d="M544.871,171.326c-0.105,0.026-0.217,0.043-0.33,0.045c-0.01,0-0.02,0.004-0.027,0.004
	c-0.004,0-0.008-0.002-0.012-0.002c-0.184-0.002-0.357-0.039-0.52-0.101c-0.014-0.005-0.025-0.007-0.037-0.012
	c-0.168-0.069-0.318-0.169-0.451-0.291c-0.006-0.007-0.016-0.009-0.023-0.016l-39.729-38.368v26.281l42.193,45.898v-33.729
	l-1.021,0.283C544.9,171.324,544.885,171.322,544.871,171.326z"/>
<path fill="#B6BAC1" d="M690.453,99.965l-8.141,1.413c3.164,3.185,5.902,6.792,8.141,10.717V99.965z"/>
<path fill="#B6BAC1" d="M575.02,125.453c-0.711,0-1.344-0.508-1.475-1.232c-0.148-0.814,0.393-1.596,1.209-1.743l24.402-4.428
	c0.539-1.317,1.131-2.605,1.773-3.865l-18.602,3.375c-0.09,0.017-0.18,0.024-0.27,0.024c-0.711,0-1.342-0.508-1.473-1.232
	c-0.006-0.025-0.004-0.05-0.006-0.075l-5.252,0.885v1.468c0,0.723-0.516,1.343-1.227,1.475l-28.088,5.202v42.598l52.08-14.42
	c-1.734-5.117-2.691-10.591-2.691-16.287c0-5.545,0.904-10.88,2.553-15.88l-22.666,4.112
	C575.199,125.445,575.107,125.453,575.02,125.453z"/>
<polygon fill="#B6BAC1" points="503.742,98.225 503.742,128.415 543.014,166.342 543.014,124.852 "/>
<polygon fill="#E1E2E4" points="632.611,63.747 632.305,64.349 632.873,64.462 643.266,66.545 661.572,70.215 670.783,69.521 
	633.365,62.273 "/>
<polygon fill="#E1E2E4" points="678.262,78.231 690.756,77.045 681.701,71.707 667.123,72.806 "/>
<path fill="#E1E2E4" d="M503.088,94.157l39.926,27.07V96.885l-11.957-11.949L501.5,71.858V93.08l1.572,1.066
	C503.078,94.149,503.082,94.153,503.088,94.157z"/>
<path fill="#E1E2E4" d="M567.855,22.477l97.729,2.893l-9.613-8.194l-96.137-5.226L567.855,22.477z M615.01,17.717l13.209,0.614
	c0.828,0.038,1.469,0.741,1.43,1.568c-0.037,0.804-0.701,1.431-1.498,1.431c-0.023,0-0.047-0.001-0.07-0.002l-13.209-0.615
	c-0.828-0.038-1.469-0.74-1.43-1.568C613.48,18.317,614.197,17.682,615.01,17.717z"/>
<path fill="#E1E2E4" d="M629.117,63.99l18.484-36.152l-80.549-2.383c-0.453-0.014-0.875-0.23-1.15-0.591l-8.68-11.394l-18.205,56.61
	L629.117,63.99z"/>
<path fill="#E1E2E4" d="M532.172,82.147l22.154-2.004L536.9,73.333l-0.533-0.208c-0.021-0.009-0.039-0.021-0.059-0.03
	c-0.041-0.018-0.078-0.039-0.117-0.06c-0.057-0.032-0.113-0.066-0.166-0.105c-0.031-0.024-0.063-0.049-0.094-0.075
	c-0.053-0.047-0.102-0.098-0.148-0.15c-0.016-0.019-0.035-0.033-0.051-0.053c-0.008-0.01-0.012-0.021-0.02-0.03
	c-0.061-0.082-0.113-0.168-0.156-0.26c-0.004-0.01-0.012-0.019-0.016-0.029c-0.043-0.1-0.074-0.206-0.096-0.313
	c-0.006-0.033-0.008-0.065-0.012-0.099c-0.008-0.051-0.008-0.103-0.01-0.154c0-0.028-0.006-0.055-0.004-0.083
	c0.002-0.036,0.004-0.072,0.008-0.109c0.008-0.079,0.023-0.156,0.045-0.235c0.006-0.022,0.006-0.047,0.014-0.069l0.947-2.945
	l-30.154,2.266l-0.201,0.015L532.172,82.147z"/>
<path fill="#B6BAC1" d="M714.775,194.347l-26.326-26.325c-3.756,5.437-8.398,10.08-13.838,13.838l26.326,26.325
	c1.85,1.849,4.307,2.866,6.922,2.866c2.613,0,5.068-1.018,6.914-2.865c1.85-1.848,2.869-4.303,2.869-6.917
	C717.643,198.653,716.623,196.195,714.775,194.347z"/>
<path fill="#E1E2E4" d="M624.23,136.898h4.533c0.734-10.006,8.75-18.021,18.756-18.755v-4.534
	C635.018,114.358,624.979,124.397,624.23,136.898z"/>
<polygon fill="#E1E2E4" points="546.014,122.098 546.014,122.255 555.354,120.524 572.328,117.381 572.328,93.863 546.014,97.567 
	"/>
<polygon fill="#E1E2E4" points="545.045,94.674 570.311,91.118 560.309,82.615 535.248,84.882 "/>
<path d="M614.871,20.713l13.209,0.615c0.023,0.001,0.047,0.002,0.07,0.002c0.797,0,1.461-0.627,1.498-1.431
	c0.039-0.827-0.602-1.53-1.43-1.568l-13.209-0.614c-0.813-0.035-1.529,0.601-1.568,1.428
	C613.402,19.973,614.043,20.675,614.871,20.713z"/>
<path d="M576.535,78.055c-0.607-0.072-1.229,0.24-1.518,0.822c-0.369,0.741-0.066,1.642,0.676,2.011
	c0.1,0.05,0.195,0.098,0.754,0.098c1.992,0,9.855-0.612,44.592-3.958v2.388v8.525c0,0.828,0.672,1.5,1.5,1.5s1.5-0.672,1.5-1.5
	v-8.815v-2.388c5.465-0.527,11.549-1.117,18.334-1.779c0.824-0.081,1.428-0.814,1.348-1.639c-0.082-0.825-0.818-1.429-1.639-1.348
	C616.977,74.421,579.031,78.039,576.535,78.055z"/>
<path d="M574.754,122.478c-0.816,0.147-1.357,0.929-1.209,1.743c0.131,0.725,0.764,1.232,1.475,1.232c0.088,0,0.18-0.008,0.27-0.024
	l22.666-4.112c0.365-1.106,0.766-2.195,1.201-3.267L574.754,122.478z"/>
<path d="M580.58,116.276c0.002,0.025,0,0.05,0.006,0.075c0.131,0.725,0.762,1.232,1.473,1.232c0.09,0,0.18-0.008,0.27-0.024
	l18.602-3.375c0.252-0.491,0.502-0.982,0.768-1.465c0.359-0.648,0.727-1.293,1.111-1.924l-21.016,3.813
	C581.004,114.751,580.477,115.489,580.58,116.276z"/>
<path d="M621.615,181.658l-72.68,24.855v-36.307l50.207-13.901c-0.002-0.004-0.004-0.008-0.004-0.012
	c-0.377-0.924-0.723-1.861-1.045-2.811l-52.08,14.42v-42.598l28.088-5.202c0.711-0.132,1.227-0.752,1.227-1.475v-1.468V98.552
	l41.256-5.47c0.822-0.109,1.398-0.863,1.291-1.685c-0.109-0.82-0.855-1.395-1.686-1.29l-40.861,5.418v-3.387
	c0-0.031-0.008-0.061-0.01-0.092c-0.004-0.039,0-0.078-0.006-0.118c-0.002-0.021-0.01-0.041-0.014-0.062
	c-0.01-0.044-0.02-0.085-0.031-0.127c-0.018-0.063-0.037-0.124-0.063-0.184c-0.014-0.032-0.029-0.063-0.045-0.095
	c-0.033-0.065-0.07-0.127-0.111-0.186c-0.018-0.024-0.033-0.048-0.053-0.071c-0.049-0.062-0.102-0.117-0.16-0.17
	c-0.014-0.012-0.023-0.027-0.037-0.039l-13.027-11.075c-0.02-0.017-0.045-0.023-0.064-0.038c-0.086-0.066-0.182-0.121-0.279-0.168
	c-0.029-0.014-0.053-0.037-0.082-0.049l-17.639-6.895l86.26-5.832l31.029,6.22l15.486,7.543v15.631
	c0.688,0.51,1.363,1.034,2.023,1.577c0.332,0.273,0.652,0.56,0.977,0.841V81.129L694,79.751v16.554l-2.348,0.407
	c0,0-0.002,0-0.002,0.001l-12.098,2.098c0.334,0.29,0.67,0.576,0.996,0.874c0.602,0.55,1.189,1.115,1.764,1.693l8.141-1.413v12.13
	c0.535,0.938,1.049,1.891,1.523,2.864c0.533,1.093,1.021,2.21,1.477,3.344V99.443l2.303-0.399c0.719-0.124,1.244-0.748,1.244-1.478
	V78.101c0-0.02-0.008-0.037-0.008-0.056c-0.002-0.028,0.004-0.057,0-0.085c-0.006-0.059-0.021-0.114-0.033-0.171
	c-0.008-0.033-0.012-0.068-0.021-0.102c-0.031-0.108-0.072-0.212-0.127-0.309c-0.018-0.035-0.043-0.064-0.066-0.098
	c-0.041-0.063-0.084-0.122-0.133-0.178c-0.033-0.036-0.066-0.069-0.104-0.103c-0.057-0.053-0.117-0.099-0.182-0.143
	c-0.023-0.015-0.041-0.036-0.064-0.05l-13.439-7.924c-0.004-0.003-0.01-0.003-0.014-0.005c-0.129-0.074-0.27-0.124-0.416-0.158
	c-0.018-0.004-0.031-0.015-0.047-0.018l-47.559-9.211l16.133-31.556l18.84,0.557c0.619,0.027,1.215-0.366,1.443-0.96
	c0.23-0.594,0.059-1.268-0.426-1.681l-13.246-11.291c-0.012-0.01-0.025-0.016-0.037-0.025c-0.039-0.031-0.082-0.059-0.125-0.086
	c-0.041-0.027-0.082-0.055-0.125-0.077c-0.039-0.021-0.08-0.035-0.121-0.052c-0.051-0.021-0.102-0.043-0.154-0.058
	c-0.037-0.011-0.076-0.017-0.115-0.024c-0.059-0.012-0.117-0.023-0.178-0.027c-0.012-0.001-0.023-0.006-0.037-0.006l-99.885-5.43
	c-0.254-0.018-0.494,0.038-0.711,0.139c-0.01,0.005-0.02,0.009-0.027,0.014c-0.23,0.113-0.428,0.282-0.572,0.494
	c-0.016,0.021-0.027,0.043-0.041,0.064c-0.053,0.088-0.098,0.181-0.133,0.279c-0.006,0.018-0.018,0.031-0.023,0.049l-17.822,55.422
	l-37.537,2.821c-0.012,0.001-0.02,0.008-0.031,0.009c-0.17,0.017-0.332,0.061-0.486,0.132c-0.02,0.009-0.037,0.019-0.059,0.029
	c-0.143,0.074-0.275,0.171-0.389,0.29c-0.016,0.016-0.027,0.031-0.043,0.048c-0.098,0.112-0.188,0.236-0.252,0.381
	c-0.004,0.012-0.006,0.024-0.012,0.036c-0.006,0.016-0.01,0.032-0.016,0.049c-0.063,0.17-0.098,0.344-0.1,0.516
	c0,0.003,0,0.005,0,0.007v24.319c0,0.497,0.246,0.962,0.658,1.241l1.584,1.074v63.262c0,0.376,0.141,0.738,0.395,1.016l45.193,49.16
	c0.008,0.01,0.02,0.016,0.027,0.025c0.035,0.036,0.076,0.066,0.113,0.099c0.039,0.033,0.074,0.067,0.115,0.096
	c0.045,0.031,0.096,0.055,0.143,0.08c0.039,0.021,0.076,0.046,0.117,0.063c0.068,0.029,0.143,0.05,0.215,0.068
	c0.023,0.006,0.047,0.017,0.07,0.021c0.082,0.017,0.168,0.023,0.254,0.026c0.018,0,0.033,0.005,0.049,0.005h0.002
	c0.154,0,0.301-0.03,0.441-0.074c0.014-0.004,0.029-0.002,0.043-0.007l77.453-26.487c-0.826-0.374-1.639-0.768-2.439-1.184
	C622.49,182.132,622.049,181.9,621.615,181.658z M545.936,204.766l-42.193-45.898v-26.281l39.729,38.368
	c0.008,0.007,0.018,0.009,0.023,0.016c0.133,0.122,0.283,0.222,0.451,0.291c0.012,0.005,0.023,0.007,0.037,0.012
	c0.162,0.062,0.336,0.099,0.52,0.101c0.004,0,0.008,0.002,0.012,0.002c0.008,0,0.018-0.004,0.027-0.004
	c0.113-0.002,0.225-0.019,0.33-0.045c0.014-0.004,0.029-0.002,0.043-0.006l1.021-0.283V204.766z M503.742,128.415v-30.19
	l39.271,26.627v41.49L503.742,128.415z M572.328,117.381l-16.975,3.144l-9.34,1.73v-0.157v-24.53l26.314-3.704V117.381z
	 M570.311,91.118l-25.266,3.556l-9.797-9.792l25.061-2.267L570.311,91.118z M665.584,25.369l-97.729-2.893l-8.021-10.527
	l96.137,5.226L665.584,25.369z M565.902,24.864c0.275,0.36,0.697,0.577,1.15,0.591l80.549,2.383L629.117,63.99l-90.1,6.091
	l18.205-56.61L565.902,24.864z M690.756,77.045l-12.494,1.187l-11.139-5.426l14.578-1.099L690.756,77.045z M670.783,69.521
	l-9.211,0.694l-18.307-3.669l-10.393-2.083l-0.568-0.114l0.307-0.602l0.754-1.474L670.783,69.521z M536.434,68.322l-0.947,2.945
	c-0.008,0.022-0.008,0.047-0.014,0.069c-0.021,0.079-0.037,0.156-0.045,0.235c-0.004,0.037-0.006,0.073-0.008,0.109
	c-0.002,0.028,0.004,0.056,0.004,0.083c0.002,0.051,0.002,0.103,0.01,0.154c0.004,0.033,0.006,0.065,0.012,0.099
	c0.021,0.107,0.053,0.214,0.096,0.313c0.004,0.011,0.012,0.02,0.016,0.029c0.043,0.092,0.096,0.178,0.156,0.26
	c0.008,0.01,0.012,0.021,0.02,0.03c0.016,0.02,0.035,0.034,0.051,0.053c0.047,0.053,0.096,0.104,0.148,0.15
	c0.031,0.026,0.063,0.051,0.094,0.075c0.053,0.039,0.109,0.073,0.166,0.105c0.039,0.021,0.076,0.042,0.117,0.06
	c0.02,0.009,0.037,0.021,0.059,0.03l0.533,0.208l17.426,6.811l-22.154,2.004l-26.094-11.544l0.201-0.015L536.434,68.322z
	 M501.5,71.858l29.557,13.077l11.957,11.949v24.343l-39.926-27.07c-0.006-0.004-0.01-0.008-0.016-0.011L501.5,93.08V71.858z"/>
<path d="M716.896,192.226l-27.621-27.619c-0.045-0.045-0.098-0.08-0.146-0.118c-0.303-0.236-0.682-0.356-1.074-0.313
	c-0.451,0.048-0.855,0.299-1.102,0.681c-4.023,6.262-9.242,11.479-15.508,15.508c-0.381,0.245-0.633,0.65-0.68,1.102
	c-0.01,0.09-0.006,0.178,0,0.267c0.025,0.357,0.172,0.697,0.43,0.954l27.621,27.619c2.416,2.415,5.627,3.745,9.043,3.745
	s6.625-1.33,9.035-3.744c2.416-2.412,3.748-5.622,3.748-9.038S719.311,194.641,716.896,192.226z M714.773,208.186
	c-1.846,1.848-4.301,2.865-6.914,2.865c-2.615,0-5.072-1.018-6.922-2.866l-26.326-26.325c5.439-3.758,10.082-8.401,13.838-13.838
	l26.326,26.325c1.848,1.849,2.867,4.307,2.867,6.922C717.643,203.883,716.623,206.338,714.773,208.186z"/>
<path fill="#E1E2E4" d="M675.529,104.858c-7.748-7.021-18.02-11.305-29.273-11.305c-24.064,0-43.643,19.578-43.643,43.643
	c0,19.593,12.979,36.209,30.791,41.708c4.064,1.255,8.379,1.934,12.852,1.934c24.064,0,43.641-19.577,43.641-43.642
	C689.896,124.387,684.35,112.849,675.529,104.858z M646.256,172.553c-1.736,0-3.443-0.132-5.113-0.374
	c-17.082-2.486-30.244-17.223-30.244-34.982c0-19.497,15.861-35.358,35.357-35.358c9.928,0,18.908,4.119,25.336,10.731
	c6.195,6.371,10.021,15.059,10.021,24.627C681.613,156.692,665.752,172.553,646.256,172.553z"/>
<path fill="#FFFFFF" d="M600.93,114.185c-0.643,1.26-1.234,2.548-1.773,3.865c-0.436,1.071-0.836,2.16-1.201,3.267l0.855-0.155l0,0
	c0.369-1.106,0.771-2.197,1.213-3.269l-0.055,0.011c1.078-2.822,2.014-4.764,2.221-5.182c0.379-0.686,0.77-1.363,1.182-2.028
	l-0.563,0.103c-0.385,0.631-0.752,1.275-1.111,1.924C601.432,113.202,601.182,113.693,600.93,114.185z"/>
<path fill="#FFFFFF" d="M622.141,181.479l-0.525,0.18c0.434,0.242,0.875,0.474,1.318,0.702c0.801,0.416,1.613,0.81,2.439,1.184
	l0.578-0.198c-0.832-0.368-1.65-0.761-2.459-1.169C623.039,181.948,622.586,181.722,622.141,181.479z"/>
<polygon fill="#FFFFFF" points="599.547,156.193 599.139,156.294 599.143,156.306 "/>
<path fill="#FFFFFF" d="M598.484,153.376c0.365,1.203,0.732,2.177,1.063,2.817c-0.377-0.927-0.727-1.868-1.049-2.821
	L598.484,153.376z"/>
<path d="M692.896,137.196c0-13.979-6.189-26.531-15.961-35.087c-8.209-7.186-18.941-11.555-30.68-11.555
	c-25.719,0-46.643,20.924-46.643,46.643c0,19.541,12.086,36.304,29.17,43.233c5.4,2.19,11.295,3.408,17.473,3.408
	C671.973,183.838,692.896,162.915,692.896,137.196z M646.256,180.838c-4.473,0-8.787-0.679-12.852-1.934
	c-17.813-5.499-30.791-22.115-30.791-41.708c0-24.064,19.578-43.643,43.643-43.643c11.254,0,21.525,4.284,29.273,11.305
	c8.82,7.99,14.367,19.528,14.367,32.338C689.896,161.261,670.32,180.838,646.256,180.838z"/>
<path d="M671.592,112.569c-6.428-6.612-15.408-10.731-25.336-10.731c-19.496,0-35.357,15.861-35.357,35.358
	c0,17.76,13.162,32.496,30.244,34.982c1.67,0.242,3.377,0.374,5.113,0.374c19.496,0,35.357-15.86,35.357-35.356
	C681.613,127.628,677.787,118.94,671.592,112.569z M646.256,169.553c-1.24,0-2.461-0.077-3.664-0.213
	c-16.121-1.826-28.693-15.541-28.693-32.144c0-17.843,14.516-32.358,32.357-32.358c9.451,0,17.969,4.075,23.891,10.56
	c5.256,5.756,8.467,13.408,8.467,21.799C678.613,155.038,664.098,169.553,646.256,169.553z"/>
<path d="M649.02,110.564c-15.348,0-27.834,12.486-27.834,27.834c0,0.828,0.672,1.5,1.5,1.5h7.523c0.828,0,1.5-0.672,1.5-1.5
	c0-9.545,7.766-17.31,17.311-17.31c0.828,0,1.5-0.672,1.5-1.5v-7.524C650.52,111.236,649.848,110.564,649.02,110.564z
	 M647.52,118.144c-10.006,0.734-18.021,8.749-18.756,18.755h-4.533c0.748-12.501,10.787-22.54,23.289-23.289V118.144z"/>
<polygon fill="#FFFFFF" points="822.057,170.366 860.105,151.342 860.105,101.551 832.088,120.229 "/>
<path fill="#82878E" d="M975.914,53.569c2.141-4.639,3.238-9.658,3.238-14.867C979.152,19.016,963.137,3,943.451,3
	c-19.688,0-35.703,16.016-35.703,35.702c0,5.215,1.098,10.234,3.264,14.92l32.439,63.621L975.914,53.569z M919.627,38.702
	c0-13.135,10.688-23.82,23.824-23.82c13.133,0,23.818,10.686,23.818,23.82c0,13.134-10.686,23.819-23.818,23.819
	C930.314,62.521,919.627,51.836,919.627,38.702z"/>
<path fill="none" d="M964.27,38.702c0-11.48-9.34-20.82-20.818-20.82c-11.482,0-20.824,9.34-20.824,20.82
	c0,11.479,9.342,20.819,20.824,20.819C954.93,59.521,964.27,50.182,964.27,38.702z"/>
<polygon fill="#B6BAC1" points="771.979,157.862 803.205,173.476 814.188,118.612 799.123,103.547 "/>
<polygon fill="#B6BAC1" points="904.598,119.291 877.988,101.551 877.988,151.342 916.02,170.365 905.988,120.226 "/>
<path fill="#E1E2E4" d="M956.26,131.465l13.207,26.397c0.178,0.355,0.207,0.768,0.08,1.146c-0.125,0.377-0.396,0.689-0.752,0.867
	l-34.338,17.161c-0.418,0.209-0.91,0.211-1.33,0.006c-0.42-0.206-0.721-0.595-0.811-1.054l-11.51-57.576
	c-0.1-0.491,0.055-1,0.41-1.354l1.365-1.367l-5.66-11.137l-2.172,2.171c-0.504,0.506-1.297,0.584-1.893,0.188l-43.811-29.206
	l-43.811,29.206c-0.596,0.396-1.389,0.317-1.893-0.188l-28.289-28.289l-43.041,86.082l57.51,28.755l58.852-29.426
	c0.213-0.105,0.441-0.158,0.672-0.158s0.459,0.053,0.67,0.158l58.852,29.426l57.512-28.755l-23.113-46.208L956.26,131.465z
	 M817.287,118.414l-11.525,57.576c-0.092,0.458-0.393,0.848-0.813,1.053c-0.207,0.102-0.434,0.152-0.658,0.152
	c-0.23,0-0.461-0.053-0.672-0.158l-34.324-17.162c-0.74-0.37-1.041-1.271-0.67-2.013l28.744-57.52
	c0.217-0.431,0.627-0.732,1.102-0.81c0.479-0.075,0.961,0.08,1.301,0.42l17.105,17.104
	C817.232,117.412,817.387,117.921,817.287,118.414z M863.105,152.269c0,0.568-0.32,1.088-0.828,1.342l-41.621,20.811
	c-0.213,0.106-0.443,0.158-0.672,0.158c-0.322,0-0.645-0.104-0.91-0.308c-0.455-0.348-0.674-0.925-0.561-1.486l10.754-53.754
	c0.078-0.391,0.309-0.733,0.639-0.954L860.773,97.5c0.459-0.307,1.051-0.337,1.541-0.074c0.486,0.261,0.791,0.77,0.791,1.322
	V152.269z M918.111,174.579c-0.006-0.001-0.014,0-0.02,0c-0.229,0-0.459-0.052-0.672-0.158l-41.604-20.811
	c-0.508-0.255-0.828-0.773-0.828-1.342V98.748c0-0.553,0.305-1.062,0.791-1.322c0.49-0.263,1.08-0.232,1.541,0.074l30.854,20.58
	c0.33,0.221,0.559,0.563,0.635,0.951l10.707,53.518c0.063,0.165,0.096,0.344,0.096,0.53
	C919.611,173.907,918.939,174.579,918.111,174.579z"/>
<path d="M943.451,122.046c0.563,0,1.08-0.316,1.336-0.818l33.824-66.348c2.35-5.089,3.541-10.531,3.541-16.178
	C982.152,17.361,964.791,0,943.451,0c-21.342,0-38.703,17.361-38.703,38.702c0,5.652,1.191,11.096,3.564,16.23l33.801,66.295
	C942.371,121.729,942.887,122.046,943.451,122.046z M907.748,38.702C907.748,19.016,923.764,3,943.451,3
	c19.686,0,35.701,16.016,35.701,35.702c0,5.209-1.098,10.229-3.238,14.867l-32.463,63.674l-32.439-63.621
	C908.846,48.937,907.748,43.917,907.748,38.702z"/>
<path d="M967.27,38.702c0-13.135-10.686-23.82-23.818-23.82c-13.137,0-23.824,10.686-23.824,23.82
	c0,13.134,10.688,23.819,23.824,23.819C956.584,62.521,967.27,51.836,967.27,38.702z M922.627,38.702
	c0-11.48,9.342-20.82,20.824-20.82c11.479,0,20.818,9.34,20.818,20.82c0,11.479-9.34,20.819-20.818,20.819
	C931.969,59.521,922.627,50.182,922.627,38.702z"/>
<path d="M964.32,114.311c-0.252-0.506-0.77-0.827-1.334-0.829c-0.002,0-0.004,0-0.006,0c-0.564,0-1.08,0.316-1.338,0.818
	l-8.398,16.477c-0.217,0.425-0.219,0.927-0.006,1.353l12.873,25.733l-31.238,15.612l-10.969-54.863l1.57-1.569
	c0.459-0.459,0.57-1.161,0.275-1.74l-7.09-13.95c-0.219-0.429-0.627-0.727-1.102-0.802c-0.477-0.075-0.957,0.082-1.297,0.421
	l-2.764,2.763l-43.619-29.078c-0.504-0.336-1.16-0.336-1.664,0l-43.619,29.078l-28.891-28.891c-0.34-0.34-0.822-0.496-1.301-0.42
	c-0.477,0.077-0.887,0.378-1.102,0.81l-44.645,89.285c-0.178,0.355-0.207,0.768-0.08,1.146c0.125,0.377,0.396,0.689,0.752,0.867
	l59.521,29.761c0.424,0.211,0.92,0.211,1.342,0l58.854-29.426l58.852,29.426c0.211,0.105,0.439,0.158,0.67,0.158
	s0.459-0.053,0.672-0.158l59.523-29.761c0.355-0.178,0.627-0.49,0.752-0.867c0.125-0.378,0.096-0.79-0.082-1.146L964.32,114.311z
	 M928.568,193.272l-58.852-29.426c-0.211-0.105-0.439-0.158-0.67-0.158s-0.459,0.053-0.672,0.158l-58.852,29.426l-57.51-28.755
	l43.041-86.082l28.289,28.289c0.504,0.505,1.297,0.583,1.893,0.188l43.811-29.206l43.811,29.206
	c0.596,0.396,1.389,0.318,1.893-0.188l2.172-2.171l5.66,11.137l-1.365,1.367c-0.355,0.354-0.51,0.863-0.41,1.354l11.51,57.576
	c0.09,0.459,0.391,0.848,0.811,1.054c0.42,0.205,0.912,0.203,1.33-0.006l34.338-17.161c0.355-0.178,0.627-0.49,0.752-0.867
	c0.127-0.378,0.098-0.79-0.08-1.146l-13.207-26.397l6.707-13.155l23.113,46.208L928.568,193.272z"/>
<path d="M799.771,99.953c-0.34-0.34-0.822-0.495-1.301-0.42c-0.475,0.077-0.885,0.379-1.102,0.81l-28.744,57.52
	c-0.371,0.741-0.07,1.643,0.67,2.013l34.324,17.162c0.211,0.105,0.441,0.158,0.672,0.158c0.225,0,0.451-0.051,0.658-0.152
	c0.42-0.205,0.721-0.595,0.813-1.053l11.525-57.576c0.1-0.493-0.055-1.002-0.41-1.356L799.771,99.953z M803.205,173.476
	l-31.227-15.613l27.145-54.315l15.064,15.065L803.205,173.476z"/>
<path d="M862.314,97.426c-0.49-0.263-1.082-0.232-1.541,0.074l-30.867,20.577c-0.33,0.221-0.561,0.563-0.639,0.954l-10.754,53.754
	c-0.113,0.562,0.105,1.139,0.561,1.486c0.266,0.203,0.588,0.308,0.91,0.308c0.229,0,0.459-0.052,0.672-0.158l41.621-20.811
	c0.508-0.254,0.828-0.773,0.828-1.342V98.748C863.105,98.195,862.801,97.687,862.314,97.426z M860.105,151.342l-38.049,19.024
	l10.031-50.138l28.018-18.678V151.342z"/>
<path d="M908.809,119.031c-0.076-0.389-0.305-0.73-0.635-0.951L877.32,97.5c-0.461-0.307-1.051-0.337-1.541-0.074
	c-0.486,0.261-0.791,0.77-0.791,1.322v53.521c0,0.568,0.32,1.087,0.828,1.342l41.604,20.811c0.213,0.106,0.443,0.158,0.672,0.158
	c0.006,0,0.014-0.001,0.02,0c0.828,0,1.5-0.672,1.5-1.5c0-0.187-0.033-0.365-0.096-0.53L908.809,119.031z M877.988,151.342v-49.791
	l26.609,17.74l1.391,0.935l10.031,50.14L877.988,151.342z"/>
<path fill="none" d="M76.305,117.731c3.231,0,5.86-2.629,5.86-5.859c0-3.231-2.629-5.86-5.86-5.86c-3.23,0-5.859,2.629-5.859,5.86
	C70.445,115.103,73.074,117.731,76.305,117.731z"/>
<path fill="none" d="M106.727,117.731c3.23,0,5.859-2.629,5.859-5.859c0-3.231-2.629-5.86-5.859-5.86s-5.859,2.629-5.859,5.86
	C100.867,115.103,103.496,117.731,106.727,117.731z"/>
<path fill="none" d="M45.883,117.731c3.232,0,5.861-2.629,5.861-5.859c0-3.231-2.629-5.86-5.861-5.86
	c-3.23,0-5.859,2.629-5.859,5.86C40.023,115.103,42.652,117.731,45.883,117.731z"/>
<path fill="none" d="M137.148,117.731c3.23,0,5.859-2.629,5.859-5.859c0-3.231-2.629-5.86-5.859-5.86c-3.231,0-5.86,2.629-5.86,5.86
	C131.288,115.103,133.917,117.731,137.148,117.731z"/>
<path fill="none" d="M167.57,117.731c3.23,0,5.859-2.629,5.859-5.859c0-3.231-2.629-5.86-5.859-5.86
	c-3.232,0-5.861,2.629-5.861,5.86C161.709,115.103,164.338,117.731,167.57,117.731z"/>
<path fill="#82878E" d="M156.109,62.22h-35.052h-12.831v22.5h47.883V62.22z M115.586,79.705c0,0.829-0.671,1.5-1.5,1.5
	c-0.828,0-1.5-0.671-1.5-1.5v-13c0-0.829,0.672-1.5,1.5-1.5c0.829,0,1.5,0.671,1.5,1.5V79.705z M121.572,79.705
	c0,0.829-0.672,1.5-1.5,1.5c-0.829,0-1.5-0.671-1.5-1.5v-13c0-0.829,0.671-1.5,1.5-1.5c0.828,0,1.5,0.671,1.5,1.5V79.705z
	 M127.557,79.705c0,0.829-0.671,1.5-1.5,1.5c-0.828,0-1.5-0.671-1.5-1.5v-13c0-0.829,0.672-1.5,1.5-1.5c0.829,0,1.5,0.671,1.5,1.5
	V79.705z M133.543,79.705c0,0.829-0.672,1.5-1.5,1.5c-0.829,0-1.5-0.671-1.5-1.5v-13c0-0.829,0.671-1.5,1.5-1.5
	c0.828,0,1.5,0.671,1.5,1.5V79.705z M139.527,79.705c0,0.829-0.671,1.5-1.5,1.5c-0.828,0-1.5-0.671-1.5-1.5v-13
	c0-0.829,0.672-1.5,1.5-1.5c0.829,0,1.5,0.671,1.5,1.5V79.705z M145.513,79.705c0,0.829-0.671,1.5-1.5,1.5s-1.5-0.671-1.5-1.5v-13
	c0-0.829,0.671-1.5,1.5-1.5s1.5,0.671,1.5,1.5V79.705z M151.498,79.705c0,0.829-0.672,1.5-1.5,1.5s-1.5-0.671-1.5-1.5v-13
	c0-0.829,0.672-1.5,1.5-1.5s1.5,0.671,1.5,1.5V79.705z"/>
<path fill="none" d="M89.422,133.383c-4.781,0-7.07,2.126-9.72,4.589c-1.058,0.981-2.172,2.013-3.486,2.908
	c8.503-0.012,17.428-0.031,26.331-0.055c-1.279-0.883-2.369-1.893-3.404-2.854C96.492,135.509,94.204,133.383,89.422,133.383z"/>
<path fill="#E1E2E4" d="M34.7,135.772c2.72-2.525,5.802-5.39,11.761-5.39s9.041,2.864,11.762,5.39
	c2.649,2.463,4.938,4.588,9.719,4.588c4.78,0,7.068-2.125,9.719-4.588c2.72-2.525,5.803-5.39,11.762-5.39
	c5.961,0,9.043,2.863,11.764,5.39c2.65,2.463,4.939,4.588,9.721,4.588s7.07-2.125,9.721-4.588c2.721-2.526,5.803-5.39,11.764-5.39
	c5.959,0,9.042,2.863,11.762,5.39c2.65,2.463,4.939,4.588,9.721,4.588c4.783,0,7.072-2.126,9.723-4.588
	c2.72-2.526,5.803-5.39,11.763-5.39c5.962,0,9.044,2.864,11.765,5.39c0.597,0.555,1.176,1.09,1.768,1.589
	c19.174-16.263,26.851-42.564,28.627-49.641H95.488c-0.002,0-0.005,0-0.005,0l-72.997-0.021c-0.002,0-0.004,0-0.006,0H5.131
	l17.048,52.371c0.837,0.185,1.758,0.291,2.804,0.291C29.763,140.36,32.051,138.235,34.7,135.772z M167.57,103.012
	c4.885,0,8.859,3.975,8.859,8.86c0,4.885-3.975,8.859-8.859,8.859c-4.887,0-8.861-3.975-8.861-8.859
	C158.709,106.986,162.684,103.012,167.57,103.012z M137.148,103.012c4.885,0,8.859,3.975,8.859,8.86
	c0,4.885-3.975,8.859-8.859,8.859c-4.886,0-8.86-3.975-8.86-8.859C128.288,106.986,132.263,103.012,137.148,103.012z
	 M106.727,103.012c4.885,0,8.859,3.975,8.859,8.86c0,4.885-3.975,8.859-8.859,8.859s-8.859-3.975-8.859-8.859
	C97.867,106.986,101.842,103.012,106.727,103.012z M76.305,103.012c4.886,0,8.86,3.975,8.86,8.86c0,4.885-3.975,8.859-8.86,8.859
	c-4.885,0-8.859-3.975-8.859-8.859C67.445,106.986,71.42,103.012,76.305,103.012z M45.883,103.012c4.887,0,8.861,3.975,8.861,8.86
	c0,4.885-3.975,8.859-8.861,8.859c-4.885,0-8.859-3.975-8.859-8.859C37.023,106.986,40.998,103.012,45.883,103.012z"/>
<path fill="none" d="M46.461,133.383c-4.781,0-7.069,2.126-9.719,4.588c-1.034,0.96-2.121,1.97-3.398,2.852
	c6.442,0.046,15.197,0.069,26.342,0.07c-1.322-0.899-2.443-1.935-3.506-2.922C53.53,135.509,51.242,133.383,46.461,133.383z"/>
<path fill="none" d="M132.391,133.383c-4.782,0-7.07,2.126-9.721,4.588c-1.017,0.944-2.084,1.935-3.332,2.806
	c6.145-0.019,12.132-0.038,17.785-0.057c2.804-0.009,5.543-0.018,8.206-0.025c-1.199-0.852-2.234-1.809-3.219-2.724
	C139.461,135.509,137.172,133.383,132.391,133.383z"/>
<path fill="none" d="M175.358,133.383c-4.782,0-7.071,2.126-9.722,4.588c-0.965,0.896-1.979,1.833-3.148,2.672
	c10.917-0.028,18.972-0.039,22.194-0.011c0.624-0.44,1.232-0.896,1.835-1.357c-0.497-0.434-0.973-0.873-1.436-1.303
	C182.431,135.509,180.142,133.383,175.358,133.383z"/>
<path fill="#B6BAC1" d="M93.816,71.241L63.53,71.969c-0.669,0.042-1.287-0.428-1.478-1.082L56.991,53.42H33.773l3.631,16.731
	c0.096,0.441-0.012,0.903-0.294,1.255s-0.708,0.56-1.159,0.563c-5.07,0.039-5.813,0.078-6.529,0.116
	c-0.701,0.037-1.367,0.072-5.201,0.107L24.012,84.7l69.959,0.02L93.816,71.241z"/>
<path fill="#E1E2E4" d="M157.785,59.22h12.654v-22.5h-47.882v22.5h35.052H157.785z M162.954,41.205c0-0.829,0.671-1.5,1.5-1.5
	s1.5,0.671,1.5,1.5v13c0,0.829-0.671,1.5-1.5,1.5s-1.5-0.671-1.5-1.5V41.205z M130.043,54.205c0,0.829-0.672,1.5-1.5,1.5
	c-0.829,0-1.5-0.671-1.5-1.5v-13c0-0.829,0.671-1.5,1.5-1.5c0.828,0,1.5,0.671,1.5,1.5V54.205z M136.027,54.205
	c0,0.829-0.671,1.5-1.5,1.5c-0.828,0-1.5-0.671-1.5-1.5v-13c0-0.829,0.672-1.5,1.5-1.5c0.829,0,1.5,0.671,1.5,1.5V54.205z
	 M142.014,54.205c0,0.829-0.672,1.5-1.5,1.5c-0.829,0-1.5-0.671-1.5-1.5v-13c0-0.829,0.671-1.5,1.5-1.5c0.828,0,1.5,0.671,1.5,1.5
	V54.205z M147.998,54.205c0,0.829-0.671,1.5-1.5,1.5c-0.828,0-1.5-0.671-1.5-1.5v-13c0-0.829,0.672-1.5,1.5-1.5
	c0.829,0,1.5,0.671,1.5,1.5V54.205z M153.983,54.205c0,0.829-0.671,1.5-1.5,1.5s-1.5-0.671-1.5-1.5v-13c0-0.829,0.671-1.5,1.5-1.5
	s1.5,0.671,1.5,1.5V54.205z M156.969,54.205v-13c0-0.829,0.672-1.5,1.5-1.5s1.5,0.671,1.5,1.5v13c0,0.829-0.672,1.5-1.5,1.5
	S156.969,55.034,156.969,54.205z"/>
<path fill="#B6BAC1" d="M159.285,84.72h47.882v-22.5h-35.228h-12.654V84.72z M199.682,66.705c0-0.829,0.672-1.5,1.5-1.5
	s1.5,0.671,1.5,1.5v13c0,0.829-0.672,1.5-1.5,1.5s-1.5-0.671-1.5-1.5V66.705z M193.696,66.705c0-0.829,0.671-1.5,1.5-1.5
	s1.5,0.671,1.5,1.5v13c0,0.829-0.671,1.5-1.5,1.5s-1.5-0.671-1.5-1.5V66.705z M187.711,66.705c0-0.829,0.672-1.5,1.5-1.5
	s1.5,0.671,1.5,1.5v13c0,0.829-0.672,1.5-1.5,1.5s-1.5-0.671-1.5-1.5V66.705z M181.727,66.705c0-0.829,0.671-1.5,1.5-1.5
	c0.828,0,1.5,0.671,1.5,1.5v13c0,0.829-0.672,1.5-1.5,1.5c-0.829,0-1.5-0.671-1.5-1.5V66.705z M175.74,66.705
	c0-0.829,0.672-1.5,1.5-1.5c0.829,0,1.5,0.671,1.5,1.5v13c0,0.829-0.671,1.5-1.5,1.5c-0.828,0-1.5-0.671-1.5-1.5V66.705z
	 M169.756,66.705c0-0.829,0.671-1.5,1.5-1.5c0.828,0,1.5,0.671,1.5,1.5v13c0,0.829-0.672,1.5-1.5,1.5c-0.829,0-1.5-0.671-1.5-1.5
	V66.705z M163.77,66.705c0-0.829,0.672-1.5,1.5-1.5c0.829,0,1.5,0.671,1.5,1.5v13c0,0.829-0.671,1.5-1.5,1.5
	c-0.828,0-1.5-0.671-1.5-1.5V66.705z"/>
<path d="M18.508,138.484c1.061,0.71,2.236,1.269,3.671,1.585L5.131,87.699h17.35c0.002,0,0.004,0,0.006,0l72.998,0.021
	c0,0,0.002,0,0.004,0h122.029c-1.776,7.076-9.453,33.378-28.627,49.641c0.798,0.673,1.623,1.275,2.552,1.763
	c22.481-19.458,29.146-51.165,29.438-52.605c0.09-0.441-0.023-0.899-0.309-1.248c-0.285-0.348-0.711-0.55-1.161-0.55h-9.244v-24
	c0-0.829-0.671-1.5-1.5-1.5h-35.228v-24c0-0.829-0.671-1.5-1.5-1.5h-50.882c-0.829,0-1.5,0.671-1.5,1.5v24h-12.831
	c-0.828,0-1.5,0.671-1.5,1.5v24h-8.256l-0.172-15.033c-0.006-0.401-0.17-0.784-0.459-1.063c-0.288-0.278-0.668-0.445-1.078-0.42
	l-30.648,0.737l-5.055-17.44c-0.186-0.641-0.773-1.083-1.44-1.083H31.913c-0.454,0-0.883,0.206-1.168,0.559
	c-0.284,0.353-0.394,0.816-0.298,1.26l3.635,16.748c-3.492,0.034-4.139,0.068-4.817,0.104c-0.716,0.038-1.455,0.077-6.53,0.115
	c-0.814,0.006-1.476,0.661-1.489,1.475l-0.233,14.019H3.065c-0.48,0-0.932,0.23-1.214,0.619s-0.361,0.889-0.213,1.346
	L18.508,138.484z M207.167,62.22v22.5h-47.882v-22.5h12.654H207.167z M122.558,36.72h47.882v22.5h-12.654h-0.176h-35.052V36.72z
	 M108.227,62.22h12.831h35.052v22.5h-47.883V62.22z M24.221,72.193c3.834-0.035,4.5-0.07,5.201-0.107
	c0.717-0.038,1.459-0.077,6.529-0.116c0.451-0.003,0.877-0.21,1.159-0.563s0.39-0.814,0.294-1.255L33.773,53.42h23.218l5.062,17.467
	c0.19,0.654,0.809,1.125,1.478,1.082l30.286-0.728l0.154,13.479L24.012,84.7L24.221,72.193z"/>
<polygon points="95.488,87.721 95.484,87.72 22.486,87.699 95.483,87.72 "/>
<path d="M45.883,120.731c4.887,0,8.861-3.975,8.861-8.859c0-4.886-3.975-8.86-8.861-8.86c-4.885,0-8.859,3.975-8.859,8.86
	C37.023,116.757,40.998,120.731,45.883,120.731z M45.883,106.012c3.232,0,5.861,2.629,5.861,5.86c0,3.23-2.629,5.859-5.861,5.859
	c-3.23,0-5.859-2.629-5.859-5.859C40.023,108.641,42.652,106.012,45.883,106.012z"/>
<path d="M76.305,120.731c4.886,0,8.86-3.975,8.86-8.859c0-4.886-3.975-8.86-8.86-8.86c-4.885,0-8.859,3.975-8.859,8.86
	C67.445,116.757,71.42,120.731,76.305,120.731z M76.305,106.012c3.231,0,5.86,2.629,5.86,5.86c0,3.23-2.629,5.859-5.86,5.859
	c-3.23,0-5.859-2.629-5.859-5.859C70.445,108.641,73.074,106.012,76.305,106.012z"/>
<path d="M106.727,120.731c4.885,0,8.859-3.975,8.859-8.859c0-4.886-3.975-8.86-8.859-8.86s-8.859,3.975-8.859,8.86
	C97.867,116.757,101.842,120.731,106.727,120.731z M106.727,106.012c3.23,0,5.859,2.629,5.859,5.86c0,3.23-2.629,5.859-5.859,5.859
	s-5.859-2.629-5.859-5.859C100.867,108.641,103.496,106.012,106.727,106.012z"/>
<path d="M137.148,120.731c4.885,0,8.859-3.975,8.859-8.859c0-4.886-3.975-8.86-8.859-8.86c-4.886,0-8.86,3.975-8.86,8.86
	C128.288,116.757,132.263,120.731,137.148,120.731z M137.148,106.012c3.23,0,5.859,2.629,5.859,5.86c0,3.23-2.629,5.859-5.859,5.859
	c-3.231,0-5.86-2.629-5.86-5.859C131.288,108.641,133.917,106.012,137.148,106.012z"/>
<path d="M167.57,120.731c4.885,0,8.859-3.975,8.859-8.859c0-4.886-3.975-8.86-8.859-8.86c-4.887,0-8.861,3.975-8.861,8.86
	C158.709,116.757,162.684,120.731,167.57,120.731z M167.57,106.012c3.23,0,5.859,2.629,5.859,5.86c0,3.23-2.629,5.859-5.859,5.859
	c-3.232,0-5.861-2.629-5.861-5.859C161.709,108.641,164.338,106.012,167.57,106.012z"/>
<g>
	<path d="M222.334,146.197c-5.961,0-9.044,2.863-11.764,5.39c-2.652,2.462-4.941,4.588-9.725,4.588
		c-4.782,0-7.071-2.125-9.723-4.588c-2.721-2.525-5.803-5.39-11.765-5.39c-5.96,0-9.043,2.863-11.763,5.39
		c-2.65,2.462-4.939,4.588-9.723,4.588c-4.781,0-7.07-2.125-9.721-4.588c-2.72-2.526-5.803-5.39-11.762-5.39
		c-5.961,0-9.043,2.863-11.764,5.39c-2.65,2.463-4.939,4.588-9.721,4.588s-7.07-2.125-9.721-4.588
		c-2.721-2.526-5.803-5.39-11.764-5.39c-5.959,0-9.042,2.864-11.762,5.39c-2.65,2.463-4.938,4.588-9.719,4.588
		c-4.781,0-7.069-2.125-9.719-4.588c-2.721-2.525-5.803-5.39-11.762-5.39s-9.041,2.864-11.761,5.39
		c-2.649,2.463-4.938,4.588-9.718,4.588c-4.781,0-7.07-2.125-9.721-4.588c-2.719-2.526-5.802-5.39-11.762-5.39
		c-0.828,0-1.5,0.671-1.5,1.5s0.672,1.5,1.5,1.5c4.781,0,7.07,2.126,9.721,4.588c2.719,2.526,5.802,5.39,11.762,5.39
		c5.959,0,9.041-2.863,11.76-5.39c2.649-2.462,4.938-4.588,9.719-4.588s7.069,2.126,9.719,4.588c2.721,2.526,5.803,5.39,11.762,5.39
		s9.041-2.863,11.761-5.389c2.649-2.463,4.938-4.589,9.72-4.589c4.782,0,7.07,2.126,9.721,4.588c2.721,2.526,5.803,5.39,11.764,5.39
		s9.043-2.863,11.764-5.39c2.65-2.462,4.938-4.588,9.721-4.588c4.781,0,7.07,2.126,9.72,4.588c2.72,2.526,5.803,5.39,11.763,5.39
		c5.961,0,9.044-2.863,11.764-5.39c2.65-2.462,4.939-4.588,9.722-4.588c4.783,0,7.072,2.126,9.724,4.589
		c2.721,2.525,5.803,5.389,11.764,5.389c5.962,0,9.045-2.863,11.766-5.39c2.65-2.462,4.939-4.588,9.723-4.588
		c0.828,0,1.5-0.671,1.5-1.5S223.162,146.197,222.334,146.197z"/>
	<path d="M3.5,133.383c4.781,0,7.07,2.126,9.721,4.588c1.795,1.668,3.755,3.478,6.591,4.519c1.459,0.536,3.146,0.871,5.171,0.871
		c3.693,0,6.28-1.101,8.361-2.538c1.277-0.882,2.364-1.892,3.398-2.852c2.649-2.462,4.938-4.588,9.719-4.588
		s7.069,2.126,9.719,4.588c1.063,0.987,2.184,2.022,3.506,2.922c2.063,1.402,4.624,2.468,8.256,2.468
		c3.643,0,6.207-1.071,8.274-2.48c1.314-0.896,2.429-1.927,3.486-2.908c2.649-2.463,4.938-4.589,9.72-4.589
		c4.782,0,7.07,2.126,9.721,4.588c1.035,0.962,2.125,1.972,3.404,2.854c2.081,1.436,4.668,2.535,8.359,2.535
		c3.734,0,6.338-1.123,8.432-2.584c1.248-0.871,2.315-1.861,3.332-2.806c2.65-2.462,4.938-4.588,9.721-4.588
		c4.781,0,7.07,2.126,9.72,4.588c0.984,0.915,2.02,1.872,3.219,2.724c2.112,1.5,4.741,2.666,8.544,2.666
		c3.846,0,6.49-1.193,8.615-2.718c1.169-0.839,2.184-1.775,3.148-2.672c2.65-2.462,4.939-4.588,9.722-4.588
		c4.783,0,7.072,2.126,9.724,4.589c0.463,0.43,0.938,0.869,1.436,1.303c0.754,0.659,1.562,1.304,2.465,1.879
		c1.995,1.271,4.459,2.207,7.863,2.207c5.962,0,9.045-2.863,11.766-5.39c2.65-2.462,4.939-4.588,9.723-4.588
		c0.828,0,1.5-0.671,1.5-1.5s-0.672-1.5-1.5-1.5c-5.961,0-9.044,2.863-11.764,5.39c-2.652,2.462-4.941,4.588-9.725,4.588
		c-2.258,0-3.956-0.477-5.403-1.236c-0.929-0.487-1.754-1.09-2.552-1.763c-0.592-0.499-1.171-1.034-1.768-1.589
		c-2.721-2.525-5.803-5.39-11.765-5.39c-5.96,0-9.043,2.863-11.763,5.39c-2.65,2.462-4.939,4.588-9.723,4.588
		c-4.781,0-7.07-2.125-9.721-4.588c-2.72-2.526-5.803-5.39-11.762-5.39c-5.961,0-9.043,2.863-11.764,5.39
		c-2.65,2.463-4.939,4.588-9.721,4.588s-7.07-2.125-9.721-4.588c-2.721-2.526-5.803-5.39-11.764-5.39
		c-5.959,0-9.042,2.864-11.762,5.39c-2.65,2.463-4.938,4.588-9.719,4.588c-4.781,0-7.069-2.125-9.719-4.588
		c-2.721-2.525-5.803-5.39-11.762-5.39s-9.041,2.864-11.761,5.39c-2.649,2.463-4.938,4.588-9.718,4.588
		c-1.046,0-1.967-0.106-2.804-0.291c-1.435-0.316-2.61-0.875-3.671-1.585c-1.149-0.769-2.169-1.711-3.246-2.712
		c-2.719-2.526-5.802-5.39-11.762-5.39c-0.828,0-1.5,0.671-1.5,1.5S2.672,133.383,3.5,133.383z"/>
	<path d="M216.334,162.883c-5.961,0-9.044,2.863-11.764,5.39c-2.652,2.462-4.941,4.588-9.725,4.588
		c-4.782,0-7.071-2.125-9.723-4.588c-2.721-2.525-5.803-5.39-11.765-5.39c-5.96,0-9.043,2.863-11.763,5.39
		c-2.65,2.462-4.939,4.588-9.723,4.588c-4.781,0-7.07-2.125-9.721-4.588c-2.72-2.526-5.803-5.39-11.762-5.39
		c-5.961,0-9.043,2.863-11.764,5.39c-2.65,2.463-4.939,4.588-9.721,4.588s-7.07-2.125-9.721-4.588
		c-2.721-2.526-5.803-5.39-11.764-5.39c-5.959,0-9.042,2.864-11.762,5.39c-2.65,2.463-4.938,4.588-9.719,4.588
		c-4.781,0-7.069-2.125-9.719-4.588c-2.721-2.525-5.803-5.39-11.762-5.39s-9.041,2.864-11.761,5.39
		c-2.649,2.463-4.938,4.588-9.718,4.588c-4.781,0-7.07-2.125-9.721-4.588c-2.719-2.526-5.802-5.39-11.762-5.39
		c-0.828,0-1.5,0.671-1.5,1.5s0.672,1.5,1.5,1.5c4.781,0,7.07,2.126,9.721,4.588c2.719,2.526,5.802,5.39,11.762,5.39
		c5.959,0,9.041-2.863,11.76-5.39c2.649-2.462,4.938-4.588,9.719-4.588s7.069,2.126,9.719,4.588c2.721,2.526,5.803,5.39,11.762,5.39
		s9.041-2.863,11.761-5.389c2.649-2.463,4.938-4.589,9.72-4.589c4.782,0,7.07,2.126,9.721,4.588c2.721,2.526,5.803,5.39,11.764,5.39
		s9.043-2.863,11.764-5.39c2.65-2.462,4.938-4.588,9.721-4.588c4.781,0,7.07,2.126,9.72,4.588c2.72,2.526,5.803,5.39,11.763,5.39
		c5.961,0,9.044-2.863,11.764-5.39c2.65-2.462,4.939-4.588,9.722-4.588c4.783,0,7.072,2.126,9.724,4.589
		c2.721,2.525,5.803,5.389,11.764,5.389c5.962,0,9.045-2.863,11.766-5.39c2.65-2.462,4.939-4.588,9.723-4.588
		c0.828,0,1.5-0.671,1.5-1.5S217.162,162.883,216.334,162.883z"/>
</g>
<path d="M114.086,65.205c-0.828,0-1.5,0.671-1.5,1.5v13c0,0.829,0.672,1.5,1.5,1.5c0.829,0,1.5-0.671,1.5-1.5v-13
	C115.586,65.876,114.915,65.205,114.086,65.205z"/>
<path d="M120.072,65.205c-0.829,0-1.5,0.671-1.5,1.5v13c0,0.829,0.671,1.5,1.5,1.5c0.828,0,1.5-0.671,1.5-1.5v-13
	C121.572,65.876,120.9,65.205,120.072,65.205z"/>
<path d="M126.057,65.205c-0.828,0-1.5,0.671-1.5,1.5v13c0,0.829,0.672,1.5,1.5,1.5c0.829,0,1.5-0.671,1.5-1.5v-13
	C127.557,65.876,126.886,65.205,126.057,65.205z"/>
<path d="M132.043,65.205c-0.829,0-1.5,0.671-1.5,1.5v13c0,0.829,0.671,1.5,1.5,1.5c0.828,0,1.5-0.671,1.5-1.5v-13
	C133.543,65.876,132.871,65.205,132.043,65.205z"/>
<path d="M138.027,65.205c-0.828,0-1.5,0.671-1.5,1.5v13c0,0.829,0.672,1.5,1.5,1.5c0.829,0,1.5-0.671,1.5-1.5v-13
	C139.527,65.876,138.856,65.205,138.027,65.205z"/>
<path d="M144.013,65.205c-0.829,0-1.5,0.671-1.5,1.5v13c0,0.829,0.671,1.5,1.5,1.5s1.5-0.671,1.5-1.5v-13
	C145.513,65.876,144.842,65.205,144.013,65.205z"/>
<path d="M149.998,65.205c-0.828,0-1.5,0.671-1.5,1.5v13c0,0.829,0.672,1.5,1.5,1.5s1.5-0.671,1.5-1.5v-13
	C151.498,65.876,150.826,65.205,149.998,65.205z"/>
<path d="M165.27,81.205c0.829,0,1.5-0.671,1.5-1.5v-13c0-0.829-0.671-1.5-1.5-1.5c-0.828,0-1.5,0.671-1.5,1.5v13
	C163.77,80.534,164.441,81.205,165.27,81.205z"/>
<path d="M171.256,81.205c0.828,0,1.5-0.671,1.5-1.5v-13c0-0.829-0.672-1.5-1.5-1.5c-0.829,0-1.5,0.671-1.5,1.5v13
	C169.756,80.534,170.427,81.205,171.256,81.205z"/>
<path d="M177.24,81.205c0.829,0,1.5-0.671,1.5-1.5v-13c0-0.829-0.671-1.5-1.5-1.5c-0.828,0-1.5,0.671-1.5,1.5v13
	C175.74,80.534,176.412,81.205,177.24,81.205z"/>
<path d="M183.227,81.205c0.828,0,1.5-0.671,1.5-1.5v-13c0-0.829-0.672-1.5-1.5-1.5c-0.829,0-1.5,0.671-1.5,1.5v13
	C181.727,80.534,182.397,81.205,183.227,81.205z"/>
<path d="M189.211,81.205c0.828,0,1.5-0.671,1.5-1.5v-13c0-0.829-0.672-1.5-1.5-1.5s-1.5,0.671-1.5,1.5v13
	C187.711,80.534,188.383,81.205,189.211,81.205z"/>
<path d="M195.196,81.205c0.829,0,1.5-0.671,1.5-1.5v-13c0-0.829-0.671-1.5-1.5-1.5s-1.5,0.671-1.5,1.5v13
	C193.696,80.534,194.367,81.205,195.196,81.205z"/>
<path d="M201.182,81.205c0.828,0,1.5-0.671,1.5-1.5v-13c0-0.829-0.672-1.5-1.5-1.5s-1.5,0.671-1.5,1.5v13
	C199.682,80.534,200.354,81.205,201.182,81.205z"/>
<path d="M128.543,39.705c-0.829,0-1.5,0.671-1.5,1.5v13c0,0.829,0.671,1.5,1.5,1.5c0.828,0,1.5-0.671,1.5-1.5v-13
	C130.043,40.376,129.371,39.705,128.543,39.705z"/>
<path d="M134.527,39.705c-0.828,0-1.5,0.671-1.5,1.5v13c0,0.829,0.672,1.5,1.5,1.5c0.829,0,1.5-0.671,1.5-1.5v-13
	C136.027,40.376,135.356,39.705,134.527,39.705z"/>
<path d="M140.514,39.705c-0.829,0-1.5,0.671-1.5,1.5v13c0,0.829,0.671,1.5,1.5,1.5c0.828,0,1.5-0.671,1.5-1.5v-13
	C142.014,40.376,141.342,39.705,140.514,39.705z"/>
<path d="M146.498,39.705c-0.828,0-1.5,0.671-1.5,1.5v13c0,0.829,0.672,1.5,1.5,1.5c0.829,0,1.5-0.671,1.5-1.5v-13
	C147.998,40.376,147.327,39.705,146.498,39.705z"/>
<path d="M152.483,39.705c-0.829,0-1.5,0.671-1.5,1.5v13c0,0.829,0.671,1.5,1.5,1.5s1.5-0.671,1.5-1.5v-13
	C153.983,40.376,153.313,39.705,152.483,39.705z"/>
<path d="M159.969,54.205v-13c0-0.829-0.672-1.5-1.5-1.5s-1.5,0.671-1.5,1.5v13c0,0.829,0.672,1.5,1.5,1.5
	S159.969,55.034,159.969,54.205z"/>
<path d="M164.454,55.705c0.829,0,1.5-0.671,1.5-1.5v-13c0-0.829-0.671-1.5-1.5-1.5s-1.5,0.671-1.5,1.5v13
	C162.954,55.034,163.625,55.705,164.454,55.705z"/>
<path fill="none" stroke="#52AC62" stroke-width="6" stroke-linecap="round" stroke-linejoin="round" stroke-miterlimit="10" d="
	M303.322,123.173l-14.035,14.033l-7.988-7.99c-0.287-0.286-0.67-0.445-1.077-0.445c-0.406,0-0.788,0.158-1.075,0.445
	c-0.288,0.287-0.446,0.67-0.446,1.077c0,0.405,0.158,0.788,0.445,1.074l9.066,9.069c0.576,0.572,1.579,0.572,2.155-0.002
	l15.108-15.108c0.287-0.288,0.446-0.671,0.446-1.077s-0.158-0.789-0.445-1.075C304.897,122.597,303.898,122.599,303.322,123.173z"/>
<path fill="none" d="M370.886,162.015h-51.377c-0.839,0-1.521,0.683-1.521,1.521c0,0.84,0.683,1.523,1.521,1.523h51.377
	c0.838,0,1.52-0.684,1.52-1.523C372.406,162.697,371.724,162.015,370.886,162.015z"/>
<path fill="none" stroke="#52AC62" stroke-width="6" stroke-linecap="round" stroke-linejoin="round" stroke-miterlimit="10" d="
	M303.322,89.928l-14.035,14.036l-7.988-7.992c-0.288-0.288-0.67-0.446-1.077-0.446s-0.789,0.158-1.077,0.446
	c-0.594,0.594-0.594,1.56,0,2.153l9.067,9.065c0.578,0.577,1.579,0.574,2.153,0l15.11-15.11c0.287-0.288,0.446-0.67,0.446-1.077
	s-0.159-0.789-0.446-1.077C304.9,89.353,303.896,89.354,303.322,89.928z"/>
<path fill="#82878E" d="M343.686,38.107h-9.621c-1.907,0-3.62-1.208-4.262-3.006c-0.646-1.818-2.354-3.038-4.249-3.038
	c-1.896,0-3.604,1.22-4.25,3.037c-0.642,1.799-2.354,3.007-4.261,3.007h-9.621c-4.173,0-7.568,3.394-7.568,7.566v7.565h51.4v-7.565
	C351.254,41.501,347.858,38.107,343.686,38.107z M328.752,42.827c-0.839,0.841-2.005,1.323-3.198,1.323s-2.359-0.482-3.199-1.324
	c-0.84-0.838-1.322-2.004-1.322-3.197s0.482-2.359,1.324-3.199c0.84-0.84,2.006-1.322,3.197-1.322c1.194,0,2.361,0.483,3.2,1.325
	c0.839,0.838,1.32,2.004,1.32,3.196S329.593,41.987,328.752,42.827z"/>
<path fill="none" stroke="#52AC62" stroke-width="6" stroke-linecap="round" stroke-linejoin="round" stroke-miterlimit="10" d="
	M303.323,156.415l-14.036,14.034l-7.988-7.988c-0.288-0.288-0.67-0.446-1.077-0.446c-0.406,0-0.787,0.158-1.074,0.445
	c-0.289,0.289-0.447,0.67-0.447,1.076c0,0.407,0.158,0.789,0.446,1.077l9.065,9.066c0.576,0.575,1.58,0.573,2.154-0.001
	l15.109-15.11c0.593-0.593,0.593-1.56,0-2.152C304.899,155.841,303.897,155.841,303.323,156.415z"/>
<path fill="none" d="M370.886,128.772h-51.377c-0.839,0-1.521,0.682-1.521,1.521s0.683,1.521,1.521,1.521h51.377
	c0.838,0,1.52-0.683,1.52-1.521S371.724,128.772,370.886,128.772z"/>
<path fill="none" d="M325.554,38.107c-0.402,0-0.795,0.162-1.077,0.444s-0.444,0.675-0.444,1.077c0,0.396,0.166,0.799,0.443,1.076
	c0.563,0.564,1.596,0.561,2.154,0.002c0.282-0.283,0.444-0.675,0.444-1.078s-0.162-0.795-0.443-1.077
	C326.353,38.273,325.951,38.107,325.554,38.107z"/>
<path fill="#E1E2E4" d="M385.996,44.15h-25.77c0.047,0.507,0.07,1.016,0.07,1.523v12.087c0,2.494-2.029,4.523-4.521,4.523h-60.443
	c-2.493,0-4.521-2.029-4.521-4.523V45.674c0-0.507,0.023-1.016,0.069-1.523h-25.77c-4.172,0-7.565,3.395-7.565,7.568v151.106
	c0,4.172,3.394,7.566,7.565,7.566h120.886c4.172,0,7.567-3.395,7.567-7.566V51.719C393.563,47.545,390.168,44.15,385.996,44.15z
	 M307.597,160.689l-15.11,15.111c-0.855,0.854-1.991,1.324-3.199,1.324c-1.206,0-2.341-0.47-3.195-1.323l-9.066-9.067
	c-0.854-0.854-1.325-1.989-1.325-3.198c0-1.207,0.471-2.343,1.325-3.197c0.853-0.854,1.988-1.324,3.196-1.324
	s2.344,0.471,3.198,1.325l5.867,5.867l11.914-11.912c0.853-0.854,1.988-1.325,3.197-1.325c1.208,0,2.344,0.471,3.198,1.325
	C309.359,156.058,309.359,158.927,307.597,160.689z M307.597,127.447l-15.11,15.11c-0.856,0.854-1.992,1.323-3.199,1.323
	c-1.205,0-2.34-0.47-3.194-1.321l-9.067-9.07c-0.854-0.853-1.325-1.988-1.325-3.196s0.471-2.345,1.325-3.198
	c0.854-0.854,1.988-1.324,3.196-1.324s2.343,0.471,3.197,1.323l5.868,5.87l11.914-11.912c0.854-0.854,1.99-1.324,3.198-1.324
	c1.207,0,2.343,0.47,3.197,1.324c0.854,0.853,1.325,1.988,1.325,3.197C308.922,125.457,308.451,126.593,307.597,127.447z
	 M307.597,94.202l-15.11,15.11c-0.854,0.854-1.99,1.325-3.199,1.325c-1.207,0-2.342-0.471-3.196-1.325l-9.067-9.065
	c-1.764-1.763-1.764-4.632,0-6.396c0.854-0.854,1.99-1.325,3.198-1.325s2.344,0.47,3.198,1.325l5.867,5.87l11.914-11.915
	c0.854-0.854,1.99-1.324,3.198-1.324c1.207,0,2.343,0.47,3.197,1.324c0.854,0.854,1.325,1.99,1.325,3.198
	S308.451,93.348,307.597,94.202z M370.886,168.06h-51.377c-2.493,0-4.521-2.029-4.521-4.523c0-2.493,2.028-4.521,4.521-4.521h51.377
	c2.492,0,4.52,2.028,4.52,4.521C375.406,166.03,373.378,168.06,370.886,168.06z M370.886,134.814h-51.377
	c-2.493,0-4.521-2.028-4.521-4.521s2.028-4.521,4.521-4.521h51.377c2.492,0,4.52,2.027,4.52,4.521S373.378,134.814,370.886,134.814z
	 M370.886,101.572h-51.377c-2.493,0-4.521-2.028-4.521-4.521c0-2.494,2.028-4.523,4.521-4.523h51.377c2.492,0,4.52,2.029,4.52,4.523
	C375.406,99.544,373.378,101.572,370.886,101.572z"/>
<path fill="none" d="M370.886,95.527h-51.377c-0.839,0-1.521,0.684-1.521,1.523c0,0.839,0.683,1.521,1.521,1.521h51.377
	c0.838,0,1.52-0.683,1.52-1.521C372.406,96.211,371.724,95.527,370.886,95.527z"/>
<path d="M385.996,41.15h-29.335l0.362,1.797c0.181,0.895,0.272,1.812,0.272,2.727v12.087c0,0.84-0.682,1.523-1.521,1.523h-60.443
	c-0.839,0-1.521-0.684-1.521-1.523V45.674c0-0.911,0.092-1.829,0.273-2.727l0.362-1.797H265.11c-5.826,0-10.565,4.741-10.565,10.568
	v151.106c0,5.826,4.739,10.566,10.565,10.566h120.886c5.826,0,10.567-4.74,10.567-10.566V51.719
	C396.563,45.891,391.822,41.15,385.996,41.15z M393.563,202.825c0,4.172-3.395,7.566-7.567,7.566H265.11
	c-4.172,0-7.565-3.395-7.565-7.566V51.719c0-4.173,3.394-7.568,7.565-7.568h25.77c-0.046,0.507-0.069,1.016-0.069,1.523v12.087
	c0,2.494,2.028,4.523,4.521,4.523h60.443c2.492,0,4.521-2.029,4.521-4.523V45.674c0-0.508-0.023-1.017-0.07-1.523h25.77
	c4.172,0,7.567,3.395,7.567,7.568V202.825z"/>
<path d="M354.254,45.674c0-5.826-4.741-10.566-10.568-10.566h-9.621c-0.643,0-1.22-0.407-1.436-1.012
	c-1.069-3.01-3.912-5.032-7.075-5.032s-6.007,2.022-7.076,5.03c-0.216,0.606-0.793,1.014-1.435,1.014h-9.621
	c-5.827,0-10.568,4.74-10.568,10.566v10.565h57.4V45.674z M351.254,53.239h-51.4v-7.565c0-4.172,3.396-7.566,7.568-7.566h9.621
	c1.907,0,3.619-1.208,4.261-3.007c0.646-1.816,2.354-3.037,4.25-3.037c1.896,0,3.604,1.22,4.249,3.038
	c0.642,1.798,2.354,3.006,4.262,3.006h9.621c4.173,0,7.568,3.394,7.568,7.566V53.239z"/>
<path d="M385.996,35.107h-29.501c-3.172-3.851-7.799-6.044-12.81-6.044h-6.869c-2.506-3.75-6.744-6.045-11.263-6.045
	c-4.518,0-8.757,2.295-11.264,6.045h-6.868c-5.012,0-9.639,2.193-12.81,6.044H265.11c-9.159,0-16.61,7.452-16.61,16.611v151.106
	c0,9.16,7.451,16.611,16.61,16.611h120.886c9.161,0,16.612-7.451,16.612-16.611V51.719
	C402.608,42.559,395.157,35.107,385.996,35.107z M399.608,202.825c0,7.506-6.105,13.611-13.612,13.611H265.11
	c-7.505,0-13.61-6.105-13.61-13.611V51.719c0-7.505,6.105-13.611,13.61-13.611h30.979l0.45-0.599
	c2.602-3.46,6.568-5.445,10.883-5.445h8.565l0.434-0.749c1.889-3.267,5.389-5.296,9.133-5.296s7.243,2.029,9.132,5.296l0.434,0.749
	h8.566c4.313,0,8.28,1.985,10.883,5.446l0.458,0.598h30.97c7.506,0,13.612,6.106,13.612,13.611V202.825z"/>
<path d="M325.554,35.107c-1.191,0-2.357,0.482-3.197,1.322c-0.842,0.84-1.324,2.006-1.324,3.199s0.482,2.359,1.322,3.197
	c0.84,0.842,2.006,1.324,3.199,1.324s2.359-0.482,3.198-1.323c0.841-0.84,1.322-2.006,1.322-3.198s-0.481-2.358-1.32-3.196
	C327.915,35.59,326.748,35.107,325.554,35.107z M326.63,40.707c-0.559,0.559-1.592,0.562-2.154-0.002
	c-0.277-0.277-0.443-0.68-0.443-1.076c0-0.402,0.162-0.795,0.444-1.077s0.675-0.444,1.077-0.444c0.397,0,0.799,0.166,1.077,0.444
	c0.281,0.282,0.443,0.674,0.443,1.077S326.912,40.424,326.63,40.707z"/>
<path d="M304.399,86.482c-1.208,0-2.344,0.47-3.198,1.324l-11.914,11.915l-5.867-5.87c-0.854-0.854-1.99-1.325-3.198-1.325
	s-2.344,0.47-3.198,1.325c-1.764,1.763-1.764,4.632,0,6.396l9.067,9.065c0.854,0.854,1.989,1.325,3.196,1.325
	c1.209,0,2.345-0.471,3.199-1.325l15.11-15.11c0.854-0.854,1.325-1.99,1.325-3.198s-0.471-2.344-1.325-3.198
	C306.742,86.953,305.606,86.482,304.399,86.482z"/>
<path fill="#FFFFFF" stroke="#201600" stroke-miterlimit="10" d="M305.476,92.081l-15.11,15.11c-0.574,0.574-1.575,0.577-2.153,0
	l-9.067-9.065c-0.594-0.594-0.594-1.56,0-2.153c0.288-0.288,0.67-0.446,1.077-0.446s0.789,0.158,1.077,0.446l7.988,7.992
	l14.035-14.036c0.574-0.574,1.578-0.575,2.153,0c0.287,0.288,0.446,0.67,0.446,1.077S305.763,91.793,305.476,92.081z"/>
<path d="M304.399,119.728c-1.208,0-2.344,0.47-3.198,1.324l-11.914,11.912l-5.868-5.87c-0.854-0.853-1.989-1.323-3.197-1.323
	s-2.343,0.471-3.196,1.324c-0.854,0.854-1.325,1.99-1.325,3.198s0.471,2.344,1.325,3.196l9.067,9.07
	c0.854,0.852,1.989,1.321,3.194,1.321c1.207,0,2.343-0.47,3.199-1.323l15.11-15.11c0.854-0.854,1.325-1.99,1.325-3.198
	c0-1.209-0.471-2.345-1.325-3.197C306.742,120.197,305.606,119.728,304.399,119.728z"/>
<path fill="#FFFFFF" stroke="#201600" stroke-miterlimit="10" d="M305.476,125.326l-15.108,15.108
	c-0.576,0.574-1.579,0.574-2.155,0.002l-9.066-9.069c-0.287-0.286-0.445-0.669-0.445-1.074c0-0.407,0.158-0.79,0.446-1.077
	c0.287-0.287,0.669-0.445,1.075-0.445c0.407,0,0.79,0.159,1.077,0.445l7.988,7.99l14.035-14.033
	c0.576-0.574,1.575-0.576,2.154,0.001c0.287,0.286,0.445,0.669,0.445,1.075S305.763,125.038,305.476,125.326z"/>
<path d="M304.398,152.97c-1.209,0-2.345,0.471-3.197,1.325l-11.914,11.912l-5.867-5.867c-0.854-0.854-1.99-1.325-3.198-1.325
	s-2.344,0.471-3.196,1.324c-0.854,0.854-1.325,1.99-1.325,3.197c0,1.209,0.471,2.344,1.325,3.198l9.066,9.067
	c0.854,0.854,1.989,1.323,3.195,1.323c1.208,0,2.344-0.47,3.199-1.324l15.11-15.111c1.763-1.763,1.763-4.632,0-6.395
	C306.742,153.44,305.606,152.97,304.398,152.97z"/>
<path fill="#FFFFFF" stroke="#201600" stroke-miterlimit="10" d="M305.476,158.568l-15.109,15.11
	c-0.574,0.574-1.578,0.576-2.154,0.001l-9.065-9.066c-0.288-0.288-0.446-0.67-0.446-1.077c0-0.406,0.158-0.787,0.447-1.076
	c0.287-0.287,0.668-0.445,1.074-0.445c0.407,0,0.789,0.158,1.077,0.446l7.988,7.988l14.036-14.034
	c0.574-0.574,1.576-0.574,2.152,0.001C306.068,157.009,306.068,157.976,305.476,158.568z"/>
<path d="M370.886,92.527h-51.377c-2.493,0-4.521,2.029-4.521,4.523c0,2.493,2.028,4.521,4.521,4.521h51.377
	c2.492,0,4.52-2.028,4.52-4.521C375.406,94.557,373.378,92.527,370.886,92.527z M370.886,98.572h-51.377
	c-0.839,0-1.521-0.683-1.521-1.521c0-0.84,0.683-1.523,1.521-1.523h51.377c0.838,0,1.52,0.684,1.52,1.523
	C372.406,97.89,371.724,98.572,370.886,98.572z"/>
<path d="M370.886,125.772h-51.377c-2.493,0-4.521,2.027-4.521,4.521s2.028,4.521,4.521,4.521h51.377c2.492,0,4.52-2.028,4.52-4.521
	S373.378,125.772,370.886,125.772z M370.886,131.814h-51.377c-0.839,0-1.521-0.683-1.521-1.521s0.683-1.521,1.521-1.521h51.377
	c0.838,0,1.52,0.682,1.52,1.521S371.724,131.814,370.886,131.814z"/>
<path d="M370.886,159.015h-51.377c-2.493,0-4.521,2.028-4.521,4.521c0,2.494,2.028,4.523,4.521,4.523h51.377
	c2.492,0,4.52-2.029,4.52-4.523C375.406,161.043,373.378,159.015,370.886,159.015z M370.886,165.06h-51.377
	c-0.839,0-1.521-0.684-1.521-1.523c0-0.839,0.683-1.521,1.521-1.521h51.377c0.838,0,1.52,0.683,1.52,1.521
	C372.406,164.376,371.724,165.06,370.886,165.06z"/>
<path fill="#E1E2E4" d="M1108.972,108.535c-4.104,0-7.439,3.792-7.439,8.453c0,4.661,3.336,8.453,7.439,8.453
	c4.102,0,7.439-3.792,7.439-8.453C1116.411,112.327,1113.073,108.535,1108.972,108.535z"/>
<polygon fill="#E1E2E4" points="1134.868,108.535 1131.397,108.535 1128.636,125.44 1135.608,125.44 "/>
<path fill="#FFFFFF" stroke="#000000" stroke-width="2" stroke-linecap="round" stroke-linejoin="round" stroke-miterlimit="10" d="
	M1094.782,104.535h-9.25c-1.105,0-2,0.896-2,2v19.5c0,1.105,0.895,2,2,2c1.104,0,2-0.895,2-2v-17.5h7.25c1.104,0,2-0.896,2-2
	S1095.886,104.535,1094.782,104.535z"/>
<path fill="#FFFFFF" stroke="#000000" stroke-width="2" stroke-linecap="round" stroke-linejoin="round" stroke-miterlimit="10" d="
	M1108.972,104.535c-6.309,0-11.439,5.586-11.439,12.453c0,6.867,5.131,12.453,11.439,12.453c6.307,0,11.439-5.586,11.439-12.453
	C1120.411,110.121,1115.278,104.535,1108.972,104.535z M1108.972,125.44c-4.104,0-7.439-3.792-7.439-8.453
	c0-4.66,3.336-8.453,7.439-8.453c4.102,0,7.439,3.792,7.439,8.453C1116.411,121.648,1113.073,125.44,1108.972,125.44z"/>
<path fill="#FFFFFF" stroke="#000000" stroke-width="2" stroke-linecap="round" stroke-linejoin="round" stroke-miterlimit="10" d="
	M1143.438,126.318c-0.373-0.55-0.994-0.878-1.656-0.878h-2.17l-0.832-18.993c-0.047-1.07-0.928-1.913-1.998-1.913h-7.084
	c-0.98,0-1.814,0.71-1.973,1.677l-3.143,19.229h-2.051c-0.658,0-1.273,0.322-1.646,0.863c-0.373,0.54-0.457,1.229-0.225,1.844
	l1.834,4.845c0.303,0.8,1.063,1.293,1.869,1.293c0.236,0,0.475-0.042,0.709-0.13c1.033-0.391,1.553-1.545,1.162-2.578l-0.809-2.137
	h0.852h0.006c0.002,0,0.004,0,0.004,0h12.541l-0.84,2.103c-0.408,1.026,0.09,2.189,1.117,2.599c1.027,0.411,2.189-0.09,2.598-1.115
	l1.936-4.845C1143.886,127.565,1143.81,126.868,1143.438,126.318z M1131.397,108.535h3.471l0.74,16.906h-6.973L1131.397,108.535z"/>
<path fill="#FFFFFF" stroke="#000000" stroke-width="2" stroke-linecap="round" stroke-linejoin="round" stroke-miterlimit="10" d="
	M1122.513,93.785c0-1.104-0.895-2-2-2h-3.236V57.85c0-0.889-0.588-1.671-1.441-1.92c-0.852-0.25-1.768,0.095-2.246,0.845
	l-8.512,13.36c-0.594,0.932-0.32,2.168,0.611,2.761c0.932,0.594,2.168,0.32,2.762-0.612l4.826-7.574v27.074h-3.867
	c-1.104,0-2,0.896-2,2s0.896,2,2,2h11.104C1121.618,95.785,1122.513,94.889,1122.513,93.785z"/>
<polygon fill="#E1E2E4" points="691.652,96.712 694,96.305 694,79.751 679.482,81.129 679.482,98.75 679.553,98.811 691.65,96.713 
	"/>
</svg>
