<?xml version="1.0" encoding="utf-8"?>
<!-- Generator: Adobe Illustrator 21.0.0, SVG Export Plug-In . SVG Version: 6.00 Build 0)  -->
<svg version="1.1" id="Слой_1" xmlns="http://www.w3.org/2000/svg" xmlns:xlink="http://www.w3.org/1999/xlink" x="0px" y="0px" width="200px" height="80px"
	 viewBox="0 0 200 80" style="enable-background:new 0 0 200.6 80;" xml:space="preserve">
<style type="text/css">
	.st0{fill:#F9DC5F;}
	.st1{fill:#FFFFFF;}
</style>
<g id="Layer_1">
</g>
<g id="Layer_2">
</g>
<g id="Layer_3">
</g>
<g id="Layer_4">
</g>
<g id="Layer_5">
</g>
<g id="Layer_6">
</g>
<g id="Layer_8">
	<g>
		<path class="st0" d="M121,55.4v5.1V80h19.5H160V60.5v-5.1h-10.6c0.9,1.5,1.4,3.2,1.4,5.1c0,5.7-4.6,10.3-10.3,10.3
			c-5.7,0-10.3-4.6-10.3-10.3c0-1.9,0.5-3.6,1.4-5.1H121z"/>
		<path class="st0" d="M156,44.8h-7.1v4.6h7.1V44.8L156,44.8z M160,41v13h-11.6c-1.9-2.3-4.7-3.7-7.9-3.7c-3.2,0-6,1.5-7.9,3.7H121
			V41h19.5H160z"/>
		<circle class="st0" cx="140.5" cy="60.5" r="7.1"/>
	</g>
</g>
<path class="st1" d="M79.4,0H59.9H40.4v19.5V39h19.5h19.5V19.5V0L79.4,0z M62.4,15.2h2.5V19h-2.5v9.8h-5.2V19h-1.9v-3.8h1.9v-0.6
	c0-0.6,0.1-1.2,0.2-1.8s0.3-1.2,0.7-1.6c0.3-0.4,0.8-0.8,1.4-1C60,9.8,60.9,9.7,62,9.7c0.9,0,2.2,0.1,4,0.3l-0.6,3.1
	c-0.6-0.1-1.1-0.2-1.5-0.2c-0.5,0-0.8,0.1-1,0.2c-0.2,0.2-0.4,0.4-0.4,0.8C62.4,14.2,62.4,14.6,62.4,15.2z"/>
<g id="Layer_10">
</g>
<g id="Layer_11">
</g>
<path class="st1" d="M39,0H19.5H0v19.5V39h19.5H39V19.5V0L39,0z M12.4,10.3h10.5c1.7,0,3.1,0.4,4,1.3s1.4,1.9,1.4,3.2
	c0,1.1-0.3,2-1,2.7c-0.4,0.5-1.1,0.9-1.9,1.2c1.3,0.3,2.3,0.8,2.9,1.6c0.6,0.8,0.9,1.7,0.9,2.9c0,0.9-0.2,1.8-0.7,2.5
	c-0.4,0.8-1,1.3-1.8,1.8c-0.5,0.3-1.2,0.5-2.1,0.6c-1.3,0.2-2.1,0.2-2.5,0.2h-9.6L12.4,10.3L12.4,10.3z M18.1,17.4V14h2.5
	c0.8,0,1.4,0.1,1.8,0.4c0.3,0.3,0.5,0.7,0.5,1.2c0,0.6-0.2,1-0.5,1.3c-0.3,0.3-1,0.5-1.8,0.5L18.1,17.4L18.1,17.4z M18.1,24.5v-3.7
	h2.8c1,0,1.7,0.2,2.1,0.5c0.4,0.3,0.6,0.8,0.6,1.3c0,0.6-0.2,1-0.6,1.4s-1.1,0.5-2,0.5L18.1,24.5L18.1,24.5z"/>
<g id="Layer_13">
</g>
<path class="st1" d="M119.7,0h-19.5H80.7v19.5V39h19.5h19.5V19.5V0L119.7,0z M104.4,17.4l0-0.5v-0.1v-0.6V16v-0.5v-0.4v-0.1v-0.5
	v-0.4v-0.4v-0.4v-0.3v-0.6v-0.2v-0.7v0v-0.6v-0.3l0-0.6c0-0.1,0,0,0.1,0c0,0,0.1,0,0.1,0c0.1,0,0.2,0,0.3,0l1.4,0v0.7v0.9v0.9v0.9
	v0.9l0,0.9v0.4V16c0,0.1,0,0.5,0,0.6c0,0.1,0,0.2,0.1,0.3c0,0,0,0,0,0l0.2,0.1c0.3,0.1,0.5-0.1,0.7-0.1l0.1,0c0,0,0,0,0,0l0.2-0.1
	c0.1-0.1,0.2-0.1,0.2-0.2c0.1,0,0,0,0.1,0c0,0,0,0,0-0.1c0,0,0,0,0-0.1c0,0,0-0.1,0-0.1c0-0.1,0-0.1,0-0.2v-0.9v-1.3v-0.5V13v-0.9
	v-0.4l0-0.9l0-0.7h1.9v0.1v0.3v0.2V11v0.7V12v0.2v0.6V13v0.2v0.2v0.2v0.2v0.2v0.4v0.4v0.3v0.2v0.5V16v0.4v0.4V17v1l0,0.3H108
	c0-0.2,0-0.7,0-0.9c-0.1,0.1-0.3,0.2-0.4,0.3c0,0,0,0-0.1,0.1c-0.3,0.3-0.9,0.5-1.3,0.6c-0.4,0.1-1,0.1-1.3-0.2
	c-0.2-0.1-0.2-0.2-0.3-0.2c0-0.1-0.1-0.1-0.1-0.2l0,0C104.4,17.7,104.4,17.5,104.4,17.4L104.4,17.4z M92.1,19.7h16.3
	c1.7,0,3.1,1.4,3.1,3.1v5.6c0,1.7-1.4,3.1-3.1,3.1H92.1c-1.7,0-3.1-1.4-3.1-3.1v-5.6C89,21.1,90.4,19.7,92.1,19.7L92.1,19.7z
	 M102,28.3V28v-0.4v-0.6v-0.3v-0.5v-0.4v-0.6v-0.5c0.2-0.1,0.4-0.3,0.8-0.2c0.3,0.1,0.4,0.3,0.4,0.7V26v0.2v0.5v0.3v0.6V28l0,0.2
	c-0.1,0.3-0.2,0.4-0.5,0.4C102.4,28.6,102.1,28.5,102,28.3L102,28.3z M100.7,29.5v-8l1.4,0l0,0.3v1V24l0,0.1
	c0.3-0.3,0.7-0.6,1.3-0.5c0.3,0,0.5,0.1,0.7,0.2c0.2,0.2,0.3,0.4,0.4,0.5c0,0.1,0,0.1,0.1,0.2c0,0.2,0,0.4,0,0.6c0,0.2,0,0.5,0,0.7
	v0.7v0.3v0.1v0.8V28v0.3c0,0.3,0,0.4-0.1,0.6c0,0-0.1,0.1-0.1,0.2c-0.1,0.1-0.1,0.1-0.1,0.2l-0.1,0.1c-0.3,0.2-0.7,0.2-1.1,0.2
	c-0.3,0-0.8-0.3-1-0.5l0,0.4L100.7,29.5L100.7,29.5z M107.1,24.9c0-0.2,0.1-0.2,0.2-0.3c0.1-0.1,0.3-0.1,0.5-0.1
	c0.2,0,0.3,0.1,0.3,0.2c0.1,0.2,0.1,0.8,0.1,1l-1.2,0C107,25.6,107,25,107.1,24.9L107.1,24.9z M106.9,23.6c0.2,0,0.3-0.1,0.5-0.1
	c0.2,0,0.4,0,0.6,0c0.8,0.1,1.4,0.4,1.6,1.1l0.1,0.4l0,1.7l-2.6,0c0,0.2,0,1.2,0,1.3c0,0.1,0,0.2,0,0.2c0.1,0.2,0.2,0.4,0.5,0.4
	c0.3,0,0.5,0,0.6-0.2c0.1-0.1,0.1-0.2,0.1-0.4l0-0.3l0-0.3l0,0h1.4l0,0.6l0,0.3c-0.1,0.2-0.1,0.3-0.1,0.5c0,0-0.1,0.1-0.1,0.2
	c-0.1,0.1-0.1,0.1-0.1,0.2c-0.1,0-0.3,0.5-1.4,0.5c-1.1,0.1-1.4-0.3-1.6-0.4c-0.1-0.1-0.1-0.1-0.2-0.2c-0.1-0.1-0.1-0.1-0.2-0.2
	c0-0.1-0.1-0.2-0.2-0.3c-0.1-0.1-0.1-0.2-0.1-0.3l0-0.3V28l0-2.8l0.1-0.4c0.1-0.4,0.3-0.6,0.6-0.8C106.6,23.7,106.7,23.7,106.9,23.6
	L106.9,23.6z M95.4,28.7l0-5.1l1.4,0v0.5v0.7v0.3v1v0.5v0.3v0.3v0.5l0,0.4c0,0.2,0.1,0.3,0.2,0.3c0.1,0,0.3,0,0.4-0.1
	c0.2-0.1,0.5-0.3,0.5-0.4l0-0.2l0-0.5v-0.3v-0.3v-0.5v-1l0-0.5v-0.5v-0.5l1.4,0l0,5.9l-1.4,0v-0.6c-0.4,0.2-0.5,0.5-1.1,0.6
	c-0.9,0.3-1.2-0.2-1.3-0.2c-0.1-0.2-0.1-0.3-0.2-0.5L95.4,28.7L95.4,28.7z M90.7,22.7l0-1.2l4.7,0l0,1.2l-1.6,0l0,0.3v0.3v1.1v1v0.8
	v0.5v0.3v0.6V28v0.3v0.5v0.5v0.2l-1.5,0l0-6.8L90.7,22.7L90.7,22.7z M102.8,13.4v0.5v1.3v0.9l0,0.4l0,0.3c0,0.1,0,0.1-0.1,0.2
	c0,0.1-0.1,0.2-0.1,0.4c0,0,0,0.1-0.1,0.1c0,0.1,0,0,0,0.1c0,0-0.1,0.1-0.1,0.1c-0.1,0.1-0.1,0.1-0.2,0.2c0,0.1,0,0-0.1,0.1
	c0,0,0,0-0.1,0l-0.2,0.1c-0.6,0.4-1.3,0.5-1.9,0.5c-0.3,0-0.6,0-0.9-0.1c-0.1,0-0.3-0.1-0.4-0.1c-0.1,0-0.2-0.1-0.4-0.1
	c-0.1-0.1-0.2-0.1-0.3-0.2L97.9,18c-0.1-0.1-0.2-0.1-0.2-0.2c0-0.1-0.1-0.2-0.2-0.3l-0.1-0.1L97.3,17l0-0.2l0-0.2l0-0.4v-0.9v-1.3
	l0-0.5v-0.9v-0.5l0-0.3l0-0.2c0-0.1,0.1-0.4,0.2-0.4c0-0.1,0.1-0.2,0.2-0.3c0.1-0.1,0.2-0.2,0.2-0.2l0.1-0.1
	c0.8-0.6,2.2-0.7,3.1-0.5c0.6,0.1,0.6,0.3,0.9,0.4c0,0,0,0,0.1,0.1c0.1,0,0,0,0.1,0.1l0.1,0c0.1,0,0,0,0.1,0l0.3,0.3v0
	c0.1,0.1,0.2,0.3,0.2,0.4c0,0.1,0,0.1,0.1,0.1l0,0.3l0,0.4V13L102.8,13.4L102.8,13.4z M100.9,13v0.4v0.5v1.3l0,0.9
	c0,0.1,0,0.5,0,0.5c0,0.1,0,0,0,0.1c0,0.1,0,0,0,0.1c0,0.1,0,0,0,0.1c0,0.1,0,0-0.1,0.1c-0.1,0-0.1,0.1-0.3,0.2
	c-0.1,0-0.3,0.1-0.4,0.1c-0.5,0-0.6-0.2-0.7-0.2c0-0.1-0.1-0.1-0.1-0.3l0-0.1c0-0.1,0-0.4,0-0.5v-0.9v-1.3v-0.5v-0.9v-0.5
	c0-0.3,0.1-0.3,0.2-0.4c0.2-0.1,0.3-0.2,0.6-0.2c0.4,0,0.4,0.1,0.6,0.2c0,0,0,0,0,0c0,0,0,0,0,0c0.1,0.1,0.1,0.2,0.1,0.3v0.4
	L100.9,13C100.9,13,100.9,13,100.9,13z M95.7,10.6c0,0.1-0.1,0.4-0.2,0.6l-0.4,1.1c0,0.2-0.2,0.3-0.2,0.5c-0.1,0.1,0,0.1-0.1,0.1
	l0,0.1l-0.2,0.5l0,0c0,0.1-0.1,0.3-0.1,0.4l0,0.7v0.1V15v0.1v0.7v0.4v0.1v0.5v0.1v0.5v0.1l0,0.9l0,0l-2.2,0l0-0.3v-0.7v-0.5v-0.4
	v-0.6v-0.6v-1.1c0-0.4-0.2-0.6-0.2-0.8l0-0.1c0,0,0-0.1,0-0.1c0-0.1-0.1-0.3-0.1-0.4c-0.1-0.1-0.1-0.2-0.1-0.3
	c0-0.1-0.1-0.2-0.1-0.3c-0.1-0.1-0.1-0.2-0.1-0.3l-0.1-0.3c-0.1-0.2-0.1-0.4-0.2-0.6l-0.2-0.6c-0.1-0.1-0.2-0.4-0.2-0.5
	c-0.1-0.1-0.1-0.2-0.1-0.3c0-0.1-0.1-0.2-0.1-0.3l-0.1-0.1c0-0.1-0.1-0.3-0.1-0.4c-0.1-0.1-0.2-0.5-0.2-0.6C90,8.3,90,8.1,89.9,7.9
	c-0.1-0.2-0.1-0.3-0.2-0.5h2.1c0.1,0,0.1,0,0.1,0.2l0.2,0.7l0.2,0.6l0.2,0.5l0.2,0.6l0.2,0.5l0.2,0.6l0.2,0.7l0.1,0l0.2-0.7l0.2-0.6
	L94,10l0.2-0.6l0.2-0.5l0.2-0.6c0-0.1,0.2-0.8,0.3-0.9H97c0,0.1-0.3,0.8-0.4,0.9c0,0.1-0.1,0.3-0.1,0.4l-0.1,0.1
	c0,0.1-0.2,0.5-0.2,0.6c0,0.1-0.2,0.5-0.2,0.5C95.9,10.1,95.8,10.5,95.7,10.6z"/>
<g>
	<path class="st1" d="M121,14.4v5.1V39h19.5H160V19.5v-5.1h-10.6c0.9,1.5,1.4,3.2,1.4,5.1c0,5.7-4.6,10.3-10.3,10.3
		c-5.7,0-10.3-4.6-10.3-10.3c0-1.9,0.5-3.6,1.4-5.1H121z"/>
	<path class="st1" d="M156,3.8h-7.1v4.6h7.1V3.8L156,3.8z M160,0v13h-11.6c-1.9-2.3-4.7-3.7-7.9-3.7s-6,1.5-7.9,3.7H121V0h19.5H160z
		"/>
	<circle class="st1" cx="140.5" cy="19.5" r="7.1"/>
</g>
<path class="st0" d="M39,41H19.5H0v19.5V80h19.5H39V60.5V41L39,41z M12.4,51.3h10.5c1.7,0,3.1,0.4,4,1.3c0.9,0.9,1.4,1.9,1.4,3.2
	c0,1.1-0.3,2-1,2.7c-0.4,0.5-1.1,0.9-1.9,1.2c1.3,0.3,2.3,0.8,2.9,1.6c0.6,0.8,0.9,1.7,0.9,2.9c0,0.9-0.2,1.8-0.7,2.5
	c-0.4,0.8-1,1.3-1.8,1.8c-0.5,0.3-1.2,0.5-2.1,0.6c-1.3,0.2-2.1,0.2-2.5,0.2h-9.6V51.3L12.4,51.3z M18.1,58.4V55h2.5
	c0.8,0,1.4,0.1,1.8,0.4c0.3,0.3,0.5,0.7,0.5,1.2c0,0.6-0.2,1-0.5,1.3c-0.3,0.3-1,0.4-1.8,0.4L18.1,58.4L18.1,58.4z M18.1,65.5v-3.7
	h2.8c1,0,1.7,0.2,2.1,0.5c0.4,0.3,0.6,0.8,0.6,1.3c0,0.6-0.2,1-0.6,1.4c-0.4,0.3-1.1,0.5-2,0.5H18.1z"/>
<path class="st0" d="M79.4,41H59.9H40.4v19.5V80h19.5h19.5V60.5L79.4,41L79.4,41z M62.4,56.2h2.5V60h-2.5v9.8h-5.2V60h-1.9v-3.8h1.9
	v-0.6c0-0.6,0.1-1.2,0.2-1.8c0.1-0.7,0.3-1.2,0.7-1.6c0.3-0.4,0.8-0.8,1.4-1c0.6-0.3,1.5-0.4,2.6-0.4c0.9,0,2.2,0.1,4,0.3l-0.6,3.1
	c-0.6-0.1-1.1-0.2-1.5-0.2c-0.5,0-0.8,0.1-1,0.2c-0.2,0.2-0.4,0.4-0.4,0.8C62.4,55.2,62.4,55.6,62.4,56.2z"/>
<path class="st0" d="M100.2,41H80.7v19.5V80h19.5h19.5V60.5V41H100.2z M104.5,51.2c0,0,0.1,0,0.1,0c0.1,0,0.2,0,0.3,0h1.4v0.7v0.9
	v0.9v0.9v0.9l0,0.9v0.4V57c0,0.1,0,0.5,0,0.6c0,0.1,0,0.2,0.1,0.3c0,0,0,0,0,0l0.2,0.1c0.3,0.1,0.5-0.1,0.7-0.1l0.1-0.1c0,0,0,0,0,0
	l0.2-0.1c0.1-0.1,0.2-0.1,0.2-0.2c0.1,0,0,0,0.1,0c0,0,0,0,0-0.1c0,0,0,0,0-0.1c0,0,0-0.1,0-0.1c0-0.1,0-0.1,0-0.2v-0.9v-1.3l0-0.5
	V54v-0.9v-0.4v-0.9l0-0.7h1.9v0.1v0.3v0.2V52v0.7V53v0.2v0.6V54v0.2v0.2v0.2v0.2v0.2v0.4v0.4v0.3v0.2v0.5V57v0.4v0.4V58v1l0,0.3H108
	c0-0.2,0-0.7,0-0.9c-0.1,0.1-0.3,0.2-0.4,0.3c0,0,0,0-0.1,0.1c-0.4,0.3-0.9,0.5-1.3,0.6c-0.4,0.1-1,0.1-1.3-0.2
	c-0.2-0.1-0.2-0.2-0.3-0.2c0-0.1-0.1-0.1-0.1-0.2l0,0c-0.1-0.1-0.1-0.3-0.1-0.4l0-0.5v-0.1v-0.6V57v-0.5v-0.4v-0.1v-0.5v-0.4v-0.4
	v-0.4v-0.3v-0.6v-0.2v-0.7v0v-0.6v-0.3L104.5,51.2C104.4,51.2,104.4,51.2,104.5,51.2z M97.2,53.5v-0.5l0-0.3l0-0.2
	c0-0.1,0.1-0.4,0.2-0.4c0-0.1,0.1-0.2,0.2-0.3c0.1-0.1,0.1-0.2,0.2-0.2l0.1-0.1c0.8-0.6,2.2-0.7,3.1-0.5c0.6,0.1,0.6,0.3,0.9,0.4
	c0,0,0,0,0.1,0.1c0.1,0,0,0,0.1,0.1l0.1,0c0.1,0,0,0,0.1,0l0.3,0.3v0c0.1,0.1,0.2,0.3,0.2,0.4c0,0.1,0,0.1,0.1,0.1l0,0.3l0,0.4V54
	l0,0.4v0.5l0,1.3v0.9l0,0.4l0,0.3c0,0.1,0,0.1-0.1,0.2c0,0.1-0.1,0.2-0.1,0.4c0,0,0,0.1-0.1,0.1c0,0.1,0,0,0,0.1
	c0,0-0.1,0.1-0.1,0.1c-0.1,0.1-0.1,0.1-0.2,0.2c0,0.1,0,0-0.1,0.1c0,0,0,0-0.1,0l-0.2,0.1c-0.6,0.4-1.3,0.5-1.9,0.5
	c-0.3,0-0.6,0-0.9-0.1c-0.1,0-0.3-0.1-0.4-0.1c-0.1,0-0.2-0.1-0.3-0.1c-0.1-0.1-0.2-0.1-0.3-0.2L97.9,59c-0.1-0.1-0.2-0.1-0.2-0.2
	c0-0.1-0.1-0.2-0.2-0.3l-0.1-0.1L97.3,58l-0.1-0.2l0-0.2l0-0.4v-0.9v-1.3l0-0.5L97.2,53.5L97.2,53.5z M91.9,48.5
	c0.1,0,0.1,0,0.1,0.2l0.2,0.7l0.2,0.6l0.2,0.5l0.2,0.6l0.2,0.5l0.2,0.6l0.2,0.7l0.1,0l0.2-0.7l0.2-0.6L94,51l0.2-0.6l0.2-0.5
	l0.2-0.6c0-0.1,0.2-0.8,0.3-0.9H97c0,0.1-0.3,0.8-0.4,0.9c0,0.1-0.1,0.3-0.1,0.4l-0.1,0.1c0,0.1-0.2,0.5-0.2,0.6
	c0,0.1-0.2,0.5-0.2,0.5c0,0.1-0.2,0.5-0.2,0.6c0,0.1-0.1,0.4-0.2,0.6l-0.4,1.1c0,0.2-0.2,0.3-0.2,0.5c-0.1,0.1,0,0.1-0.1,0.1l0,0.1
	l-0.2,0.5l0,0c0,0.1-0.1,0.3-0.1,0.4l0,0.7v0.1V56v0.1v0.7v0.4v0.1v0.5v0.1v0.5v0.1l0,0.9l0,0h-2.2l0-0.3v-0.7v-0.5v-0.4v-0.6v-0.6
	v-1.1c0-0.4-0.2-0.6-0.2-0.8l0-0.1c0,0,0-0.1,0-0.1c0-0.1-0.1-0.3-0.1-0.4c-0.1-0.1-0.1-0.2-0.1-0.3c0-0.1-0.1-0.2-0.1-0.3
	c-0.1-0.1-0.1-0.2-0.1-0.3l-0.1-0.3c-0.1-0.2-0.2-0.4-0.2-0.6l-0.2-0.6c-0.1-0.1-0.2-0.4-0.2-0.5c-0.1-0.1-0.1-0.2-0.1-0.3
	c0-0.1-0.1-0.2-0.1-0.3l-0.1-0.1c0-0.1-0.1-0.3-0.1-0.4c-0.1-0.1-0.2-0.5-0.2-0.6c-0.1-0.1-0.1-0.3-0.2-0.4
	c-0.1-0.2-0.1-0.3-0.2-0.5L91.9,48.5L91.9,48.5z M111.5,69.4c0,1.7-1.4,3.1-3.1,3.1H92.1c-1.7,0-3.1-1.4-3.1-3.1v-5.6
	c0-1.7,1.4-3.1,3.1-3.1h16.3c1.7,0,3.1,1.4,3.1,3.1C111.5,63.8,111.5,69.4,111.5,69.4z"/>
<path class="st0" d="M104.5,65.3c-0.1-0.2-0.2-0.4-0.4-0.6c-0.2-0.1-0.4-0.2-0.7-0.2c-0.6,0-1,0.3-1.3,0.5l0-0.1l0-1.2v-1l0-0.3
	l-1.4,0l0,8l1.4,0l0-0.4c0.2,0.2,0.6,0.4,1,0.5c0.4,0.1,0.8,0,1.1-0.2l0.1-0.1c0-0.1,0.1-0.1,0.1-0.2c0-0.1,0.1-0.1,0.1-0.2
	c0.1-0.2,0.1-0.4,0.1-0.6V69v-0.4v-0.8v-0.1v-0.3v-0.7c0-0.2,0-0.5,0-0.7c0-0.2-0.1-0.5,0-0.6C104.5,65.5,104.5,65.4,104.5,65.3z
	 M103.2,67v0.2v0.5v0.3v0.6V69l0,0.2c-0.1,0.3-0.2,0.4-0.5,0.4c-0.2,0-0.6-0.2-0.6-0.3V69v-0.4v-0.6v-0.3v-0.5v-0.4v-0.6v-0.5
	c0.2-0.1,0.4-0.3,0.8-0.2c0.3,0.1,0.4,0.3,0.4,0.7L103.2,67L103.2,67z"/>
<path class="st0" d="M109.6,67.7l0-1.7l-0.1-0.4c-0.2-0.7-0.8-1-1.6-1.1c-0.2,0-0.4,0-0.6,0c-0.2,0-0.3,0.1-0.5,0.1
	c-0.2,0.1-0.3,0.1-0.6,0.3c-0.3,0.2-0.5,0.5-0.6,0.8l-0.1,0.4l0,2.8l0,0.1l0,0.3c0,0.1,0.1,0.2,0.1,0.3c0.1,0.1,0.1,0.2,0.2,0.3
	c0.1,0,0.1,0.1,0.2,0.2c0.1,0.1,0.1,0.1,0.2,0.2c0.2,0,0.4,0.4,1.6,0.4c1-0.1,1.3-0.5,1.4-0.5c0-0.1,0.1-0.1,0.1-0.2
	c0,0,0.1-0.1,0.1-0.2c0-0.2,0.1-0.3,0.1-0.5l0-0.3l0-0.6h-1.4l0,0l0,0.3l0,0.3c0,0.1,0,0.3-0.1,0.4c-0.1,0.2-0.3,0.3-0.6,0.2
	c-0.3,0-0.4-0.1-0.5-0.4c0-0.1,0-0.1,0-0.2c-0.1-0.1,0-1.1,0-1.3L109.6,67.7z M107.1,65.9c0-0.2,0.1-0.2,0.2-0.3
	c0.1-0.1,0.3-0.1,0.5-0.1c0.2,0,0.3,0.1,0.3,0.2c0.1,0.2,0.1,0.8,0.1,1l-1.2,0C107,66.6,107,66,107.1,65.9z"/>
<path class="st0" d="M98,65.2v0.5l0,0.5v1v0.5v0.3v0.3l0,0.5l0,0.2c0,0.2-0.4,0.4-0.5,0.4c-0.1,0.1-0.3,0.1-0.4,0.1
	c-0.2,0-0.2-0.1-0.2-0.3l0-0.4v-0.5v-0.3v-0.3v-0.5v-1v-0.3v-0.7v-0.5l-1.4,0l0,5.1l0,0.1c0.1,0.3,0.1,0.3,0.2,0.5
	c0.1,0,0.4,0.5,1.3,0.2c0.5-0.2,0.7-0.4,1.1-0.6v0.6l1.4,0l0-5.9l-1.4,0C98,64.6,98,65.2,98,65.2z"/>
<polygon class="st0" points="95.4,62.5 90.7,62.5 90.7,63.7 92.3,63.7 92.3,70.5 93.8,70.5 93.8,70.3 93.8,69.8 93.8,69.3 93.8,69 
	93.8,68.6 93.8,68.1 93.8,67.8 93.8,67.2 93.8,66.4 93.8,65.4 93.8,64.3 93.8,64 93.9,63.7 95.4,63.7 "/>
<path class="st0" d="M99.2,57.7c0,0.1,0.1,0.2,0.1,0.3c0.1,0,0.2,0.2,0.7,0.2c0.1,0,0.3,0,0.4-0.1c0.2-0.1,0.2-0.1,0.3-0.2
	c0-0.1,0,0,0.1-0.1c0-0.1,0,0,0-0.1c0,0,0,0.1,0-0.1c0-0.1,0,0,0-0.1c0.1,0,0-0.4,0-0.5v-0.9v-1.3v-0.5V54h0v-0.5l0-0.4
	c0-0.1,0-0.2-0.1-0.3c0,0,0,0,0,0c0,0,0,0,0,0c-0.2-0.1-0.3-0.2-0.6-0.2c-0.3,0-0.4,0-0.6,0.2c-0.1,0.1-0.2,0.2-0.2,0.4v0.5v0.9
	l0,0.5v1.3v0.9c0,0.1,0,0.4,0,0.5L99.2,57.7z"/>
<g>
	<path class="st0" d="M180.8,41h-19.5v19.5V80h19.5h19.5V60.5V41H180.8z M180.8,45.5c3.9,0,7,3.1,7,7c0,3.9-3.1,7-7,7s-7-3.1-7-7
		C173.8,48.6,176.9,45.5,180.8,45.5z M188.8,64.2c-1.2,0.7-5,2.3-5,2.3l4.2,5.4c0,0,0.8,1,0.8,1.6c0,1.1-0.9,2-2,2
		c-1,0-1.5-0.7-1.5-0.7l-4.5-5.3l-4.6,5.3c0,0-0.5,0.7-1.5,0.7c-1.1,0-2-0.9-2-2c0-0.7,0.8-1.6,0.8-1.6l4.3-5.4c0,0-3.8-1.6-5-2.3
		c-0.4-0.2-1-0.7-1-1.7c0-1.1,0.9-2,2-2c1,0,3,2,7,2s6-2,7-2c1.1,0,2,0.9,2,2C189.7,63.5,189.1,63.9,188.8,64.2z"/>
	<path class="st0" d="M180.8,56c1.9,0,3.5-1.6,3.5-3.5c0-1.9-1.6-3.5-3.5-3.5s-3.5,1.6-3.5,3.5C177.3,54.4,178.9,56,180.8,56z"/>
</g>
<g>
	<path class="st1" d="M180.8,0h-19.5v19.5V39h19.5h19.5V19.5V0H180.8z M180.8,4.5c3.9,0,7,3.1,7,7c0,3.9-3.1,7-7,7s-7-3.1-7-7
		C173.8,7.6,176.9,4.5,180.8,4.5z M188.8,23.2c-1.2,0.7-5,2.3-5,2.3l4.2,5.4c0,0,0.8,1,0.8,1.6c0,1.1-0.9,2-2,2
		c-1,0-1.5-0.7-1.5-0.7l-4.5-5.3l-4.6,5.3c0,0-0.5,0.7-1.5,0.7c-1.1,0-2-0.9-2-2c0-0.7,0.8-1.6,0.8-1.6l4.3-5.4c0,0-3.8-1.6-5-2.3
		c-0.4-0.2-1-0.7-1-1.7c0-1.1,0.9-2,2-2c1,0,3,2,7,2s6-2,7-2c1.1,0,2,0.9,2,2C189.7,22.5,189.1,22.9,188.8,23.2z"/>
	<path class="st1" d="M180.8,15c1.9,0,3.5-1.6,3.5-3.5c0-1.9-1.6-3.5-3.5-3.5s-3.5,1.6-3.5,3.5C177.3,13.4,178.9,15,180.8,15z"/>
</g>
</svg>
