<svg width="180" height="51" viewBox="0 0 180 51" fill="none" xmlns="http://www.w3.org/2000/svg">
<path d="M51 31.7143V18H51.9744V24.5143L57.7783 18H59.0662L53.2284 24.5905L59.5746 31.7143H58.2698L51.9744 24.7048V31.7143H51Z" fill="#1A345C"/>
<path d="M65.4747 32C64.5596 32 63.7462 31.7873 63.0345 31.3619C62.3284 30.9302 61.772 30.327 61.3653 29.5524C60.9642 28.7714 60.7637 27.8571 60.7637 26.8095V18H61.7466V26.581C61.7466 27.3619 61.8624 28.0317 62.094 28.5905C62.3312 29.1429 62.6362 29.5937 63.009 29.9429C63.3875 30.2921 63.7914 30.5492 64.2207 30.7143C64.6556 30.8794 65.0736 30.9619 65.4747 30.9619C65.8757 30.9619 66.2937 30.8794 66.7287 30.7143C67.1636 30.5492 67.5675 30.2921 67.9403 29.9429C68.3131 29.5937 68.6153 29.1429 68.8469 28.5905C69.0841 28.0317 69.2027 27.3619 69.2027 26.581V18H70.1856V26.8095C70.1856 27.8508 69.9823 28.7619 69.5756 29.5429C69.1745 30.3175 68.6181 30.9206 67.9064 31.3524C67.2003 31.7841 66.3897 32 65.4747 32Z" fill="#1A345C"/>
<path d="M72.5629 31.7143V18H77.1637C77.2823 18 77.4094 18.0063 77.545 18.019C77.6862 18.0254 77.8331 18.0444 77.9856 18.0762C78.5956 18.1841 79.1181 18.4317 79.5531 18.819C79.9937 19.2 80.3298 19.6825 80.5614 20.2667C80.7929 20.8444 80.9087 21.4825 80.9087 22.181C80.9087 22.8857 80.7929 23.5302 80.5614 24.1143C80.3298 24.6921 79.9937 25.1746 79.5531 25.5619C79.1181 25.9429 78.5956 26.1873 77.9856 26.2952C77.8331 26.3206 77.6862 26.3397 77.545 26.3524C77.4094 26.3651 77.2823 26.3714 77.1637 26.3714H73.5373V31.7143H72.5629ZM73.5373 25.2952H77.1468C77.2484 25.2952 77.3642 25.2889 77.4942 25.2762C77.6297 25.2635 77.7653 25.2444 77.9009 25.219C78.3414 25.1175 78.7086 24.9175 79.0023 24.619C79.2961 24.3143 79.5164 23.9492 79.6632 23.5238C79.8101 23.0984 79.8835 22.6508 79.8835 22.181C79.8835 21.7111 79.8101 21.2667 79.6632 20.8476C79.5164 20.4222 79.2961 20.0603 79.0023 19.7619C78.7086 19.4571 78.3414 19.254 77.9009 19.1524C77.7653 19.1206 77.6297 19.0984 77.4942 19.0857C77.3642 19.073 77.2484 19.0667 77.1468 19.0667H73.5373V25.2952Z" fill="#1A345C"/>
<path d="M82.7774 31.7143V18H83.7518V31.7143H82.7774Z" fill="#1A345C"/>
<path d="M89.6536 31.7143V19.0667H85.2816V18H95V19.0667H90.628V31.7143H89.6536Z" fill="#1A345C"/>
<path d="M26 12V2L16 12V22L26 32V22L36 12V2L26 12Z" fill="#1A345C"/>
<path d="M16 22V32M36 22V32M26 12V22V32" stroke="#0072BC" stroke-width="2"/>
<path d="M13 12L10 17V27L13 22V12Z" fill="#FFA200"/>
<path d="M39 12L42 17V27L39 22V12Z" fill="#FFA200"/>
<path d="M16 29H10V33H16V29Z" fill="#FFA200"/>
<path d="M29 29H23V33H29V29Z" fill="#1A345C"/>
<path d="M42 29H36V33H42V29Z" fill="#FFA200"/>
<path d="M36 33H16V37H36V33Z" fill="#0072BC"/>
<path d="M163.353 12C163.978 12 164.544 12.1435 165.049 12.4305C165.561 12.7174 165.962 13.1136 166.252 13.6189C166.543 14.118 166.688 14.6732 166.688 15.2846C166.688 15.896 166.54 16.4574 166.243 16.969C165.946 17.4743 165.542 17.8736 165.03 18.1668C164.518 18.46 163.953 18.6066 163.334 18.6066C162.715 18.6066 162.15 18.46 161.638 18.1668C161.133 17.8736 160.732 17.4743 160.435 16.969C160.145 16.4637 160 15.9084 160 15.3033C160 14.6982 160.145 14.1429 160.435 13.6376C160.732 13.1323 161.136 12.733 161.648 12.4398C162.16 12.1466 162.728 12 163.353 12ZM163.334 18.0919C163.858 18.0919 164.332 17.9672 164.755 17.7176C165.185 17.4681 165.523 17.1312 165.769 16.707C166.015 16.2765 166.138 15.8024 166.138 15.2846C166.138 14.7668 166.018 14.2989 165.778 13.8809C165.538 13.4567 165.207 13.1229 164.784 12.8796C164.361 12.6363 163.884 12.5147 163.353 12.5147C162.823 12.5147 162.343 12.6394 161.913 12.889C161.484 13.1323 161.146 13.4661 160.9 13.8903C160.66 14.3145 160.54 14.7855 160.54 15.3033C160.54 15.8211 160.66 16.2921 160.9 16.7163C161.146 17.1406 161.481 17.4774 161.904 17.727C162.333 17.9703 162.81 18.0919 163.334 18.0919ZM165.068 14.7418C165.068 15.0163 165.002 15.2503 164.869 15.4437C164.743 15.6371 164.56 15.7837 164.32 15.8835L165.153 17.1468H164.338L163.6 16.0239H163.495H162.756V17.1468H161.942V13.4598H163.495C163.982 13.4598 164.364 13.5752 164.642 13.8061C164.926 14.0369 165.068 14.3488 165.068 14.7418ZM163.448 15.3969C163.713 15.3969 163.918 15.3407 164.064 15.2284C164.209 15.1099 164.282 14.9477 164.282 14.7418C164.282 14.536 164.209 14.3769 164.064 14.2646C163.918 14.1523 163.713 14.0961 163.448 14.0961H162.747V15.3969H163.448Z" fill="#1A345C"/>
<path d="M100 31.7143V18H108.276V20.5905H102.558V23.5619H107.148V26.1524H102.558V31.7143H100Z" fill="#1A345C"/>
<path d="M110.163 31.7143V18H112.721V31.7143H110.163Z" fill="#1A345C"/>
<path d="M115.54 31.7143V18H121.258C121.39 18 121.566 18.0063 121.785 18.019C122.011 18.0254 122.211 18.0444 122.387 18.0762C123.196 18.2032 123.857 18.473 124.372 18.8857C124.892 19.2984 125.274 19.819 125.519 20.4476C125.763 21.0698 125.886 21.7651 125.886 22.5333C125.886 23.6825 125.604 24.6667 125.039 25.4857C124.475 26.2984 123.591 26.8 122.387 26.9905L121.258 27.0667H118.098V31.7143H115.54ZM123.177 31.7143L120.506 26.1333L123.139 25.619L126.074 31.7143H123.177ZM118.098 24.6476H121.146C121.277 24.6476 121.421 24.6413 121.578 24.6286C121.735 24.6159 121.879 24.5905 122.011 24.5524C122.356 24.4571 122.622 24.2984 122.81 24.0762C122.998 23.8476 123.127 23.5968 123.196 23.3238C123.271 23.0444 123.309 22.781 123.309 22.5333C123.309 22.2857 123.271 22.0254 123.196 21.7524C123.127 21.473 122.998 21.2222 122.81 21C122.622 20.7714 122.356 20.6095 122.011 20.5143C121.879 20.4762 121.735 20.4508 121.578 20.4381C121.421 20.4254 121.277 20.419 121.146 20.419H118.098V24.6476Z" fill="#1A345C"/>
<path d="M129 31.7143V18H131.295L135.772 27.1048L140.249 18H142.544V31.7143H140.155V23.5238L136.223 31.7143H135.321L131.389 23.5238V31.7143H129Z" fill="#1A345C"/>
<path d="M153.455 32.0115C152.376 32.0115 151.427 31.7893 150.605 31.3448C149.79 30.9004 149.151 30.275 148.687 29.4686C148.229 28.6623 148 27.7163 148 26.6305V18.0305L150.295 18.0115V26.5734C150.295 27.0877 150.379 27.548 150.549 27.9544C150.724 28.3607 150.959 28.7067 151.254 28.9924C151.549 29.2718 151.887 29.4845 152.27 29.6305C152.652 29.7766 153.047 29.8496 153.455 29.8496C153.875 29.8496 154.273 29.7766 154.649 29.6305C155.032 29.4782 155.37 29.2623 155.665 28.9829C155.96 28.6972 156.192 28.3512 156.361 27.9448C156.53 27.5385 156.615 27.0813 156.615 26.5734V18.0115H158.91V26.6305C158.91 27.7163 158.678 28.6623 158.214 29.4686C157.756 30.275 157.117 30.9004 156.295 31.3448C155.48 31.7893 154.533 32.0115 153.455 32.0115Z" fill="#1A345C"/>
</svg>

