<svg width="40" height="40" viewBox="0 0 40 40" fill="none" xmlns="http://www.w3.org/2000/svg">
<g clip-path="url(#clip0)">
<path d="M32 16C36.4115 16 40 12.4115 40 8C40 3.58854 36.4115 0 32 0C28.7966 0 26.0345 1.89681 24.7581 4.62272L22.6159 3.83203C22.6413 3.66797 22.6667 3.50391 22.6667 3.33333C22.6667 1.49544 21.1712 0 19.3333 0C17.4954 0 16 1.49544 16 3.33333C16 5.17122 17.4954 6.66667 19.3333 6.66667C20.5273 6.66667 21.5687 6.02995 22.1572 5.08398L24.2959 5.87337C24.1081 6.55208 24 7.2627 24 8C24 8.87337 24.1452 9.71191 24.4053 10.4993L17.0732 13.6068C15.7308 11.0687 13.0661 9.33333 10 9.33333C9.00651 9.33333 8.05859 9.52409 7.18001 9.85612L5.33594 5.98079C6.13932 5.37142 6.66667 4.41667 6.66667 3.33333C6.66667 1.49544 5.17122 0 3.33333 0C1.49544 0 0 1.49544 0 3.33333C0 5.17122 1.49544 6.66667 3.33333 6.66667C3.61068 6.66667 3.87663 6.62272 4.13477 6.55794L5.97656 10.4294C3.60254 11.8187 2 14.3893 2 17.3333C2 20.0986 3.41081 22.5394 5.54948 23.9766L4.33008 26.1686C4.0127 26.0687 3.68262 26 3.33333 26C1.49544 26 0 27.4954 0 29.3333C0 31.1712 1.49544 32.6667 3.33333 32.6667C5.17122 32.6667 6.66667 31.1712 6.66667 29.3333C6.66667 28.3239 6.20605 27.4287 5.49544 26.8174L6.71745 24.6208C7.72005 25.0745 8.82943 25.3333 10 25.3333C11.8294 25.3333 13.512 24.7093 14.8613 23.6719L17.4854 26.5586C16.1546 27.988 15.3333 29.8975 15.3333 32C15.3333 32.4079 15.374 32.8053 15.4326 33.1966L12.3454 33.9294C11.8141 32.7933 10.668 32 9.33333 32C7.49544 32 6 33.4954 6 35.3333C6 37.1712 7.49544 38.6667 9.33333 38.6667C11.1712 38.6667 12.6667 37.1712 12.6667 35.3333C12.6667 35.2966 12.6566 35.262 12.6559 35.2253L15.7373 34.4948C16.7881 37.6872 19.7933 40 23.3333 40C27.7448 40 31.3333 36.4115 31.3333 32C31.3333 30.6322 30.9873 29.3441 30.3792 28.2174L34.2952 25.6712C34.9007 26.2845 35.7393 26.6667 36.6667 26.6667C38.5046 26.6667 40 25.1712 40 23.3333C40 21.4954 38.5046 20 36.6667 20C34.8288 20 33.3333 21.4954 33.3333 23.3333C33.3333 23.764 33.4219 24.1732 33.5713 24.5514L29.6462 27.1032C28.8607 26.0934 27.8408 25.278 26.6667 24.7367L29.9206 15.7161C30.5846 15.8952 31.2799 16 32 16ZM19.3333 5.33333C18.2308 5.33333 17.3333 4.43587 17.3333 3.33333C17.3333 2.23079 18.2308 1.33333 19.3333 1.33333C20.4359 1.33333 21.3333 2.23079 21.3333 3.33333C21.3333 4.43587 20.4359 5.33333 19.3333 5.33333ZM1.33333 3.33333C1.33333 2.23079 2.23079 1.33333 3.33333 1.33333C4.43587 1.33333 5.33333 2.23079 5.33333 3.33333C5.33333 4.43587 4.43587 5.33333 3.33333 5.33333C2.23079 5.33333 1.33333 4.43587 1.33333 3.33333ZM3.33333 31.3333C2.23079 31.3333 1.33333 30.4359 1.33333 29.3333C1.33333 28.2308 2.23079 27.3333 3.33333 27.3333C4.43587 27.3333 5.33333 28.2308 5.33333 29.3333C5.33333 30.4359 4.43587 31.3333 3.33333 31.3333ZM9.33333 37.3333C8.23079 37.3333 7.33333 36.4359 7.33333 35.3333C7.33333 34.2308 8.23079 33.3333 9.33333 33.3333C10.4359 33.3333 11.3333 34.2308 11.3333 35.3333C11.3333 36.4359 10.4359 37.3333 9.33333 37.3333ZM36.6667 21.3333C37.7692 21.3333 38.6667 22.2308 38.6667 23.3333C38.6667 24.4359 37.7692 25.3333 36.6667 25.3333C35.5641 25.3333 34.6667 24.4359 34.6667 23.3333C34.6667 22.2308 35.5641 21.3333 36.6667 21.3333ZM28.0739 13.376C28.3714 11.834 29.7308 10.6667 31.3333 10.6667H32.6667C34.2692 10.6667 35.6286 11.834 35.9261 13.376C34.8232 14.1833 33.4688 14.6667 32 14.6667C30.5312 14.6667 29.1768 14.1833 28.0739 13.376ZM32 9.33333C30.8975 9.33333 30 8.43587 30 7.33333C30 6.23079 30.8975 5.33333 32 5.33333C33.1025 5.33333 34 6.23079 34 7.33333C34 8.43587 33.1025 9.33333 32 9.33333ZM32 1.33333C35.6761 1.33333 38.6667 4.32389 38.6667 8C38.6667 9.66667 38.0472 11.1895 37.0319 12.3594C36.5648 11.1292 35.5908 10.1475 34.3773 9.66276C34.9674 9.0612 35.3333 8.23991 35.3333 7.33333C35.3333 5.49544 33.8379 4 32 4C30.1621 4 28.6667 5.49544 28.6667 7.33333C28.6667 8.23991 29.0326 9.0612 29.6227 9.66276C28.4092 10.1475 27.4352 11.1292 26.9681 12.3594C25.9528 11.1895 25.3333 9.66667 25.3333 8C25.3333 4.32389 28.3239 1.33333 32 1.33333ZM3.33333 17.3333C3.33333 13.6572 6.32389 10.6667 10 10.6667C13.6761 10.6667 16.6667 13.6572 16.6667 17.3333C16.6667 19.0052 16.0433 20.5319 15.0228 21.7035C14.5573 20.4688 13.5814 19.4821 12.3646 18.9961C12.9541 18.3945 13.32 17.5732 13.32 16.6667C13.32 14.8288 11.8245 13.3333 9.98665 13.3333C8.14876 13.3333 6.65332 14.8288 6.65332 16.6667C6.65332 17.5732 7.01921 18.3945 7.60938 18.9961C6.39941 19.4785 5.42676 20.4567 4.95801 21.682C3.94857 20.5133 3.33333 18.9954 3.33333 17.3333ZM7.98665 16.6667C7.98665 15.5641 8.88412 14.6667 9.98665 14.6667C11.0892 14.6667 11.9867 15.5641 11.9867 16.6667C11.9867 17.7692 11.0892 18.6667 9.98665 18.6667C8.88412 18.6667 7.98665 17.7692 7.98665 16.6667ZM6.06283 22.7005C6.36328 21.1628 7.7207 20 9.31999 20H10.6533C12.2588 20 13.6208 21.1712 13.9141 22.7181C12.8135 23.5205 11.4632 24 10 24C8.52604 24 7.16732 23.5133 6.06283 22.7005ZM19.3962 37.3672C19.6966 35.8294 21.054 34.6667 22.6533 34.6667H23.9867C25.5921 34.6667 26.9541 35.8379 27.2474 37.3848C26.1468 38.1872 24.7966 38.6667 23.3333 38.6667C21.8594 38.6667 20.5007 38.18 19.3962 37.3672ZM23.32 33.3333C22.2174 33.3333 21.32 32.4359 21.32 31.3333C21.32 30.2308 22.2174 29.3333 23.32 29.3333C24.4225 29.3333 25.32 30.2308 25.32 31.3333C25.32 32.4359 24.4225 33.3333 23.32 33.3333ZM30 32C30 33.6719 29.3766 35.1986 28.3561 36.3701C27.8906 35.1354 26.9147 34.1488 25.6979 33.6628C26.2874 33.0612 26.6533 32.2399 26.6533 31.3333C26.6533 29.4954 25.1579 28 23.32 28C21.4821 28 19.9867 29.4954 19.9867 31.3333C19.9867 32.2399 20.3525 33.0612 20.9427 33.6628C19.7327 34.1452 18.7601 35.1234 18.2913 36.3486C17.2819 35.18 16.6667 33.6621 16.6667 32C16.6667 28.3239 19.6572 25.3333 23.3333 25.3333C27.0094 25.3333 30 28.3239 30 32ZM25.4128 24.2839C24.7487 24.1048 24.0534 24 23.3333 24C21.5039 24 19.8213 24.624 18.472 25.6615L15.848 22.7747C17.1787 21.3454 18 19.4359 18 17.3333C18 16.46 17.8548 15.6214 17.5947 14.834L24.9268 11.7266C25.748 13.2793 27.0661 14.5254 28.6673 15.2633L25.4128 24.2839Z" fill="#1A345C"/>
</g>
<defs>
<clipPath id="clip0">
<rect width="40" height="40" fill="white"/>
</clipPath>
</defs>
</svg>
