<svg width="70" height="70" viewBox="0 0 70 70" fill="none" xmlns="http://www.w3.org/2000/svg">
<g clip-path="url(#clip0)">
<path d="M41.1059 29.2739C38.2101 26.3684 34.5178 24.3868 30.4959 23.5797C26.4739 22.7727 22.3029 23.1764 18.5104 24.7398C14.7179 26.3033 11.4742 28.9562 9.18942 32.3631C6.90466 35.7701 5.68149 39.7781 5.67458 43.8802C5.66768 47.9823 6.87735 51.9944 9.15063 55.409C11.4239 58.8236 14.6587 61.4875 18.4459 63.0637C22.2331 64.6398 26.4027 65.0576 30.4274 64.2641C34.452 63.4706 38.151 61.5014 41.0565 58.6057L26.4153 43.9151L41.1059 29.2739Z" stroke="#FFA200" stroke-width="2" stroke-linecap="round" stroke-dasharray="1 4"/>
<path d="M67.6642 7.29175H19.8361C19.6033 7.29175 19.3801 7.38616 19.2155 7.55421C19.051 7.72226 18.9585 7.95019 18.9585 8.18785V36.1462C18.9585 36.3839 19.051 36.6118 19.2155 36.7799C19.3801 36.9479 19.6033 37.0423 19.8361 37.0423H36.4252C37.123 38.8428 38.4356 40.3244 40.1204 41.2133C41.8051 42.1021 43.748 42.3382 45.5899 41.8777V49.1082L44.428 47.668C44.3428 47.5705 44.2385 47.4924 44.1217 47.439C44.005 47.3856 43.8785 47.358 43.7505 47.358C43.6226 47.358 43.4961 47.3856 43.3793 47.439C43.2626 47.4924 43.1582 47.5705 43.073 47.668L41.9111 49.1082V44.956C41.9111 44.7183 41.8186 44.4904 41.6541 44.3224C41.4895 44.1543 41.2663 44.0599 41.0335 44.0599C40.8008 44.0599 40.5776 44.1543 40.413 44.3224C40.2484 44.4904 40.1559 44.7183 40.1559 44.956V51.6036C40.1559 51.7883 40.2117 51.9684 40.3157 52.1195C40.4197 52.2705 40.5669 52.385 40.7371 52.4474C40.9073 52.5098 41.0922 52.5169 41.2665 52.4679C41.4408 52.4189 41.5961 52.3161 41.711 52.1736L43.7505 49.6466L45.79 52.1736C45.9049 52.3161 46.0602 52.4189 46.2345 52.4679C46.4089 52.5169 46.5938 52.5098 46.764 52.4474C46.9342 52.385 47.0813 52.2705 47.1853 52.1195C47.2894 51.9684 47.3452 51.7883 47.3451 51.6036V41.2153C48.7853 40.4739 49.966 39.2963 50.7258 37.8436C51.4856 36.3909 51.7873 34.734 51.5898 33.0995H59.4592C59.692 33.0995 59.9152 33.0051 60.0798 32.837C60.2443 32.669 60.3368 32.441 60.3368 32.2034V29.186H63.2911C63.5238 29.186 63.747 29.0916 63.9116 28.9236C64.0762 28.7555 64.1687 28.5276 64.1687 28.2899V16.0434C64.1687 15.8058 64.0762 15.5779 63.9116 15.4098C63.747 15.2417 63.5238 15.1473 63.2911 15.1473H60.3368V12.1307C60.3368 11.893 60.2443 11.6651 60.0798 11.4971C59.9152 11.329 59.692 11.2346 59.4592 11.2346H28.0418C27.8091 11.2346 27.5858 11.329 27.4213 11.4971C27.2567 11.6651 27.1642 11.893 27.1642 12.1307V15.1473H24.2092C23.9765 15.1473 23.7533 15.2417 23.5887 15.4098C23.4241 15.5779 23.3317 15.8058 23.3317 16.0434V28.2899C23.3317 28.5276 23.4241 28.7555 23.5887 28.9236C23.7533 29.0916 23.9765 29.186 24.2092 29.186H27.1642V32.2034C27.1642 32.441 27.2567 32.669 27.4213 32.837C27.5858 33.0051 27.8091 33.0995 28.0418 33.0995H32.7808C33.0135 33.0995 33.2367 33.0051 33.4013 32.837C33.5659 32.669 33.6583 32.441 33.6583 32.2034C33.6583 31.9657 33.5659 31.7378 33.4013 31.5697C33.2367 31.4017 33.0135 31.3073 32.7808 31.3073H28.9194V28.2899C28.9194 28.0523 28.8269 27.8243 28.6624 27.6563C28.4978 27.4882 28.2746 27.3938 28.0418 27.3938H25.0868V16.9395H28.0418C28.2746 16.9395 28.4978 16.8451 28.6624 16.6771C28.8269 16.509 28.9194 16.2811 28.9194 16.0434V13.0268H58.5816V16.0434C58.5816 16.2811 58.6741 16.509 58.8387 16.6771C59.0033 16.8451 59.2265 16.9395 59.4592 16.9395H62.4135V27.3938H59.4592C59.2265 27.3938 59.0033 27.4882 58.8387 27.6563C58.6741 27.8243 58.5816 28.0523 58.5816 28.2899V31.3073H51.1706C50.5162 29.4129 49.1918 27.8367 47.4575 26.8885C45.7232 25.9402 43.7043 25.6883 41.7975 26.1823C39.8906 26.6763 38.2335 27.8805 37.1516 29.5583C36.0698 31.2361 35.6414 33.2663 35.9506 35.2501H20.7158V9.08395H66.7867V35.2501H54.457C54.2243 35.2501 54.001 35.3445 53.8365 35.5126C53.6719 35.6806 53.5794 35.9086 53.5794 36.1462C53.5794 36.3839 53.6719 36.6118 53.8365 36.7799C54.001 36.9479 54.2243 37.0423 54.457 37.0423H67.6642C67.897 37.0423 68.1202 36.9479 68.2848 36.7799C68.4494 36.6118 68.5418 36.3839 68.5418 36.1462V8.18785C68.5418 7.95019 68.4494 7.72226 68.2848 7.55421C68.1202 7.38616 67.897 7.29175 67.6642 7.29175ZM43.7505 27.7702C44.9655 27.7702 46.1532 28.1381 47.1634 28.8273C48.1736 29.5166 48.961 30.4963 49.426 31.6424C49.8909 32.7886 50.0126 34.0499 49.7755 35.2667C49.5385 36.4834 48.9534 37.6011 48.0943 38.4784C47.2352 39.3556 46.1406 39.9531 44.949 40.1951C43.7573 40.4371 42.5222 40.3129 41.3997 39.8381C40.2772 39.3634 39.3177 38.5594 38.6427 37.5278C37.9677 36.4963 37.6074 35.2835 37.6074 34.0429C37.6093 32.3799 38.2571 30.7855 39.4088 29.6095C40.5604 28.4336 42.1218 27.7721 43.7505 27.7702Z" fill="white"/>
<path d="M43.7493 37.9167C44.6147 37.9169 45.4606 37.6604 46.1802 37.1797C46.8998 36.699 47.4606 36.0158 47.7918 35.2163C48.1231 34.4169 48.2098 33.5371 48.041 32.6884C47.8722 31.8397 47.4555 31.0601 46.8436 30.4482C46.2317 29.8363 45.4521 29.4196 44.6034 29.2508C43.7546 29.082 42.8749 29.1687 42.0754 29.4999C41.276 29.8311 40.5927 30.392 40.112 31.1116C39.6314 31.8311 39.3749 32.6771 39.375 33.5424C39.3765 34.7021 39.8378 35.8139 40.6578 36.6339C41.4778 37.454 42.5896 37.9153 43.7493 37.9167ZM43.7493 30.8858C44.2748 30.8857 44.7885 31.0414 45.2254 31.3332C45.6624 31.625 46.003 32.0399 46.2042 32.5253C46.4054 33.0107 46.4581 33.5449 46.3557 34.0603C46.2532 34.5757 46.0003 35.0491 45.6288 35.4207C45.2572 35.7923 44.7839 36.0454 44.2685 36.148C43.7532 36.2505 43.219 36.1979 42.7335 35.9969C42.248 35.7958 41.8331 35.4553 41.5412 35.0184C41.2492 34.5816 41.0934 34.0679 41.0934 33.5424C41.0941 32.8382 41.3741 32.163 41.872 31.665C42.37 31.1669 43.0451 30.8867 43.7493 30.8858Z" fill="white"/>
<path d="M48.7201 17.5001C48.949 17.5001 49.1686 17.4233 49.3305 17.2865C49.4924 17.1498 49.5833 16.9643 49.5833 16.7709C49.5833 16.5775 49.4924 16.3921 49.3305 16.2553C49.1686 16.1186 48.949 16.0417 48.7201 16.0417H40.2382C40.0093 16.0417 39.7897 16.1186 39.6278 16.2553C39.4659 16.3921 39.375 16.5775 39.375 16.7709C39.375 16.9643 39.4659 17.1498 39.6278 17.2865C39.7897 17.4233 40.0093 17.5001 40.2382 17.5001H48.7201Z" fill="white"/>
<path d="M35 19.6874C35 19.8808 35.0945 20.0663 35.2626 20.203C35.4308 20.3398 35.6589 20.4166 35.8967 20.4166H51.6033C51.8411 20.4166 52.0692 20.3398 52.2374 20.203C52.4055 20.0663 52.5 19.8808 52.5 19.6874C52.5 19.494 52.4055 19.3086 52.2374 19.1718C52.0692 19.0351 51.8411 18.9583 51.6033 18.9583H35.9003C35.7822 18.9579 35.6652 18.9764 35.556 19.0129C35.4468 19.0494 35.3476 19.103 35.2639 19.1708C35.1803 19.2385 35.1139 19.319 35.0686 19.4077C35.0233 19.4964 35 19.5914 35 19.6874Z" fill="white"/>
</g>
<defs>
<clipPath id="clip0">
<rect width="70" height="70" fill="white"/>
</clipPath>
</defs>
</svg>
