<svg width="14" height="14" viewBox="0 0 14 14" fill="none" xmlns="http://www.w3.org/2000/svg">
<path fill-rule="evenodd" clip-rule="evenodd" d="M7.0001 13.4001C10.5347 13.4001 13.4001 10.5347 13.4001 7.0001C13.4001 3.46548 10.5347 0.600098 7.0001 0.600098C3.46548 0.600098 0.600098 3.46548 0.600098 7.0001C0.600098 10.5347 3.46548 13.4001 7.0001 13.4001ZM7.7501 3.0001C7.7501 2.58588 7.41431 2.2501 7.0001 2.2501C6.58588 2.2501 6.2501 2.58588 6.2501 3.0001V7.0001C6.2501 7.41431 6.58588 7.7501 7.0001 7.7501H10.2001C10.6143 7.7501 10.9501 7.41431 10.9501 7.0001C10.9501 6.58588 10.6143 6.2501 10.2001 6.2501H7.7501V3.0001Z" fill="#333333"/>
</svg>
