<svg width="12" height="12" viewBox="0 0 12 12" fill="none" xmlns="http://www.w3.org/2000/svg">
<path fill-rule="evenodd" clip-rule="evenodd" d="M0 1.71429C0 0.767512 0.767512 0 1.71429 0H2.49807C2.98972 0 3.41827 0.334604 3.53751 0.811569L4.16939 3.3391C4.27395 3.75731 4.11768 4.19746 3.77281 4.45611L3.0336 5.01051C2.95684 5.06808 2.94015 5.15239 2.96171 5.21125C3.61058 6.98256 5.01744 8.38942 6.78875 9.03829C6.84761 9.05985 6.93192 9.04316 6.98949 8.9664L7.5439 8.22719C7.80254 7.88232 8.24269 7.72605 8.6609 7.83061L11.1884 8.46249C11.6654 8.58173 12 9.01029 12 9.50193V10.2857C12 11.2325 11.2325 12 10.2857 12H9C4.02944 12 0 7.97056 0 3V1.71429Z" fill="#333333"/>
</svg>
